<?xml version="1.0" encoding="UTF-8"?> <svg xmlns="http://www.w3.org/2000/svg" width="431" height="42" viewBox="0 0 431 42" fill="none"> <path d="M22.252 41H0.894V1.647H21.603C25.1823 1.647 27.9553 2.63033 29.922 4.597C31.928 6.52433 32.931 8.88433 32.931 11.677C32.931 14.0763 32.282 16.0823 30.984 17.695C29.686 19.3077 28.0733 20.3107 26.146 20.704C28.27 21.0187 30.0597 22.1003 31.515 23.949C32.9703 25.7977 33.698 27.9413 33.698 30.38C33.698 33.448 32.695 35.985 30.689 37.991C28.683 39.997 25.8707 41 22.252 41ZM19.774 17.4C21.19 17.4 22.311 17.0067 23.137 16.22C23.963 15.4333 24.376 14.4107 24.376 13.152C24.376 11.8933 23.9433 10.8707 23.078 10.084C22.252 9.258 21.1507 8.845 19.774 8.845H9.272V17.4H19.774ZM20.069 33.743C21.6423 33.743 22.8813 33.3497 23.786 32.563C24.6907 31.737 25.143 30.616 25.143 29.2C25.143 27.902 24.6907 26.8203 23.786 25.955C22.8813 25.0503 21.6423 24.598 20.069 24.598H9.272V33.743H20.069Z" fill="#39C79A"></path> <path d="M67.8641 41H40.0161V1.647H67.8641V9.022H48.3941V17.341H67.4511V24.716H48.3941V33.625H67.8641V41ZM88.3965 41.708C81.3952 41.708 75.8492 39.6233 71.7585 35.454L76.3015 29.082C79.6842 32.622 83.8535 34.392 88.8095 34.392C90.9729 34.392 92.6445 33.979 93.8245 33.153C95.0439 32.2877 95.6535 31.2453 95.6535 30.026C95.6535 28.964 95.0832 28.079 93.9425 27.371C92.8412 26.663 91.4449 26.1517 89.7535 25.837C88.1015 25.5223 86.2922 25.07 84.3255 24.48C82.3589 23.89 80.5299 23.2213 78.8385 22.474C77.1865 21.7267 75.7902 20.5467 74.6495 18.934C73.5482 17.3213 72.9975 15.3547 72.9975 13.034C72.9975 9.65133 74.3545 6.81933 77.0685 4.538C79.7825 2.21733 83.4012 1.057 87.9245 1.057C94.1785 1.057 99.2919 2.886 103.265 6.544L98.6035 12.68C95.4962 9.80866 91.6809 8.373 87.1575 8.373C85.3875 8.373 84.0109 8.727 83.0275 9.435C82.0442 10.143 81.5525 11.1067 81.5525 12.326C81.5525 13.27 82.1032 14.0763 83.2045 14.745C84.3452 15.3743 85.7415 15.8463 87.3935 16.161C89.0849 16.4757 90.8942 16.9477 92.8215 17.577C94.7882 18.167 96.5975 18.8553 98.2495 19.642C99.9409 20.3893 101.337 21.589 102.439 23.241C103.579 24.8537 104.15 26.8007 104.15 29.082C104.15 32.858 102.793 35.9063 100.079 38.227C97.4039 40.5477 93.5099 41.708 88.3965 41.708ZM126.564 41H118.127V9.022H106.622V1.647H138.01V9.022H126.564V41ZM166.855 41H158.477V1.647H176.885C181.015 1.647 184.24 2.86633 186.561 5.305C188.921 7.70433 190.101 10.7133 190.101 14.332C190.101 17.9113 188.921 20.9203 186.561 23.359C184.201 25.7977 180.976 27.017 176.885 27.017H166.855V41ZM175.764 19.642C177.455 19.642 178.832 19.17 179.894 18.226C180.995 17.2427 181.546 15.9447 181.546 14.332C181.546 12.7193 180.995 11.441 179.894 10.497C178.832 9.51366 177.455 9.022 175.764 9.022H166.855V19.642H175.764ZM227.154 41H217.537L209.808 27.017H203.672V41H195.294V1.647H213.702C217.754 1.647 220.959 2.827 223.319 5.187C225.719 7.547 226.918 10.5953 226.918 14.332C226.918 17.5573 226.073 20.173 224.381 22.179C222.729 24.185 220.704 25.4633 218.304 26.014L227.154 41ZM212.463 19.642C214.194 19.642 215.61 19.17 216.711 18.226C217.813 17.2427 218.363 15.9447 218.363 14.332C218.363 12.7193 217.813 11.441 216.711 10.497C215.61 9.51366 214.194 9.022 212.463 9.022H203.672V19.642H212.463ZM269.905 41H260.347L257.928 34.333H241.054L238.576 41H229.017L244.24 1.647H254.742L269.905 41ZM255.627 26.958L249.491 10.025L243.355 26.958H255.627ZM290.579 41.708C284.6 41.708 279.605 39.82 275.593 36.044C271.62 32.2287 269.634 27.3317 269.634 21.353C269.634 15.3743 271.62 10.497 275.593 6.721C279.605 2.90566 284.6 0.997998 290.579 0.997998C297.934 0.997998 303.421 4.20366 307.04 10.615L299.842 14.155C298.977 12.503 297.698 11.146 296.007 10.084C294.355 8.98266 292.546 8.432 290.579 8.432C287 8.432 284.05 9.65133 281.729 12.09C279.408 14.5287 278.248 17.6163 278.248 21.353C278.248 25.0897 279.408 28.1773 281.729 30.616C284.05 33.0547 287 34.274 290.579 34.274C292.546 34.274 294.355 33.743 296.007 32.681C297.698 31.619 298.977 30.2423 299.842 28.551L307.04 32.032C303.303 38.4827 297.816 41.708 290.579 41.708ZM329.55 41H321.113V9.022H309.608V1.647H340.996V9.022H329.55V41ZM354.745 41H346.367V1.647H354.745V41ZM381.614 41.708C375.635 41.708 370.64 39.82 366.628 36.044C362.655 32.2287 360.669 27.3317 360.669 21.353C360.669 15.3743 362.655 10.497 366.628 6.721C370.64 2.90566 375.635 0.997998 381.614 0.997998C388.969 0.997998 394.456 4.20366 398.075 10.615L390.877 14.155C390.012 12.503 388.733 11.146 387.042 10.084C385.39 8.98266 383.581 8.432 381.614 8.432C378.035 8.432 375.085 9.65133 372.764 12.09C370.443 14.5287 369.283 17.6163 369.283 21.353C369.283 25.0897 370.443 28.1773 372.764 30.616C375.085 33.0547 378.035 34.274 381.614 34.274C383.581 34.274 385.39 33.743 387.042 32.681C388.733 31.619 390.012 30.2423 390.877 28.551L398.075 32.032C394.338 38.4827 388.851 41.708 381.614 41.708ZM430.91 41H403.062V1.647H430.91V9.022H411.44V17.341H430.497V24.716H411.44V33.625H430.91V41Z" fill="#E7EBEB"></path> </svg> 