<?xml version="1.0" encoding="UTF-8"?> <svg xmlns="http://www.w3.org/2000/svg" width="447" height="134" viewBox="0 0 447 134" fill="none"> <path opacity="0.3" d="M139.088 134L87.6883 0.599989H52.0883L0.488281 134H32.8883L41.2883 111.4H98.4883L106.688 134H139.088ZM90.6883 86.4H49.0883L69.8883 29L90.6883 86.4ZM223.807 134C249.207 134 262.607 118 262.607 98C262.607 81.2 251.207 67.4 237.007 65.2C249.607 62.6 260.007 51.4 260.007 34.6C260.007 16.8 247.007 0.599989 221.607 0.599989H151.407V134H223.807ZM215.407 54H179.807V25H215.407C225.007 25 231.007 31.2 231.007 39.6C231.007 48 225.007 54 215.407 54ZM216.407 109.4H179.807V78.4H216.407C227.607 78.4 233.607 85.6 233.607 94C233.607 103.6 227.207 109.4 216.407 109.4ZM312.424 134V0.599989H284.024V134H312.424ZM367.307 134V86.6H401.307C430.107 86.6 446.107 66.8 446.107 43.6C446.107 20.2 430.307 0.599989 401.307 0.599989H338.907V134H367.307ZM397.507 61.6H367.307V25.6H397.507C408.707 25.6 417.107 32.4 417.107 43.6C417.107 54.6 408.707 61.6 397.507 61.6Z" fill="url(#paint0_linear)"></path> <defs> <linearGradient id="paint0_linear" x1="450.832" y1="30.6613" x2="161.172" y2="300.891" gradientUnits="userSpaceOnUse"> <stop stop-color="#64C5E9"></stop> <stop offset="1" stop-color="#A9F0C5"></stop> </linearGradient> </defs> </svg> 