<?xml version="1.0" encoding="UTF-8"?> <svg xmlns="http://www.w3.org/2000/svg" width="76" height="62" viewBox="0 0 76 62" fill="none"> <path d="M0.988281 30.5334C0.988281 13.6703 14.6585 0 31.5217 0C48.3848 0 62.0551 13.6703 62.0551 30.5334C62.0551 47.3965 48.3848 61.0668 31.5217 61.0668C14.6585 61.0668 0.988281 47.3965 0.988281 30.5334Z" fill="white"></path> <path d="M50.8844 52.8752L58.7039 43.9386L75.46 61.067H34.5006L50.8844 52.8752Z" fill="white"></path> <path d="M47.1115 21.7438C46.6031 20.5492 45.87 19.4666 44.9533 18.5568C44.0359 17.6442 42.9542 16.919 41.7672 16.4205C40.5363 15.9017 39.2161 15.6361 37.8832 15.6392C36.0132 15.6392 34.1888 16.1588 32.6034 17.1403C32.2241 17.3751 31.8637 17.633 31.5224 17.914C31.181 17.633 30.8207 17.3751 30.4414 17.1403C28.8559 16.1588 27.0315 15.6392 25.1615 15.6392C23.815 15.6392 22.5103 15.9009 21.2775 16.4205C20.0865 16.9209 19.0131 17.6407 18.0914 18.5568C17.1735 19.4656 16.4403 20.5484 15.9332 21.7438C15.406 22.987 15.1367 24.3072 15.1367 25.6659C15.1367 26.9477 15.3946 28.2833 15.9067 29.642C16.3353 30.7774 16.9498 31.9552 17.7349 33.1446C18.979 35.0268 20.6896 36.9898 22.8137 38.9797C26.3336 42.2784 29.8193 44.557 29.9672 44.6494L30.8662 45.2344C31.2644 45.4923 31.7765 45.4923 32.1748 45.2344L33.0737 44.6494C33.2216 44.5531 36.7036 42.2784 40.2272 38.9797C42.3513 36.9898 44.0619 35.0268 45.306 33.1446C46.0912 31.9552 46.7094 30.7774 47.1342 29.642C47.6463 28.2833 47.9042 26.9477 47.9042 25.6659C47.908 24.3072 47.6387 22.987 47.1115 21.7438Z" fill="#4BC197"></path> </svg> 