<?xml version="1.0" encoding="UTF-8"?> <svg xmlns="http://www.w3.org/2000/svg" width="212" height="41" viewBox="0 0 212 41" fill="none"> <path d="M41.592 40H32.034L29.615 33.333H12.741L10.263 40H0.705L15.927 0.646997H26.429L41.592 40ZM27.314 25.958L21.178 9.025L15.042 25.958H27.314Z" fill="#39C79A"></path> <path d="M70.242 40H45.226V0.646997H53.604V32.625H70.242V40ZM103.957 40H76.1088V0.646997H103.957V8.022H84.4868V16.341H103.544V23.716H84.4868V32.625H103.957V40ZM142.366 40H132.749L125.02 26.017H118.884V40H110.506V0.646997H128.914C132.966 0.646997 136.171 1.827 138.531 4.187C140.931 6.547 142.13 9.59533 142.13 13.332C142.13 16.5573 141.285 19.173 139.593 21.179C137.941 23.185 135.916 24.4633 133.516 25.014L142.366 40ZM127.675 18.642C129.406 18.642 130.822 18.17 131.923 17.226C133.025 16.2427 133.575 14.9447 133.575 13.332C133.575 11.7193 133.025 10.441 131.923 9.497C130.822 8.51366 129.406 8.022 127.675 8.022H118.884V18.642H127.675ZM165.365 40H156.928V8.022H145.423V0.646997H176.811V8.022H165.365V40ZM195.762 40.708C188.76 40.708 183.214 38.6233 179.124 34.454L183.667 28.082C187.049 31.622 191.219 33.392 196.175 33.392C198.338 33.392 200.01 32.979 201.19 32.153C202.409 31.2877 203.019 30.2453 203.019 29.026C203.019 27.964 202.448 27.079 201.308 26.371C200.206 25.663 198.81 25.1517 197.119 24.837C195.467 24.5223 193.657 24.07 191.691 23.48C189.724 22.89 187.895 22.2213 186.204 21.474C184.552 20.7267 183.155 19.5467 182.015 17.934C180.913 16.3213 180.363 14.3547 180.363 12.034C180.363 8.65133 181.72 5.81933 184.434 3.538C187.148 1.21733 190.766 0.0569973 195.29 0.0569973C201.544 0.0569973 206.657 1.886 210.63 5.544L205.969 11.68C202.861 8.80866 199.046 7.373 194.523 7.373C192.753 7.373 191.376 7.727 190.393 8.435C189.409 9.143 188.918 10.1067 188.918 11.326C188.918 12.27 189.468 13.0763 190.57 13.745C191.71 14.3743 193.107 14.8463 194.759 15.161C196.45 15.4757 198.259 15.9477 200.187 16.577C202.153 17.167 203.963 17.8553 205.615 18.642C207.306 19.3893 208.702 20.589 209.804 22.241C210.944 23.8537 211.515 25.8007 211.515 28.082C211.515 31.858 210.158 34.9063 207.444 37.227C204.769 39.5477 200.875 40.708 195.762 40.708Z" fill="#E7EBEB"></path> </svg> 