<?xml version="1.0" encoding="UTF-8"?> <svg xmlns="http://www.w3.org/2000/svg" width="1215" height="976" viewBox="0 0 1215 976" fill="none"> <path fill-rule="evenodd" clip-rule="evenodd" d="M633.587 0.208226C747.016 5.79261 808.947 126.266 903.962 186.089C1006.3 250.525 1180.45 249.624 1210.72 363.579C1241.48 479.393 1098.65 567.388 1032.07 668.336C984.84 739.946 947.141 814.661 878.263 867.623C806.522 922.786 725.258 969.012 633.587 974.736C538.109 980.699 429.724 967.151 364.673 899.697C301.692 834.39 363.791 718.864 314.256 643.61C233.683 521.204 -8.15309 490.642 0.211704 346.009C7.68242 216.835 225.299 222.324 342.315 158.437C441.72 104.166 519.421 -5.41248 633.587 0.208226Z" fill="url(#paint0_linear)"></path> <defs> <linearGradient id="paint0_linear" x1="1214.55" y1="250.667" x2="-12.0926" y2="788.843" gradientUnits="userSpaceOnUse"> <stop stop-color="#64C5E9"></stop> <stop offset="1" stop-color="#A9F0C5"></stop> </linearGradient> </defs> </svg> 