<?xml version="1.0" encoding="UTF-8"?> <svg xmlns="http://www.w3.org/2000/svg" width="75" height="62" viewBox="0 0 75 62" fill="none"> <path d="M0 30.5334C0 13.6703 13.6703 0 30.5334 0C47.3965 0 61.0668 13.6703 61.0668 30.5334C61.0668 47.3965 47.3965 61.0668 30.5334 61.0668C13.6703 61.0668 0 47.3965 0 30.5334Z" fill="white"></path> <path d="M49.896 52.8752L57.7155 43.9386L74.4716 61.067H33.5122L49.896 52.8752Z" fill="white"></path> <path d="M47.8634 23.008C45.1932 15.9857 38.2405 16.2258 34.0713 18.7249L30.8685 25.3038L36.7982 24.7635L30.6921 32.4328L35.7139 31.1797L32.5652 43.3548L31.5864 35.1184L24.5199 36.6005L29.9248 28.1817L25.2647 27.5179L28.4705 20.3119C24.6552 16.5877 14.7839 15.9006 12.856 24.8317C10.5599 35.4699 29.1491 42.075 32.4729 43.8968L32.4663 43.9382L32.5057 43.9132C32.5194 43.9213 32.5384 43.9306 32.5521 43.9382L32.5533 43.8829C37.578 40.717 51.2903 32.0173 47.8634 23.008Z" fill="#E1523E"></path> </svg> 