<?xml version="1.0" encoding="UTF-8"?> <svg xmlns="http://www.w3.org/2000/svg" width="2478" height="50" viewBox="0 0 2478 50" fill="none"> <g filter="url(#filter0_d)"> <rect x="1526" width="177" height="42" rx="21" fill="white"></rect> </g> <path d="M1546.51 27.968H1547.84V26H1555.79V27.968H1557.12V24.816H1556.14V15.328H1549.62L1548.96 20.688C1548.51 24.304 1547.79 24.848 1546.51 24.928V27.968ZM1550.27 20.784L1550.8 16.512H1554.82V24.816H1548.64C1549.42 24.224 1550 23.04 1550.27 20.784ZM1564.79 26V20.688C1564.79 18.816 1563.43 18.08 1561.8 18.08C1560.54 18.08 1559.55 18.496 1558.71 19.36L1559.27 20.192C1559.96 19.456 1560.71 19.12 1561.64 19.12C1562.76 19.12 1563.59 19.712 1563.59 20.752V22.144C1562.97 21.424 1562.09 21.088 1561.03 21.088C1559.72 21.088 1558.33 21.904 1558.33 23.632C1558.33 25.312 1559.72 26.192 1561.03 26.192C1562.07 26.192 1562.95 25.824 1563.59 25.12V26H1564.79ZM1561.47 25.328C1560.35 25.328 1559.56 24.624 1559.56 23.648C1559.56 22.656 1560.35 21.952 1561.47 21.952C1562.31 21.952 1563.13 22.272 1563.59 22.912V24.368C1563.13 25.008 1562.31 25.328 1561.47 25.328ZM1566.29 26.192C1567.78 26.192 1568.61 25.104 1568.96 22.224L1569.31 19.328H1572.43V26H1573.63V18.272H1568.26L1567.76 22.08C1567.46 24.368 1567.01 25.2 1566.29 25.2V26.192ZM1586.95 26L1583.51 21.776L1586.94 18.272H1585.42L1581.35 22.384V18.272H1580.15V26H1581.35V23.792L1582.63 22.528L1585.42 26H1586.95ZM1587.46 26.192C1588.95 26.192 1589.78 25.104 1590.13 22.224L1590.48 19.328H1593.6V26H1594.8V18.272H1589.43L1588.93 22.08C1588.63 24.368 1588.18 25.2 1587.46 25.2V26.192ZM1598.35 26L1602.43 19.984V26H1603.63V18.272H1602.45L1598.4 24.176V18.272H1597.2V26H1598.35ZM1609.52 26.192C1610.78 26.192 1611.82 25.776 1612.59 25.008L1612.01 24.224C1611.4 24.848 1610.51 25.2 1609.63 25.2C1607.96 25.2 1606.94 23.984 1606.84 22.528H1613.1V22.224C1613.1 19.904 1611.72 18.08 1609.39 18.08C1607.18 18.08 1605.58 19.888 1605.58 22.128C1605.58 24.544 1607.23 26.192 1609.52 26.192ZM1611.92 21.648H1606.84C1606.91 20.464 1607.72 19.072 1609.37 19.072C1611.13 19.072 1611.9 20.496 1611.92 21.648ZM1616.24 26V22.544H1620.28V26H1621.48V18.272H1620.28V21.488H1616.24V18.272H1615.04V26H1616.24ZM1626.48 26V19.328H1628.74V18.272H1623.04V19.328H1625.28V26H1626.48ZM1629.88 29.024C1630.1 29.088 1630.5 29.136 1630.76 29.136C1631.78 29.12 1632.57 28.688 1633.03 27.568L1636.9 18.272H1635.59L1633.03 24.608L1630.45 18.272H1629.16L1632.39 26.08L1631.88 27.248C1631.61 27.888 1631.25 28.064 1630.73 28.064C1630.53 28.064 1630.25 28.016 1630.07 27.936L1629.88 29.024ZM1645.69 26.192C1647.09 26.192 1647.93 25.616 1648.52 24.848L1647.72 24.112C1647.21 24.8 1646.55 25.12 1645.75 25.12C1644.1 25.12 1643.08 23.84 1643.08 22.128C1643.08 20.416 1644.1 19.152 1645.75 19.152C1646.55 19.152 1647.21 19.456 1647.72 20.16L1648.52 19.424C1647.93 18.656 1647.09 18.08 1645.69 18.08C1643.38 18.08 1641.83 19.84 1641.83 22.128C1641.83 24.432 1643.38 26.192 1645.69 26.192ZM1653.58 26.192C1655.93 26.192 1657.4 24.368 1657.4 22.128C1657.4 19.888 1655.93 18.08 1653.58 18.08C1651.22 18.08 1649.75 19.888 1649.75 22.128C1649.75 24.368 1651.22 26.192 1653.58 26.192ZM1653.58 25.12C1651.93 25.12 1651 23.712 1651 22.128C1651 20.56 1651.93 19.152 1653.58 19.152C1655.22 19.152 1656.14 20.56 1656.14 22.128C1656.14 23.712 1655.22 25.12 1653.58 25.12ZM1663.69 26C1665.12 26 1665.95 25.152 1665.95 23.904C1665.95 23.024 1665.32 22.208 1664.54 22.016C1665.2 21.808 1665.79 21.184 1665.79 20.256C1665.79 19.088 1664.97 18.272 1663.61 18.272H1659.36V26H1663.69ZM1663.45 24.944H1660.56V22.56H1663.45C1664.27 22.56 1664.7 23.136 1664.7 23.76C1664.7 24.496 1664.22 24.944 1663.45 24.944ZM1663.4 21.504H1660.56V19.328H1663.4C1664.14 19.328 1664.56 19.76 1664.56 20.432C1664.56 21.04 1664.16 21.504 1663.4 21.504ZM1671.7 26.192C1672.97 26.192 1674.01 25.776 1674.78 25.008L1674.2 24.224C1673.59 24.848 1672.7 25.2 1671.82 25.2C1670.15 25.2 1669.13 23.984 1669.03 22.528H1675.29V22.224C1675.29 19.904 1673.91 18.08 1671.58 18.08C1669.37 18.08 1667.77 19.888 1667.77 22.128C1667.77 24.544 1669.42 26.192 1671.7 26.192ZM1674.1 21.648H1669.03C1669.1 20.464 1669.91 19.072 1671.56 19.072C1673.32 19.072 1674.09 20.496 1674.1 21.648ZM1679.84 26V19.328H1682.1V18.272H1676.4V19.328H1678.64V26H1679.84Z" fill="#39C79A"></path> <g filter="url(#filter1_d)"> <rect x="229" width="195" height="42" rx="21" fill="white"></rect> </g> <path d="M259.144 26V15.328H250.248V26H251.576V16.512H257.816V26H259.144ZM265.399 26.192C267.431 26.192 268.839 24.624 268.839 22.128C268.839 19.616 267.431 18.08 265.399 18.08C264.311 18.08 263.351 18.64 262.791 19.424V18.272H261.591V28.944H262.791V24.832C263.415 25.696 264.343 26.192 265.399 26.192ZM265.095 25.12C264.151 25.12 263.207 24.544 262.791 23.872V20.384C263.207 19.712 264.151 19.152 265.095 19.152C266.647 19.152 267.575 20.416 267.575 22.128C267.575 23.84 266.647 25.12 265.095 25.12ZM274.123 26.192C276.475 26.192 277.947 24.368 277.947 22.128C277.947 19.888 276.475 18.08 274.123 18.08C271.771 18.08 270.299 19.888 270.299 22.128C270.299 24.368 271.771 26.192 274.123 26.192ZM274.123 25.12C272.475 25.12 271.547 23.712 271.547 22.128C271.547 20.56 272.475 19.152 274.123 19.152C275.771 19.152 276.683 20.56 276.683 22.128C276.683 23.712 275.771 25.12 274.123 25.12ZM281.055 26L282.943 23.008H285.055V26H286.255V18.272H282.175C280.607 18.272 279.727 19.328 279.727 20.64C279.727 21.936 280.559 22.816 281.711 22.96L279.647 26H281.055ZM282.303 21.952C281.423 21.952 280.959 21.408 280.959 20.64C280.959 19.872 281.455 19.328 282.303 19.328H285.055V21.952H282.303ZM292.989 26C294.413 26 295.245 25.152 295.245 23.904C295.245 23.024 294.621 22.208 293.837 22.016C294.493 21.808 295.085 21.184 295.085 20.256C295.085 19.088 294.269 18.272 292.909 18.272H288.653V26H292.989ZM292.749 24.944H289.853V22.56H292.749C293.565 22.56 293.997 23.136 293.997 23.76C293.997 24.496 293.517 24.944 292.749 24.944ZM292.701 21.504H289.853V19.328H292.701C293.437 19.328 293.853 19.76 293.853 20.432C293.853 21.04 293.453 21.504 292.701 21.504ZM298.664 26L302.745 19.984V26H303.945V18.272H302.761L298.713 24.176V18.272H297.513V26H298.664ZM305.429 26.192C306.917 26.192 307.749 25.104 308.101 22.224L308.453 19.328H311.573V26H312.773V18.272H307.397L306.901 22.08C306.597 24.368 306.149 25.2 305.429 25.2V26.192ZM320.446 26L324.526 19.984V26H325.726V18.272H324.542L320.494 24.176V18.272H319.294V26H320.446ZM329.322 26V22.544H333.354V26H334.554V18.272H333.354V21.488H329.322V18.272H328.122V26H329.322ZM338.102 26L342.182 19.984V26H343.382V18.272H342.198L338.15 24.176V18.272H336.95V26H338.102ZM351.906 27.968H353.106V24.944H352.21V18.272H351.01V24.944H346.978V18.272H345.778V26H351.906V27.968ZM355.899 26L359.979 19.984V26H361.179V18.272H359.995L355.947 24.176V18.272H354.747V26H355.899ZM369.607 26V20.688C369.607 18.816 368.247 18.08 366.615 18.08C365.351 18.08 364.359 18.496 363.527 19.36L364.087 20.192C364.775 19.456 365.527 19.12 366.455 19.12C367.575 19.12 368.407 19.712 368.407 20.752V22.144C367.783 21.424 366.903 21.088 365.847 21.088C364.535 21.088 363.143 21.904 363.143 23.632C363.143 25.312 364.535 26.192 365.847 26.192C366.887 26.192 367.767 25.824 368.407 25.12V26H369.607ZM366.279 25.328C365.159 25.328 364.375 24.624 364.375 23.648C364.375 22.656 365.159 21.952 366.279 21.952C367.127 21.952 367.943 22.272 368.407 22.912V24.368C367.943 25.008 367.127 25.328 366.279 25.328ZM374.621 26V19.328H376.877V18.272H371.181V19.328H373.421V26H374.621ZM379.602 26L383.682 19.984V26H384.882V18.272H383.698L379.65 24.176V18.272H378.45V26H379.602ZM391.614 26C393.038 26 393.87 25.152 393.87 23.904C393.87 23.024 393.246 22.208 392.462 22.016C393.118 21.808 393.71 21.184 393.71 20.256C393.71 19.088 392.894 18.272 391.534 18.272H387.278V26H391.614ZM391.374 24.944H388.478V22.56H391.374C392.19 22.56 392.622 23.136 392.622 23.76C392.622 24.496 392.142 24.944 391.374 24.944ZM391.326 21.504H388.478V19.328H391.326C392.062 19.328 392.478 19.76 392.478 20.432C392.478 21.04 392.078 21.504 391.326 21.504ZM395.706 29.024C395.93 29.088 396.33 29.136 396.586 29.136C397.61 29.12 398.394 28.688 398.858 27.568L402.73 18.272H401.418L398.858 24.608L396.282 18.272H394.986L398.218 26.08L397.706 27.248C397.434 27.888 397.082 28.064 396.554 28.064C396.362 28.064 396.074 28.016 395.898 27.936L395.706 29.024Z" fill="#39C79A"></path> <g filter="url(#filter2_d)"> <rect x="2223" width="247" height="42" rx="21" fill="white"></rect> </g> <path d="M2243.51 27.968H2244.84V26H2252.79V27.968H2254.12V24.816H2253.14V15.328H2246.62L2245.96 20.688C2245.51 24.304 2244.79 24.848 2243.51 24.928V27.968ZM2247.27 20.784L2247.8 16.512H2251.82V24.816H2245.64C2246.42 24.224 2247 23.04 2247.27 20.784ZM2259.14 26.192C2261.49 26.192 2262.96 24.368 2262.96 22.128C2262.96 19.888 2261.49 18.08 2259.14 18.08C2256.79 18.08 2255.31 19.888 2255.31 22.128C2255.31 24.368 2256.79 26.192 2259.14 26.192ZM2259.14 25.12C2257.49 25.12 2256.56 23.712 2256.56 22.128C2256.56 20.56 2257.49 19.152 2259.14 19.152C2260.79 19.152 2261.7 20.56 2261.7 22.128C2261.7 23.712 2260.79 25.12 2259.14 25.12ZM2264.89 26L2267.67 22.528L2268.21 23.072V26H2269.41V23.072L2269.96 22.528L2272.74 26H2274.28L2270.82 21.776L2274.26 18.272H2272.74L2269.41 21.664V18.272H2268.21V21.68L2264.89 18.272H2263.37L2266.79 21.776L2263.35 26H2264.89ZM2281.73 26V20.688C2281.73 18.816 2280.37 18.08 2278.74 18.08C2277.48 18.08 2276.48 18.496 2275.65 19.36L2276.21 20.192C2276.9 19.456 2277.65 19.12 2278.58 19.12C2279.7 19.12 2280.53 19.712 2280.53 20.752V22.144C2279.91 21.424 2279.03 21.088 2277.97 21.088C2276.66 21.088 2275.27 21.904 2275.27 23.632C2275.27 25.312 2276.66 26.192 2277.97 26.192C2279.01 26.192 2279.89 25.824 2280.53 25.12V26H2281.73ZM2278.4 25.328C2277.28 25.328 2276.5 24.624 2276.5 23.648C2276.5 22.656 2277.28 21.952 2278.4 21.952C2279.25 21.952 2280.07 22.272 2280.53 22.912V24.368C2280.07 25.008 2279.25 25.328 2278.4 25.328ZM2283.23 26.192C2284.71 26.192 2285.55 25.104 2285.9 22.224L2286.25 19.328H2289.37V26H2290.57V18.272H2285.19L2284.7 22.08C2284.39 24.368 2283.95 25.2 2283.23 25.2V26.192ZM2299 26V20.688C2299 18.816 2297.64 18.08 2296.01 18.08C2294.74 18.08 2293.75 18.496 2292.92 19.36L2293.48 20.192C2294.17 19.456 2294.92 19.12 2295.85 19.12C2296.97 19.12 2297.8 19.712 2297.8 20.752V22.144C2297.17 21.424 2296.29 21.088 2295.24 21.088C2293.93 21.088 2292.53 21.904 2292.53 23.632C2292.53 25.312 2293.93 26.192 2295.24 26.192C2296.28 26.192 2297.16 25.824 2297.8 25.12V26H2299ZM2295.67 25.328C2294.55 25.328 2293.77 24.624 2293.77 23.648C2293.77 22.656 2294.55 21.952 2295.67 21.952C2296.52 21.952 2297.33 22.272 2297.8 22.912V24.368C2297.33 25.008 2296.52 25.328 2295.67 25.328ZM2312.33 26L2308.89 21.776L2312.31 18.272H2310.79L2306.73 22.384V18.272H2305.53V26H2306.73V23.792L2308.01 22.528L2310.79 26H2312.33ZM2312.83 26.192C2314.32 26.192 2315.15 25.104 2315.51 22.224L2315.86 19.328H2318.98V26H2320.18V18.272H2314.8L2314.31 22.08C2314 24.368 2313.55 25.2 2312.83 25.2V26.192ZM2323.73 26L2327.81 19.984V26H2329.01V18.272H2327.82L2323.78 24.176V18.272H2322.58V26H2323.73ZM2334.89 26.192C2336.16 26.192 2337.2 25.776 2337.96 25.008L2337.39 24.224C2336.78 24.848 2335.88 25.2 2335 25.2C2333.34 25.2 2332.32 23.984 2332.22 22.528H2338.48V22.224C2338.48 19.904 2337.1 18.08 2334.76 18.08C2332.56 18.08 2330.96 19.888 2330.96 22.128C2330.96 24.544 2332.6 26.192 2334.89 26.192ZM2337.29 21.648H2332.22C2332.28 20.464 2333.1 19.072 2334.75 19.072C2336.51 19.072 2337.28 20.496 2337.29 21.648ZM2341.62 26V22.544H2345.65V26H2346.85V18.272H2345.65V21.488H2341.62V18.272H2340.42V26H2341.62ZM2351.85 26V19.328H2354.11V18.272H2348.41V19.328H2350.65V26H2351.85ZM2361.72 26V20.688C2361.72 18.816 2360.36 18.08 2358.72 18.08C2357.46 18.08 2356.47 18.496 2355.64 19.36L2356.2 20.192C2356.88 19.456 2357.64 19.12 2358.56 19.12C2359.68 19.12 2360.52 19.712 2360.52 20.752V22.144C2359.89 21.424 2359.01 21.088 2357.96 21.088C2356.64 21.088 2355.25 21.904 2355.25 23.632C2355.25 25.312 2356.64 26.192 2357.96 26.192C2359 26.192 2359.88 25.824 2360.52 25.12V26H2361.72ZM2358.39 25.328C2357.27 25.328 2356.48 24.624 2356.48 23.648C2356.48 22.656 2357.27 21.952 2358.39 21.952C2359.24 21.952 2360.05 22.272 2360.52 22.912V24.368C2360.05 25.008 2359.24 25.328 2358.39 25.328ZM2374.68 26V18.272H2368.25V26H2369.45V19.328H2373.48V26H2374.68ZM2380.45 26.192C2382.8 26.192 2384.28 24.368 2384.28 22.128C2384.28 19.888 2382.8 18.08 2380.45 18.08C2378.1 18.08 2376.63 19.888 2376.63 22.128C2376.63 24.368 2378.1 26.192 2380.45 26.192ZM2380.45 25.12C2378.8 25.12 2377.88 23.712 2377.88 22.128C2377.88 20.56 2378.8 19.152 2380.45 19.152C2382.1 19.152 2383.01 20.56 2383.01 22.128C2383.01 23.712 2382.1 25.12 2380.45 25.12ZM2393.76 26.192C2395.17 26.192 2396 25.616 2396.6 24.848L2395.8 24.112C2395.28 24.8 2394.63 25.12 2393.83 25.12C2392.18 25.12 2391.16 23.84 2391.16 22.128C2391.16 20.416 2392.18 19.152 2393.83 19.152C2394.63 19.152 2395.28 19.456 2395.8 20.16L2396.6 19.424C2396 18.656 2395.17 18.08 2393.76 18.08C2391.46 18.08 2389.91 19.84 2389.91 22.128C2389.91 24.432 2391.46 26.192 2393.76 26.192ZM2405.08 26L2401.64 21.776L2405.06 18.272H2403.54L2399.48 22.384V18.272H2398.28V26H2399.48V23.792L2400.76 22.528L2403.54 26H2405.08ZM2410.3 26.192C2412.34 26.192 2413.74 24.624 2413.74 22.128C2413.74 19.616 2412.34 18.08 2410.3 18.08C2409.22 18.08 2408.26 18.64 2407.7 19.424V18.272H2406.5V28.944H2407.7V24.832C2408.32 25.696 2409.25 26.192 2410.3 26.192ZM2410 25.12C2409.06 25.12 2408.11 24.544 2407.7 23.872V20.384C2408.11 19.712 2409.06 19.152 2410 19.152C2411.55 19.152 2412.48 20.416 2412.48 22.128C2412.48 23.84 2411.55 25.12 2410 25.12ZM2416.81 26L2420.89 19.984V26H2422.09V18.272H2420.9L2416.85 24.176V18.272H2415.65V26H2416.81ZM2430.91 26V18.272H2424.48V26H2425.68V19.328H2429.71V26H2430.91ZM2435.92 26V19.328H2438.17V18.272H2432.48V19.328H2434.72V26H2435.92ZM2439.31 29.024C2439.54 29.088 2439.94 29.136 2440.19 29.136C2441.22 29.12 2442 28.688 2442.47 27.568L2446.34 18.272H2445.03L2442.47 24.608L2439.89 18.272H2438.59L2441.83 26.08L2441.31 27.248C2441.04 27.888 2440.69 28.064 2440.16 28.064C2439.97 28.064 2439.68 28.016 2439.51 27.936L2439.31 29.024Z" fill="#39C79A"></path> <g filter="url(#filter3_d)"> <rect x="983" width="247" height="42" rx="21" fill="white"></rect> </g> <path d="M1013.14 26V15.328H1004.25V26H1005.58V16.512H1011.82V26H1013.14ZM1019.4 26.192C1021.43 26.192 1022.84 24.624 1022.84 22.128C1022.84 19.616 1021.43 18.08 1019.4 18.08C1018.31 18.08 1017.35 18.64 1016.79 19.424V18.272H1015.59V28.944H1016.79V24.832C1017.41 25.696 1018.34 26.192 1019.4 26.192ZM1019.09 25.12C1018.15 25.12 1017.21 24.544 1016.79 23.872V20.384C1017.21 19.712 1018.15 19.152 1019.09 19.152C1020.65 19.152 1021.57 20.416 1021.57 22.128C1021.57 23.84 1020.65 25.12 1019.09 25.12ZM1028.12 26.192C1030.47 26.192 1031.95 24.368 1031.95 22.128C1031.95 19.888 1030.47 18.08 1028.12 18.08C1025.77 18.08 1024.3 19.888 1024.3 22.128C1024.3 24.368 1025.77 26.192 1028.12 26.192ZM1028.12 25.12C1026.47 25.12 1025.55 23.712 1025.55 22.128C1025.55 20.56 1026.47 19.152 1028.12 19.152C1029.77 19.152 1030.68 20.56 1030.68 22.128C1030.68 23.712 1029.77 25.12 1028.12 25.12ZM1039.31 18.272H1033.9V26H1035.1V19.328H1039.31V18.272ZM1044.25 26.192C1046.6 26.192 1048.07 24.368 1048.07 22.128C1048.07 19.888 1046.6 18.08 1044.25 18.08C1041.9 18.08 1040.42 19.888 1040.42 22.128C1040.42 24.368 1041.9 26.192 1044.25 26.192ZM1044.25 25.12C1042.6 25.12 1041.67 23.712 1041.67 22.128C1041.67 20.56 1042.6 19.152 1044.25 19.152C1045.9 19.152 1046.81 20.56 1046.81 22.128C1046.81 23.712 1045.9 25.12 1044.25 25.12ZM1054.36 26C1055.79 26 1056.62 25.152 1056.62 23.904C1056.62 23.024 1056 22.208 1055.21 22.016C1055.87 21.808 1056.46 21.184 1056.46 20.256C1056.46 19.088 1055.64 18.272 1054.28 18.272H1050.03V26H1054.36ZM1054.12 24.944H1051.23V22.56H1054.12C1054.94 22.56 1055.37 23.136 1055.37 23.76C1055.37 24.496 1054.89 24.944 1054.12 24.944ZM1054.08 21.504H1051.23V19.328H1054.08C1054.81 19.328 1055.23 19.76 1055.23 20.432C1055.23 21.04 1054.83 21.504 1054.08 21.504ZM1062.26 26.192C1064.62 26.192 1066.09 24.368 1066.09 22.128C1066.09 19.888 1064.62 18.08 1062.26 18.08C1059.91 18.08 1058.44 19.888 1058.44 22.128C1058.44 24.368 1059.91 26.192 1062.26 26.192ZM1062.26 25.12C1060.62 25.12 1059.69 23.712 1059.69 22.128C1059.69 20.56 1060.62 19.152 1062.26 19.152C1063.91 19.152 1064.82 20.56 1064.82 22.128C1064.82 23.712 1063.91 25.12 1062.26 25.12ZM1071.85 26.192C1073.88 26.192 1075.29 24.624 1075.29 22.128C1075.29 19.616 1073.88 18.08 1071.85 18.08C1070.76 18.08 1069.8 18.64 1069.24 19.424V18.272H1068.04V28.944H1069.24V24.832C1069.87 25.696 1070.8 26.192 1071.85 26.192ZM1071.55 25.12C1070.6 25.12 1069.66 24.544 1069.24 23.872V20.384C1069.66 19.712 1070.6 19.152 1071.55 19.152C1073.1 19.152 1074.03 20.416 1074.03 22.128C1074.03 23.84 1073.1 25.12 1071.55 25.12ZM1078.35 26L1082.43 19.984V26H1083.63V18.272H1082.45L1078.4 24.176V18.272H1077.2V26H1078.35ZM1085.12 26.192C1086.6 26.192 1087.44 25.104 1087.79 22.224L1088.14 19.328H1091.26V26H1092.46V18.272H1087.08L1086.59 22.08C1086.28 24.368 1085.84 25.2 1085.12 25.2V26.192ZM1105.41 26V18.272H1098.98V26H1100.18V19.328H1104.21V26H1105.41ZM1111.62 26.192C1113.65 26.192 1115.06 24.624 1115.06 22.128C1115.06 19.616 1113.65 18.08 1111.62 18.08C1110.53 18.08 1109.57 18.64 1109.01 19.424V18.272H1107.81V28.944H1109.01V24.832C1109.63 25.696 1110.56 26.192 1111.62 26.192ZM1111.31 25.12C1110.37 25.12 1109.43 24.544 1109.01 23.872V20.384C1109.43 19.712 1110.37 19.152 1111.31 19.152C1112.87 19.152 1113.79 20.416 1113.79 22.128C1113.79 23.84 1112.87 25.12 1111.31 25.12ZM1120.45 26.192C1121.72 26.192 1122.76 25.776 1123.53 25.008L1122.95 24.224C1122.34 24.848 1121.45 25.2 1120.57 25.2C1118.9 25.2 1117.88 23.984 1117.78 22.528H1124.04V22.224C1124.04 19.904 1122.66 18.08 1120.33 18.08C1118.12 18.08 1116.52 19.888 1116.52 22.128C1116.52 24.544 1118.17 26.192 1120.45 26.192ZM1122.85 21.648H1117.78C1117.85 20.464 1118.66 19.072 1120.31 19.072C1122.07 19.072 1122.84 20.496 1122.85 21.648ZM1127.13 26L1131.21 19.984V26H1132.41V18.272H1131.23L1127.18 24.176V18.272H1125.98V26H1127.13ZM1142.7 26V18.272H1141.1L1138.76 24L1136.39 18.272H1134.81V26H1136.01V19.936L1138.54 26H1138.99L1141.5 19.936V26H1142.7ZM1144.66 29.024C1144.88 29.088 1145.28 29.136 1145.54 29.136C1146.56 29.12 1147.35 28.688 1147.81 27.568L1151.68 18.272H1150.37L1147.81 24.608L1145.23 18.272H1143.94L1147.17 26.08L1146.66 27.248C1146.39 27.888 1146.03 28.064 1145.51 28.064C1145.31 28.064 1145.03 28.016 1144.85 27.936L1144.66 29.024ZM1161.86 18.272V24.944H1158.6V18.272H1157.4V24.944H1154.13V18.272H1152.93V26H1162.85V27.968H1164.05V24.944H1163.06V18.272H1161.86ZM1169.19 26.192C1170.45 26.192 1171.49 25.776 1172.26 25.008L1171.68 24.224C1171.08 24.848 1170.18 25.2 1169.3 25.2C1167.64 25.2 1166.61 23.984 1166.52 22.528H1172.77V22.224C1172.77 19.904 1171.4 18.08 1169.06 18.08C1166.85 18.08 1165.25 19.888 1165.25 22.128C1165.25 24.544 1166.9 26.192 1169.19 26.192ZM1171.59 21.648H1166.52C1166.58 20.464 1167.4 19.072 1169.04 19.072C1170.8 19.072 1171.57 20.496 1171.59 21.648ZM1178.12 26.192C1179.53 26.192 1180.36 25.616 1180.96 24.848L1180.16 24.112C1179.64 24.8 1178.99 25.12 1178.19 25.12C1176.54 25.12 1175.52 23.84 1175.52 22.128C1175.52 20.416 1176.54 19.152 1178.19 19.152C1178.99 19.152 1179.64 19.456 1180.16 20.16L1180.96 19.424C1180.36 18.656 1179.53 18.08 1178.12 18.08C1175.82 18.08 1174.27 19.84 1174.27 22.128C1174.27 24.432 1175.82 26.192 1178.12 26.192ZM1185.25 26V19.328H1187.5V18.272H1181.81V19.328H1184.05V26H1185.25ZM1193.41 26C1194.84 26 1195.67 25.152 1195.67 23.904C1195.67 23.024 1195.04 22.208 1194.26 22.016C1194.92 21.808 1195.51 21.184 1195.51 20.256C1195.51 19.088 1194.69 18.272 1193.33 18.272H1189.08V26H1193.41ZM1193.17 24.944H1190.28V22.56H1193.17C1193.99 22.56 1194.42 23.136 1194.42 23.76C1194.42 24.496 1193.94 24.944 1193.17 24.944ZM1193.12 21.504H1190.28V19.328H1193.12C1193.86 19.328 1194.28 19.76 1194.28 20.432C1194.28 21.04 1193.88 21.504 1193.12 21.504ZM1203.97 26V20.688C1203.97 18.816 1202.61 18.08 1200.97 18.08C1199.71 18.08 1198.72 18.496 1197.89 19.36L1198.45 20.192C1199.13 19.456 1199.89 19.12 1200.81 19.12C1201.93 19.12 1202.77 19.712 1202.77 20.752V22.144C1202.14 21.424 1201.26 21.088 1200.21 21.088C1198.89 21.088 1197.5 21.904 1197.5 23.632C1197.5 25.312 1198.89 26.192 1200.21 26.192C1201.25 26.192 1202.13 25.824 1202.77 25.12V26H1203.97ZM1200.64 25.328C1199.52 25.328 1198.73 24.624 1198.73 23.648C1198.73 22.656 1199.52 21.952 1200.64 21.952C1201.49 21.952 1202.3 22.272 1202.77 22.912V24.368C1202.3 25.008 1201.49 25.328 1200.64 25.328Z" fill="#39C79A"></path> <g filter="url(#filter4_d)"> <rect x="1733" width="179" height="42" rx="21" fill="white"></rect> </g> <path d="M1763.14 26H1761.82V21.104H1755.58V26H1754.25V15.328H1755.58V19.92H1761.82V15.328H1763.14V26ZM1769.08 26.192C1767.93 26.192 1766.98 25.8187 1766.25 25.072C1765.51 24.3147 1765.14 23.3333 1765.14 22.128C1765.14 20.9973 1765.51 20.0427 1766.23 19.264C1766.96 18.4747 1767.86 18.08 1768.95 18.08C1770.09 18.08 1770.99 18.4747 1771.65 19.264C1772.33 20.0427 1772.66 21.0293 1772.66 22.224V22.528H1766.41C1766.46 23.2853 1766.74 23.92 1767.24 24.432C1767.74 24.944 1768.39 25.2 1769.19 25.2C1770.15 25.2 1770.95 24.8747 1771.57 24.224L1772.15 25.008C1771.36 25.7973 1770.34 26.192 1769.08 26.192ZM1771.48 21.648C1771.47 20.9867 1771.24 20.3947 1770.81 19.872C1770.37 19.3387 1769.75 19.072 1768.93 19.072C1768.17 19.072 1767.56 19.3333 1767.11 19.856C1766.67 20.3787 1766.44 20.976 1766.41 21.648H1771.48ZM1785.16 26H1783.96V19.328H1779.93V26H1778.73V18.272H1785.16V26ZM1791.37 26.192C1790.28 26.192 1789.41 25.7387 1788.76 24.832V28.944H1787.56V18.272H1788.76V19.424C1789.05 19.0187 1789.42 18.6933 1789.88 18.448C1790.34 18.2027 1790.83 18.08 1791.37 18.08C1792.39 18.08 1793.22 18.448 1793.85 19.184C1794.49 19.9093 1794.81 20.8907 1794.81 22.128C1794.81 23.3653 1794.49 24.352 1793.85 25.088C1793.22 25.824 1792.39 26.192 1791.37 26.192ZM1791.06 25.12C1791.82 25.12 1792.42 24.8427 1792.87 24.288C1793.32 23.7227 1793.54 23.0027 1793.54 22.128C1793.54 21.2533 1793.32 20.5387 1792.87 19.984C1792.42 19.4293 1791.82 19.152 1791.06 19.152C1790.6 19.152 1790.16 19.2747 1789.72 19.52C1789.29 19.7547 1788.97 20.0427 1788.76 20.384V23.872C1788.97 24.224 1789.29 24.5227 1789.72 24.768C1790.16 25.0027 1790.6 25.12 1791.06 25.12ZM1800.2 26.192C1799.05 26.192 1798.11 25.8187 1797.37 25.072C1796.64 24.3147 1796.27 23.3333 1796.27 22.128C1796.27 20.9973 1796.63 20.0427 1797.36 19.264C1798.08 18.4747 1798.99 18.08 1800.08 18.08C1801.22 18.08 1802.12 18.4747 1802.78 19.264C1803.45 20.0427 1803.79 21.0293 1803.79 22.224V22.528H1797.53C1797.58 23.2853 1797.86 23.92 1798.36 24.432C1798.86 24.944 1799.52 25.2 1800.32 25.2C1801.28 25.2 1802.07 24.8747 1802.7 24.224L1803.28 25.008C1802.49 25.7973 1801.46 26.192 1800.2 26.192ZM1802.6 21.648C1802.59 20.9867 1802.37 20.3947 1801.93 19.872C1801.49 19.3387 1800.87 19.072 1800.06 19.072C1799.29 19.072 1798.68 19.3333 1798.24 19.856C1797.8 20.3787 1797.56 20.976 1797.53 21.648H1802.6ZM1804.82 27.968V25.008C1805.21 24.9333 1805.52 24.6987 1805.75 24.304C1805.97 23.8987 1806.15 23.1573 1806.29 22.08L1806.79 18.272H1812.16V24.944H1813.06V27.968H1811.86V26H1806.02V27.968H1804.82ZM1807.84 19.328L1807.49 22.224C1807.31 23.5787 1806.94 24.4853 1806.37 24.944H1810.96V19.328H1807.84ZM1818.11 26.192C1816.97 26.192 1816.04 25.808 1815.32 25.04C1814.61 24.2613 1814.25 23.2907 1814.25 22.128C1814.25 20.9653 1814.61 20 1815.32 19.232C1816.04 18.464 1816.97 18.08 1818.11 18.08C1819.3 18.08 1820.25 18.528 1820.94 19.424L1820.14 20.16C1819.65 19.488 1818.99 19.152 1818.17 19.152C1817.36 19.152 1816.71 19.4293 1816.22 19.984C1815.74 20.5387 1815.5 21.2533 1815.5 22.128C1815.5 23.0027 1815.74 23.7227 1816.22 24.288C1816.71 24.8427 1817.36 25.12 1818.17 25.12C1818.98 25.12 1819.64 24.784 1820.14 24.112L1820.94 24.848C1820.25 25.744 1819.3 26.192 1818.11 26.192ZM1825.23 26H1824.03V19.328H1821.79V18.272H1827.49V19.328H1825.23V26ZM1835.09 26H1833.89V25.12C1833.24 25.8347 1832.39 26.192 1831.33 26.192C1830.62 26.192 1829.99 25.9627 1829.44 25.504C1828.9 25.0453 1828.63 24.4213 1828.63 23.632C1828.63 22.8213 1828.89 22.1973 1829.43 21.76C1829.97 21.312 1830.61 21.088 1831.33 21.088C1832.43 21.088 1833.28 21.44 1833.89 22.144V20.752C1833.89 20.24 1833.71 19.84 1833.35 19.552C1832.98 19.264 1832.52 19.12 1831.94 19.12C1831.03 19.12 1830.24 19.4773 1829.57 20.192L1829.01 19.36C1829.83 18.5067 1830.86 18.08 1832.1 18.08C1832.98 18.08 1833.7 18.2933 1834.26 18.72C1834.81 19.1467 1835.09 19.8027 1835.09 20.688V26ZM1831.76 25.328C1832.72 25.328 1833.43 25.008 1833.89 24.368V22.912C1833.43 22.272 1832.72 21.952 1831.76 21.952C1831.21 21.952 1830.75 22.112 1830.39 22.432C1830.04 22.7413 1829.86 23.1467 1829.86 23.648C1829.86 24.1387 1830.04 24.544 1830.39 24.864C1830.75 25.1733 1831.21 25.328 1831.76 25.328ZM1841.83 26H1837.5V18.272H1841.75C1842.42 18.272 1842.95 18.4533 1843.34 18.816C1843.73 19.1787 1843.93 19.6587 1843.93 20.256C1843.93 20.6933 1843.81 21.072 1843.56 21.392C1843.33 21.7013 1843.03 21.9093 1842.68 22.016C1843.08 22.112 1843.41 22.3413 1843.67 22.704C1843.95 23.0667 1844.09 23.4667 1844.09 23.904C1844.09 24.5333 1843.89 25.04 1843.48 25.424C1843.09 25.808 1842.54 26 1841.83 26ZM1841.59 24.944C1841.98 24.944 1842.28 24.8373 1842.5 24.624C1842.73 24.4107 1842.84 24.1227 1842.84 23.76C1842.84 23.4293 1842.73 23.1467 1842.5 22.912C1842.28 22.6773 1841.98 22.56 1841.59 22.56H1838.7V24.944H1841.59ZM1841.54 21.504C1841.91 21.504 1842.19 21.408 1842.39 21.216C1842.6 21.0133 1842.7 20.752 1842.7 20.432C1842.7 20.0907 1842.6 19.824 1842.39 19.632C1842.19 19.4293 1841.91 19.328 1841.54 19.328H1838.7V21.504H1841.54ZM1847.51 26H1846.36V18.272H1847.56V24.176L1851.6 18.272H1852.79V26H1851.59V19.984L1847.51 26ZM1854.27 26.192V25.2C1854.64 25.2 1854.93 24.96 1855.17 24.48C1855.4 24 1855.6 23.2 1855.74 22.08L1856.24 18.272H1861.62V26H1860.42V19.328H1857.3L1856.94 22.224C1856.77 23.6427 1856.48 24.6613 1856.05 25.28C1855.62 25.888 1855.03 26.192 1854.27 26.192ZM1870.04 26H1868.84V25.12C1868.19 25.8347 1867.34 26.192 1866.28 26.192C1865.57 26.192 1864.94 25.9627 1864.4 25.504C1863.85 25.0453 1863.58 24.4213 1863.58 23.632C1863.58 22.8213 1863.85 22.1973 1864.38 21.76C1864.92 21.312 1865.56 21.088 1866.28 21.088C1867.38 21.088 1868.24 21.44 1868.84 22.144V20.752C1868.84 20.24 1868.66 19.84 1868.3 19.552C1867.94 19.264 1867.47 19.12 1866.89 19.12C1865.99 19.12 1865.2 19.4773 1864.52 20.192L1863.96 19.36C1864.79 18.5067 1865.82 18.08 1867.05 18.08C1867.94 18.08 1868.66 18.2933 1869.21 18.72C1869.77 19.1467 1870.04 19.8027 1870.04 20.688V26ZM1866.72 25.328C1867.68 25.328 1868.39 25.008 1868.84 24.368V22.912C1868.39 22.272 1867.68 21.952 1866.72 21.952C1866.16 21.952 1865.7 22.112 1865.34 22.432C1864.99 22.7413 1864.81 23.1467 1864.81 23.648C1864.81 24.1387 1864.99 24.544 1865.34 24.864C1865.7 25.1733 1866.16 25.328 1866.72 25.328ZM1875.86 26.192C1874.72 26.192 1873.79 25.808 1873.07 25.04C1872.36 24.2613 1872 23.2907 1872 22.128C1872 20.9653 1872.36 20 1873.07 19.232C1873.79 18.464 1874.72 18.08 1875.86 18.08C1877.05 18.08 1878 18.528 1878.69 19.424L1877.89 20.16C1877.4 19.488 1876.74 19.152 1875.92 19.152C1875.11 19.152 1874.46 19.4293 1873.97 19.984C1873.49 20.5387 1873.25 21.2533 1873.25 22.128C1873.25 23.0027 1873.49 23.7227 1873.97 24.288C1874.46 24.8427 1875.11 25.12 1875.92 25.12C1876.73 25.12 1877.39 24.784 1877.89 24.112L1878.69 24.848C1878 25.744 1877.05 26.192 1875.86 26.192ZM1880.37 18.272H1881.57V21.264H1884.47C1885.24 21.264 1885.83 21.4933 1886.26 21.952C1886.69 22.4 1886.9 22.96 1886.9 23.632C1886.9 24.304 1886.68 24.8693 1886.24 25.328C1885.82 25.776 1885.23 26 1884.47 26H1880.37V18.272ZM1884.34 22.32H1881.57V24.944H1884.34C1884.77 24.944 1885.09 24.8267 1885.32 24.592C1885.55 24.3467 1885.67 24.0267 1885.67 23.632C1885.67 23.2373 1885.55 22.9227 1885.32 22.688C1885.09 22.4427 1884.77 22.32 1884.34 22.32Z" fill="#E1523E"></path> <g filter="url(#filter5_d)"> <rect x="1260" width="236" height="42" rx="21" fill="white"></rect> </g> <path d="M1282.58 26H1281.25V15.328H1285.54C1286.57 15.328 1287.39 15.6373 1287.98 16.256C1288.58 16.8747 1288.88 17.6373 1288.88 18.544C1288.88 19.4507 1288.58 20.2133 1287.97 20.832C1287.37 21.4507 1286.56 21.76 1285.54 21.76H1282.58V26ZM1285.38 20.576C1286.01 20.576 1286.52 20.3893 1286.91 20.016C1287.31 19.632 1287.5 19.1413 1287.5 18.544C1287.5 17.9467 1287.31 17.4613 1286.91 17.088C1286.52 16.704 1286.01 16.512 1285.38 16.512H1282.58V20.576H1285.38ZM1296.31 26H1295.11V25.12C1294.46 25.8347 1293.61 26.192 1292.55 26.192C1291.84 26.192 1291.21 25.9627 1290.66 25.504C1290.12 25.0453 1289.85 24.4213 1289.85 23.632C1289.85 22.8213 1290.11 22.1973 1290.65 21.76C1291.19 21.312 1291.82 21.088 1292.55 21.088C1293.65 21.088 1294.5 21.44 1295.11 22.144V20.752C1295.11 20.24 1294.93 19.84 1294.57 19.552C1294.2 19.264 1293.73 19.12 1293.16 19.12C1292.25 19.12 1291.46 19.4773 1290.79 20.192L1290.23 19.36C1291.05 18.5067 1292.08 18.08 1293.32 18.08C1294.2 18.08 1294.92 18.2933 1295.48 18.72C1296.03 19.1467 1296.31 19.8027 1296.31 20.688V26ZM1292.98 25.328C1293.94 25.328 1294.65 25.008 1295.11 24.368V22.912C1294.65 22.272 1293.94 21.952 1292.98 21.952C1292.43 21.952 1291.97 22.112 1291.61 22.432C1291.25 22.7413 1291.08 23.1467 1291.08 23.648C1291.08 24.1387 1291.25 24.544 1291.61 24.864C1291.97 25.1733 1292.43 25.328 1292.98 25.328ZM1301.45 26.192C1299.97 26.192 1298.81 25.7707 1297.96 24.928L1298.56 24.16C1299.28 24.8533 1300.25 25.2 1301.45 25.2C1302.14 25.2 1302.69 25.0773 1303.1 24.832C1303.52 24.5867 1303.72 24.2613 1303.72 23.856C1303.72 23.0027 1302.91 22.576 1301.29 22.576H1299.56V21.6H1301.29C1301.96 21.6 1302.51 21.4933 1302.94 21.28C1303.37 21.056 1303.58 20.7307 1303.58 20.304C1303.58 19.9413 1303.37 19.648 1302.94 19.424C1302.51 19.1893 1301.97 19.072 1301.32 19.072C1300.25 19.072 1299.38 19.4027 1298.73 20.064L1298.11 19.328C1298.91 18.5067 1299.96 18.096 1301.28 18.096C1302.33 18.0853 1303.18 18.2667 1303.84 18.64C1304.5 19.0027 1304.83 19.5093 1304.83 20.16C1304.83 20.6933 1304.61 21.1253 1304.17 21.456C1303.74 21.7867 1303.27 21.984 1302.75 22.048C1303.29 22.0907 1303.8 22.272 1304.27 22.592C1304.75 22.912 1304.99 23.36 1304.99 23.936C1304.99 24.5973 1304.67 25.1413 1304.03 25.568C1303.4 25.984 1302.54 26.192 1301.45 26.192ZM1312.34 18.272V19.328H1308.13V26H1306.93V18.272H1312.34ZM1320.05 25.024C1319.35 25.8027 1318.43 26.192 1317.28 26.192C1316.13 26.192 1315.2 25.8027 1314.5 25.024C1313.8 24.2453 1313.46 23.28 1313.46 22.128C1313.46 20.976 1313.8 20.016 1314.5 19.248C1315.2 18.4693 1316.13 18.08 1317.28 18.08C1318.43 18.08 1319.35 18.4693 1320.05 19.248C1320.75 20.016 1321.1 20.976 1321.1 22.128C1321.1 23.28 1320.75 24.2453 1320.05 25.024ZM1315.39 24.256C1315.86 24.832 1316.49 25.12 1317.28 25.12C1318.07 25.12 1318.69 24.832 1319.15 24.256C1319.61 23.6693 1319.84 22.96 1319.84 22.128C1319.84 21.296 1319.61 20.592 1319.15 20.016C1318.69 19.44 1318.07 19.152 1317.28 19.152C1316.49 19.152 1315.86 19.4453 1315.39 20.032C1314.93 20.608 1314.7 21.3067 1314.7 22.128C1314.7 22.96 1314.93 23.6693 1315.39 24.256ZM1327.4 26H1323.06V18.272H1327.32C1327.99 18.272 1328.52 18.4533 1328.9 18.816C1329.29 19.1787 1329.49 19.6587 1329.49 20.256C1329.49 20.6933 1329.37 21.072 1329.12 21.392C1328.89 21.7013 1328.6 21.9093 1328.24 22.016C1328.64 22.112 1328.97 22.3413 1329.24 22.704C1329.51 23.0667 1329.65 23.4667 1329.65 23.904C1329.65 24.5333 1329.45 25.04 1329.04 25.424C1328.65 25.808 1328.1 26 1327.4 26ZM1327.16 24.944C1327.54 24.944 1327.84 24.8373 1328.07 24.624C1328.29 24.4107 1328.4 24.1227 1328.4 23.76C1328.4 23.4293 1328.29 23.1467 1328.07 22.912C1327.84 22.6773 1327.54 22.56 1327.16 22.56H1324.26V24.944H1327.16ZM1327.11 21.504C1327.47 21.504 1327.75 21.408 1327.96 21.216C1328.16 21.0133 1328.26 20.752 1328.26 20.432C1328.26 20.0907 1328.16 19.824 1327.96 19.632C1327.75 19.4293 1327.47 19.328 1327.11 19.328H1324.26V21.504H1327.11ZM1337.95 26H1336.75V25.12C1336.1 25.8347 1335.25 26.192 1334.19 26.192C1333.48 26.192 1332.85 25.9627 1332.3 25.504C1331.76 25.0453 1331.49 24.4213 1331.49 23.632C1331.49 22.8213 1331.75 22.1973 1332.29 21.76C1332.83 21.312 1333.47 21.088 1334.19 21.088C1335.29 21.088 1336.14 21.44 1336.75 22.144V20.752C1336.75 20.24 1336.57 19.84 1336.21 19.552C1335.84 19.264 1335.37 19.12 1334.8 19.12C1333.89 19.12 1333.1 19.4773 1332.43 20.192L1331.87 19.36C1332.69 18.5067 1333.72 18.08 1334.96 18.08C1335.84 18.08 1336.56 18.2933 1337.12 18.72C1337.67 19.1467 1337.95 19.8027 1337.95 20.688V26ZM1334.62 25.328C1335.58 25.328 1336.29 25.008 1336.75 24.368V22.912C1336.29 22.272 1335.58 21.952 1334.62 21.952C1334.07 21.952 1333.61 22.112 1333.25 22.432C1332.89 22.7413 1332.72 23.1467 1332.72 23.648C1332.72 24.1387 1332.89 24.544 1333.25 24.864C1333.61 25.1733 1334.07 25.328 1334.62 25.328ZM1344.16 26.192C1343.08 26.192 1342.21 25.7387 1341.56 24.832V28.944H1340.36V18.272H1341.56V19.424C1341.84 19.0187 1342.22 18.6933 1342.68 18.448C1343.13 18.2027 1343.63 18.08 1344.16 18.08C1345.19 18.08 1346.01 18.448 1346.64 19.184C1347.28 19.9093 1347.6 20.8907 1347.6 22.128C1347.6 23.3653 1347.28 24.352 1346.64 25.088C1346.01 25.824 1345.19 26.192 1344.16 26.192ZM1343.86 25.12C1344.62 25.12 1345.22 24.8427 1345.67 24.288C1346.12 23.7227 1346.34 23.0027 1346.34 22.128C1346.34 21.2533 1346.12 20.5387 1345.67 19.984C1345.22 19.4293 1344.62 19.152 1343.86 19.152C1343.4 19.152 1342.95 19.2747 1342.52 19.52C1342.09 19.7547 1341.77 20.0427 1341.56 20.384V23.872C1341.77 24.224 1342.09 24.5227 1342.52 24.768C1342.95 25.0027 1343.4 25.12 1343.86 25.12ZM1350.66 26H1349.51V18.272H1350.71V24.176L1354.76 18.272H1355.94V26H1354.74V19.984L1350.66 26ZM1362.68 26H1358.34V18.272H1362.6C1363.27 18.272 1363.8 18.4533 1364.18 18.816C1364.58 19.1787 1364.77 19.6587 1364.77 20.256C1364.77 20.6933 1364.65 21.072 1364.4 21.392C1364.17 21.7013 1363.88 21.9093 1363.52 22.016C1363.92 22.112 1364.25 22.3413 1364.52 22.704C1364.79 23.0667 1364.93 23.4667 1364.93 23.904C1364.93 24.5333 1364.73 25.04 1364.32 25.424C1363.93 25.808 1363.38 26 1362.68 26ZM1362.44 24.944C1362.82 24.944 1363.12 24.8373 1363.35 24.624C1363.57 24.4107 1363.68 24.1227 1363.68 23.76C1363.68 23.4293 1363.57 23.1467 1363.35 22.912C1363.12 22.6773 1362.82 22.56 1362.44 22.56H1359.54V24.944H1362.44ZM1362.39 21.504C1362.75 21.504 1363.03 21.408 1363.24 21.216C1363.44 21.0133 1363.54 20.752 1363.54 20.432C1363.54 20.0907 1363.44 19.824 1363.24 19.632C1363.03 19.4293 1362.75 19.328 1362.39 19.328H1359.54V21.504H1362.39ZM1373.23 26H1372.03V25.12C1371.38 25.8347 1370.53 26.192 1369.47 26.192C1368.76 26.192 1368.13 25.9627 1367.58 25.504C1367.04 25.0453 1366.77 24.4213 1366.77 23.632C1366.77 22.8213 1367.03 22.1973 1367.57 21.76C1368.11 21.312 1368.75 21.088 1369.47 21.088C1370.57 21.088 1371.42 21.44 1372.03 22.144V20.752C1372.03 20.24 1371.85 19.84 1371.49 19.552C1371.13 19.264 1370.66 19.12 1370.08 19.12C1369.17 19.12 1368.38 19.4773 1367.71 20.192L1367.15 19.36C1367.97 18.5067 1369 18.08 1370.24 18.08C1371.13 18.08 1371.85 18.2933 1372.4 18.72C1372.95 19.1467 1373.23 19.8027 1373.23 20.688V26ZM1369.9 25.328C1370.86 25.328 1371.57 25.008 1372.03 24.368V22.912C1371.57 22.272 1370.86 21.952 1369.9 21.952C1369.35 21.952 1368.89 22.112 1368.53 22.432C1368.18 22.7413 1368 23.1467 1368 23.648C1368 24.1387 1368.18 24.544 1368.53 24.864C1368.89 25.1733 1369.35 25.328 1369.9 25.328ZM1374.73 26.192V25.2C1375.09 25.2 1375.39 24.96 1375.62 24.48C1375.86 24 1376.05 23.2 1376.2 22.08L1376.69 18.272H1382.07V26H1380.87V19.328H1377.75L1377.4 22.224C1377.23 23.6427 1376.93 24.6613 1376.5 25.28C1376.07 25.888 1375.48 26.192 1374.73 26.192ZM1392.93 26H1388.59V18.272H1392.85C1393.52 18.272 1394.05 18.4533 1394.43 18.816C1394.83 19.1787 1395.02 19.6587 1395.02 20.256C1395.02 20.6933 1394.9 21.072 1394.65 21.392C1394.42 21.7013 1394.13 21.9093 1393.77 22.016C1394.17 22.112 1394.5 22.3413 1394.77 22.704C1395.04 23.0667 1395.18 23.4667 1395.18 23.904C1395.18 24.5333 1394.98 25.04 1394.57 25.424C1394.18 25.808 1393.63 26 1392.93 26ZM1392.69 24.944C1393.07 24.944 1393.37 24.8373 1393.6 24.624C1393.82 24.4107 1393.93 24.1227 1393.93 23.76C1393.93 23.4293 1393.82 23.1467 1393.6 22.912C1393.37 22.6773 1393.07 22.56 1392.69 22.56H1389.79V24.944H1392.69ZM1392.64 21.504C1393 21.504 1393.28 21.408 1393.49 21.216C1393.69 21.0133 1393.79 20.752 1393.79 20.432C1393.79 20.0907 1393.69 19.824 1393.49 19.632C1393.28 19.4293 1393 19.328 1392.64 19.328H1389.79V21.504H1392.64ZM1398.6 26H1397.19L1399.26 22.96C1398.67 22.8853 1398.19 22.64 1397.82 22.224C1397.46 21.808 1397.27 21.28 1397.27 20.64C1397.27 19.9573 1397.49 19.392 1397.93 18.944C1398.37 18.496 1398.96 18.272 1399.72 18.272H1403.8V26H1402.6V23.008H1400.49L1398.6 26ZM1399.85 21.952H1402.6V19.328H1399.85C1399.43 19.328 1399.1 19.4507 1398.86 19.696C1398.62 19.9307 1398.51 20.2453 1398.51 20.64C1398.51 21.0347 1398.62 21.3547 1398.86 21.6C1399.09 21.8347 1399.42 21.952 1399.85 21.952ZM1405.29 26.192V25.2C1405.65 25.2 1405.95 24.96 1406.18 24.48C1406.42 24 1406.61 23.2 1406.76 22.08L1407.26 18.272H1412.63V26H1411.43V19.328H1408.31L1407.96 22.224C1407.79 23.6427 1407.49 24.6613 1407.06 25.28C1406.64 25.888 1406.05 26.192 1405.29 26.192ZM1421.17 25.024C1420.48 25.8027 1419.56 26.192 1418.4 26.192C1417.25 26.192 1416.32 25.8027 1415.62 25.024C1414.93 24.2453 1414.58 23.28 1414.58 22.128C1414.58 20.976 1414.93 20.016 1415.62 19.248C1416.32 18.4693 1417.25 18.08 1418.4 18.08C1419.56 18.08 1420.48 18.4693 1421.17 19.248C1421.88 20.016 1422.23 20.976 1422.23 22.128C1422.23 23.28 1421.88 24.2453 1421.17 25.024ZM1416.52 24.256C1416.99 24.832 1417.61 25.12 1418.4 25.12C1419.19 25.12 1419.82 24.832 1420.28 24.256C1420.73 23.6693 1420.96 22.96 1420.96 22.128C1420.96 21.296 1420.73 20.592 1420.28 20.016C1419.82 19.44 1419.19 19.152 1418.4 19.152C1417.61 19.152 1416.99 19.4453 1416.52 20.032C1416.06 20.608 1415.83 21.3067 1415.83 22.128C1415.83 22.96 1416.06 23.6693 1416.52 24.256ZM1429.46 26H1428.31V18.272H1429.51V24.176L1433.56 18.272H1434.74V26H1433.54V19.984L1429.46 26ZM1443.87 26H1442.67V19.328H1440.43V18.272H1446.13V19.328H1443.87V26ZM1448.85 26H1447.7V18.272H1448.9V24.176L1452.95 18.272H1454.13V26H1452.93V19.984L1448.85 26ZM1462.93 26H1461.54L1459.22 22.832L1456.9 26H1455.52L1458.48 22.032L1455.68 18.272H1457.07L1459.22 21.216L1461.36 18.272H1462.75L1459.95 22.032L1462.93 26ZM1469.86 25.024C1469.17 25.8027 1468.24 26.192 1467.09 26.192C1465.94 26.192 1465.01 25.8027 1464.31 25.024C1463.61 24.2453 1463.27 23.28 1463.27 22.128C1463.27 20.976 1463.61 20.016 1464.31 19.248C1465.01 18.4693 1465.94 18.08 1467.09 18.08C1468.24 18.08 1469.17 18.4693 1469.86 19.248C1470.56 20.016 1470.92 20.976 1470.92 22.128C1470.92 23.28 1470.56 24.2453 1469.86 25.024ZM1465.2 24.256C1465.67 24.832 1466.3 25.12 1467.09 25.12C1467.88 25.12 1468.5 24.832 1468.96 24.256C1469.42 23.6693 1469.65 22.96 1469.65 22.128C1469.65 21.296 1469.42 20.592 1468.96 20.016C1468.5 19.44 1467.88 19.152 1467.09 19.152C1466.3 19.152 1465.67 19.4453 1465.2 20.032C1464.74 20.608 1464.52 21.3067 1464.52 22.128C1464.52 22.96 1464.74 23.6693 1465.2 24.256Z" fill="#E1523E"></path> <g filter="url(#filter6_d)"> <rect x="1942" width="251" height="42" rx="21" fill="white"></rect> </g> <path d="M1972.14 26H1970.82V16.512H1964.58V26H1963.25V15.328H1972.14V26ZM1978.4 26.192C1977.31 26.192 1976.44 25.7387 1975.79 24.832V28.944H1974.59V18.272H1975.79V19.424C1976.08 19.0187 1976.45 18.6933 1976.91 18.448C1977.37 18.2027 1977.87 18.08 1978.4 18.08C1979.42 18.08 1980.25 18.448 1980.88 19.184C1981.52 19.9093 1981.84 20.8907 1981.84 22.128C1981.84 23.3653 1981.52 24.352 1980.88 25.088C1980.25 25.824 1979.42 26.192 1978.4 26.192ZM1978.09 25.12C1978.85 25.12 1979.45 24.8427 1979.9 24.288C1980.35 23.7227 1980.57 23.0027 1980.57 22.128C1980.57 21.2533 1980.35 20.5387 1979.9 19.984C1979.45 19.4293 1978.85 19.152 1978.09 19.152C1977.64 19.152 1977.19 19.2747 1976.75 19.52C1976.32 19.7547 1976 20.0427 1975.79 20.384V23.872C1976 24.224 1976.32 24.5227 1976.75 24.768C1977.19 25.0027 1977.64 25.12 1978.09 25.12ZM1989.89 25.024C1989.2 25.8027 1988.27 26.192 1987.12 26.192C1985.97 26.192 1985.04 25.8027 1984.34 25.024C1983.65 24.2453 1983.3 23.28 1983.3 22.128C1983.3 20.976 1983.65 20.016 1984.34 19.248C1985.04 18.4693 1985.97 18.08 1987.12 18.08C1988.27 18.08 1989.2 18.4693 1989.89 19.248C1990.59 20.016 1990.95 20.976 1990.95 22.128C1990.95 23.28 1990.59 24.2453 1989.89 25.024ZM1985.23 24.256C1985.7 24.832 1986.33 25.12 1987.12 25.12C1987.91 25.12 1988.54 24.832 1988.99 24.256C1989.45 23.6693 1989.68 22.96 1989.68 22.128C1989.68 21.296 1989.45 20.592 1988.99 20.016C1988.54 19.44 1987.91 19.152 1987.12 19.152C1986.33 19.152 1985.7 19.4453 1985.23 20.032C1984.78 20.608 1984.55 21.3067 1984.55 22.128C1984.55 22.96 1984.78 23.6693 1985.23 24.256ZM1994.06 26H1992.65L1994.71 22.96C1994.12 22.8853 1993.64 22.64 1993.27 22.224C1992.91 21.808 1992.73 21.28 1992.73 20.64C1992.73 19.9573 1992.95 19.392 1993.38 18.944C1993.82 18.496 1994.42 18.272 1995.18 18.272H1999.26V26H1998.06V23.008H1995.94L1994.06 26ZM1995.3 21.952H1998.06V19.328H1995.3C1994.89 19.328 1994.56 19.4507 1994.31 19.696C1994.08 19.9307 1993.96 20.2453 1993.96 20.64C1993.96 21.0347 1994.08 21.3547 1994.31 21.6C1994.55 21.8347 1994.88 21.952 1995.3 21.952ZM2005.99 26H2001.65V18.272H2005.91C2006.58 18.272 2007.11 18.4533 2007.49 18.816C2007.89 19.1787 2008.09 19.6587 2008.09 20.256C2008.09 20.6933 2007.96 21.072 2007.72 21.392C2007.48 21.7013 2007.19 21.9093 2006.84 22.016C2007.23 22.112 2007.56 22.3413 2007.83 22.704C2008.11 23.0667 2008.25 23.4667 2008.25 23.904C2008.25 24.5333 2008.04 25.04 2007.64 25.424C2007.24 25.808 2006.69 26 2005.99 26ZM2005.75 24.944C2006.13 24.944 2006.44 24.8373 2006.66 24.624C2006.89 24.4107 2007 24.1227 2007 23.76C2007 23.4293 2006.89 23.1467 2006.66 22.912C2006.44 22.6773 2006.13 22.56 2005.75 22.56H2002.85V24.944H2005.75ZM2005.7 21.504C2006.06 21.504 2006.35 21.408 2006.55 21.216C2006.75 21.0133 2006.85 20.752 2006.85 20.432C2006.85 20.0907 2006.75 19.824 2006.55 19.632C2006.35 19.4293 2006.06 19.328 2005.7 19.328H2002.85V21.504H2005.7ZM2011.66 26H2010.51V18.272H2011.71V24.176L2015.76 18.272H2016.94V26H2015.74V19.984L2011.66 26ZM2018.43 26.192V25.2C2018.79 25.2 2019.09 24.96 2019.32 24.48C2019.56 24 2019.75 23.2 2019.9 22.08L2020.4 18.272H2025.77V26H2024.57V19.328H2021.45L2021.1 22.224C2020.93 23.6427 2020.63 24.6613 2020.2 25.28C2019.78 25.888 2019.19 26.192 2018.43 26.192ZM2033.49 26H2032.29V18.272H2033.49V21.488H2037.53V18.272H2038.73V26H2037.53V22.544H2033.49V26ZM2044.61 26.192C2043.46 26.192 2042.51 25.8187 2041.78 25.072C2041.04 24.3147 2040.67 23.3333 2040.67 22.128C2040.67 20.9973 2041.04 20.0427 2041.76 19.264C2042.49 18.4747 2043.39 18.08 2044.48 18.08C2045.62 18.08 2046.52 18.4747 2047.19 19.264C2047.86 20.0427 2048.19 21.0293 2048.19 22.224V22.528H2041.94C2041.99 23.2853 2042.27 23.92 2042.77 24.432C2043.27 24.944 2043.92 25.2 2044.72 25.2C2045.68 25.2 2046.48 24.8747 2047.11 24.224L2047.68 25.008C2046.89 25.7973 2045.87 26.192 2044.61 26.192ZM2047.01 21.648C2047 20.9867 2046.78 20.3947 2046.34 19.872C2045.9 19.3387 2045.28 19.072 2044.47 19.072C2043.7 19.072 2043.09 19.3333 2042.64 19.856C2042.2 20.3787 2041.97 20.976 2041.94 21.648H2047.01ZM2052.87 26.192C2051.39 26.192 2050.23 25.7707 2049.39 24.928L2049.98 24.16C2050.7 24.8533 2051.67 25.2 2052.87 25.2C2053.57 25.2 2054.12 25.0773 2054.52 24.832C2054.94 24.5867 2055.15 24.2613 2055.15 23.856C2055.15 23.0027 2054.33 22.576 2052.71 22.576H2050.99V21.6H2052.71C2053.39 21.6 2053.93 21.4933 2054.36 21.28C2054.79 21.056 2055 20.7307 2055 20.304C2055 19.9413 2054.79 19.648 2054.36 19.424C2053.93 19.1893 2053.4 19.072 2052.75 19.072C2051.67 19.072 2050.8 19.4027 2050.15 20.064L2049.53 19.328C2050.33 18.5067 2051.39 18.096 2052.7 18.096C2053.75 18.0853 2054.61 18.2667 2055.26 18.64C2055.92 19.0027 2056.25 19.5093 2056.25 20.16C2056.25 20.6933 2056.03 21.1253 2055.59 21.456C2055.17 21.7867 2054.69 21.984 2054.17 22.048C2054.71 22.0907 2055.22 22.272 2055.69 22.592C2056.17 22.912 2056.41 23.36 2056.41 23.936C2056.41 24.5973 2056.09 25.1413 2055.45 25.568C2054.82 25.984 2053.96 26.192 2052.87 26.192ZM2059.56 26H2058.36V18.272H2059.56V21.488H2063.59V18.272H2064.79V26H2063.59V22.544H2059.56V26ZM2073.22 26H2072.02V25.12C2071.37 25.8347 2070.51 26.192 2069.46 26.192C2068.74 26.192 2068.11 25.9627 2067.57 25.504C2067.02 25.0453 2066.75 24.4213 2066.75 23.632C2066.75 22.8213 2067.02 22.1973 2067.55 21.76C2068.1 21.312 2068.73 21.088 2069.46 21.088C2070.56 21.088 2071.41 21.44 2072.02 22.144V20.752C2072.02 20.24 2071.84 19.84 2071.47 19.552C2071.11 19.264 2070.64 19.12 2070.06 19.12C2069.16 19.12 2068.37 19.4773 2067.7 20.192L2067.14 19.36C2067.96 18.5067 2068.99 18.08 2070.22 18.08C2071.11 18.08 2071.83 18.2933 2072.38 18.72C2072.94 19.1467 2073.22 19.8027 2073.22 20.688V26ZM2069.89 25.328C2070.85 25.328 2071.56 25.008 2072.02 24.368V22.912C2071.56 22.272 2070.85 21.952 2069.89 21.952C2069.33 21.952 2068.88 22.112 2068.51 22.432C2068.16 22.7413 2067.98 23.1467 2067.98 23.648C2067.98 24.1387 2068.16 24.544 2068.51 24.864C2068.88 25.1733 2069.33 25.328 2069.89 25.328ZM2076.82 26H2075.62V18.272H2076.82V21.488H2080.85V18.272H2082.05V26H2080.85V22.544H2076.82V26ZM2085.6 26H2084.45V18.272H2085.65V24.176L2089.7 18.272H2090.88V26H2089.68V19.984L2085.6 26ZM2096.77 26.192C2095.61 26.192 2094.67 25.8187 2093.93 25.072C2093.2 24.3147 2092.83 23.3333 2092.83 22.128C2092.83 20.9973 2093.19 20.0427 2093.92 19.264C2094.64 18.4747 2095.55 18.08 2096.64 18.08C2097.78 18.08 2098.68 18.4747 2099.34 19.264C2100.01 20.0427 2100.35 21.0293 2100.35 22.224V22.528H2094.09C2094.15 23.2853 2094.42 23.92 2094.93 24.432C2095.43 24.944 2096.08 25.2 2096.88 25.2C2097.84 25.2 2098.63 24.8747 2099.26 24.224L2099.84 25.008C2099.05 25.7973 2098.02 26.192 2096.77 26.192ZM2099.17 21.648C2099.16 20.9867 2098.93 20.3947 2098.49 19.872C2098.06 19.3387 2097.43 19.072 2096.62 19.072C2095.85 19.072 2095.25 19.3333 2094.8 19.856C2094.36 20.3787 2094.13 20.976 2094.09 21.648H2099.17ZM2112.85 26H2111.65V19.328H2107.62V26H2106.42V18.272H2112.85V26ZM2119.05 26.192C2117.97 26.192 2117.1 25.7387 2116.45 24.832V28.944H2115.25V18.272H2116.45V19.424C2116.73 19.0187 2117.11 18.6933 2117.57 18.448C2118.03 18.2027 2118.52 18.08 2119.05 18.08C2120.08 18.08 2120.91 18.448 2121.53 19.184C2122.17 19.9093 2122.49 20.8907 2122.49 22.128C2122.49 23.3653 2122.17 24.352 2121.53 25.088C2120.91 25.824 2120.08 26.192 2119.05 26.192ZM2118.75 25.12C2119.51 25.12 2120.11 24.8427 2120.56 24.288C2121.01 23.7227 2121.23 23.0027 2121.23 22.128C2121.23 21.2533 2121.01 20.5387 2120.56 19.984C2120.11 19.4293 2119.51 19.152 2118.75 19.152C2118.29 19.152 2117.84 19.2747 2117.41 19.52C2116.98 19.7547 2116.66 20.0427 2116.45 20.384V23.872C2116.66 24.224 2116.98 24.5227 2117.41 24.768C2117.84 25.0027 2118.29 25.12 2118.75 25.12ZM2130.55 25.024C2129.85 25.8027 2128.93 26.192 2127.78 26.192C2126.63 26.192 2125.7 25.8027 2125 25.024C2124.3 24.2453 2123.96 23.28 2123.96 22.128C2123.96 20.976 2124.3 20.016 2125 19.248C2125.7 18.4693 2126.63 18.08 2127.78 18.08C2128.93 18.08 2129.85 18.4693 2130.55 19.248C2131.25 20.016 2131.6 20.976 2131.6 22.128C2131.6 23.28 2131.25 24.2453 2130.55 25.024ZM2125.89 24.256C2126.36 24.832 2126.99 25.12 2127.78 25.12C2128.57 25.12 2129.19 24.832 2129.65 24.256C2130.11 23.6693 2130.34 22.96 2130.34 22.128C2130.34 21.296 2130.11 20.592 2129.65 20.016C2129.19 19.44 2128.57 19.152 2127.78 19.152C2126.99 19.152 2126.36 19.4453 2125.89 20.032C2125.43 20.608 2125.2 21.3067 2125.2 22.128C2125.2 22.96 2125.43 23.6693 2125.89 24.256ZM2132.65 27.968V25.008C2133.04 24.9333 2133.35 24.6987 2133.58 24.304C2133.8 23.8987 2133.98 23.1573 2134.12 22.08L2134.62 18.272H2139.99V24.944H2140.89V27.968H2139.69V26H2133.85V27.968H2132.65ZM2135.67 19.328L2135.32 22.224C2135.14 23.5787 2134.76 24.4853 2134.2 24.944H2138.79V19.328H2135.67ZM2142.1 29.024L2142.29 27.936C2142.48 28.0213 2142.7 28.064 2142.94 28.064C2143.22 28.064 2143.45 28.0053 2143.63 27.888C2143.81 27.7707 2143.97 27.5573 2144.1 27.248L2144.61 26.08L2141.38 18.272H2142.67L2145.25 24.608L2147.81 18.272H2149.12L2145.25 27.568C2144.82 28.592 2144.06 29.1147 2142.98 29.136C2142.66 29.136 2142.36 29.0987 2142.1 29.024ZM2157.17 26H2155.64L2152.85 22.528L2151.57 23.792V26H2150.37V18.272H2151.57V22.384L2155.64 18.272H2157.16L2153.73 21.776L2157.17 26ZM2161.2 26H2160V19.328H2157.76V18.272H2163.45V19.328H2161.2V26ZM2171.06 26H2169.86V25.12C2169.21 25.8347 2168.36 26.192 2167.3 26.192C2166.59 26.192 2165.96 25.9627 2165.41 25.504C2164.87 25.0453 2164.6 24.4213 2164.6 23.632C2164.6 22.8213 2164.86 22.1973 2165.4 21.76C2165.94 21.312 2166.57 21.088 2167.3 21.088C2168.4 21.088 2169.25 21.44 2169.86 22.144V20.752C2169.86 20.24 2169.68 19.84 2169.32 19.552C2168.95 19.264 2168.48 19.12 2167.91 19.12C2167 19.12 2166.21 19.4773 2165.54 20.192L2164.98 19.36C2165.8 18.5067 2166.83 18.08 2168.07 18.08C2168.95 18.08 2169.67 18.2933 2170.23 18.72C2170.78 19.1467 2171.06 19.8027 2171.06 20.688V26ZM2167.73 25.328C2168.69 25.328 2169.4 25.008 2169.86 24.368V22.912C2169.4 22.272 2168.69 21.952 2167.73 21.952C2167.18 21.952 2166.72 22.112 2166.36 22.432C2166 22.7413 2165.83 23.1467 2165.83 23.648C2165.83 24.1387 2166 24.544 2166.36 24.864C2166.72 25.1733 2167.18 25.328 2167.73 25.328Z" fill="#E1523E"></path> <g filter="url(#filter7_d)"> <rect x="8" width="191" height="42" rx="21" fill="white"></rect> </g> <path d="M30.576 26V16.512H36.24V15.328H29.248V26H30.576ZM40.4455 26.192C42.4775 26.192 43.8855 24.624 43.8855 22.128C43.8855 19.616 42.4775 18.08 40.4455 18.08C39.3575 18.08 38.3975 18.64 37.8375 19.424V18.272H36.6375V28.944H37.8375V24.832C38.4615 25.696 39.3895 26.192 40.4455 26.192ZM40.1415 25.12C39.1975 25.12 38.2535 24.544 37.8375 23.872V20.384C38.2535 19.712 39.1975 19.152 40.1415 19.152C41.6935 19.152 42.6215 20.416 42.6215 22.128C42.6215 23.84 41.6935 25.12 40.1415 25.12ZM45.3618 29.024C45.5858 29.088 45.9858 29.136 46.2418 29.136C47.2658 29.12 48.0498 28.688 48.5138 27.568L52.3858 18.272H51.0738L48.5138 24.608L45.9378 18.272H44.6418L47.8738 26.08L47.3618 27.248C47.0898 27.888 46.7378 28.064 46.2098 28.064C46.0178 28.064 45.7298 28.016 45.5538 27.936L45.3618 29.024ZM57.0135 25.12C55.3655 25.12 54.4375 23.712 54.4375 22.112C54.4375 20.56 55.3655 19.152 57.0135 19.152C58.6615 19.152 59.5735 20.56 59.5735 22.112C59.5735 23.712 58.6615 25.12 57.0135 25.12ZM57.0135 26.192C59.3975 26.192 60.8215 24.336 60.8215 22.112C60.8215 19.92 59.3975 18.08 57.2055 18.08C55.8295 18.08 54.8535 18.848 54.2935 19.728C54.5655 18.416 55.2535 17.424 57.5415 17.104C58.8535 16.928 60.5815 16.592 60.5815 15.328H59.4135C59.4135 15.648 58.9335 15.856 57.2375 16.112C54.5495 16.464 53.1895 18.016 53.1895 21.776C53.1895 24.336 54.6455 26.192 57.0135 26.192ZM66.2479 26.192C68.5999 26.192 70.0719 24.368 70.0719 22.128C70.0719 19.888 68.5999 18.08 66.2479 18.08C63.8959 18.08 62.4239 19.888 62.4239 22.128C62.4239 24.368 63.8959 26.192 66.2479 26.192ZM66.2479 25.12C64.5999 25.12 63.6719 23.712 63.6719 22.128C63.6719 20.56 64.5999 19.152 66.2479 19.152C67.8959 19.152 68.8079 20.56 68.8079 22.128C68.8079 23.712 67.8959 25.12 66.2479 25.12ZM79.9611 26.192C81.9931 26.192 83.4011 24.624 83.4011 22.128C83.4011 19.616 81.9931 18.08 79.9611 18.08C78.8731 18.08 77.9131 18.64 77.3531 19.424V18.272H76.1531V28.944H77.3531V24.832C77.9771 25.696 78.9051 26.192 79.9611 26.192ZM79.6571 25.12C78.7131 25.12 77.7691 24.544 77.3531 23.872V20.384C77.7691 19.712 78.7131 19.152 79.6571 19.152C81.2091 19.152 82.1371 20.416 82.1371 22.128C82.1371 23.84 81.2091 25.12 79.6571 25.12ZM91.3414 26V20.688C91.3414 18.816 89.9814 18.08 88.3494 18.08C87.0854 18.08 86.0934 18.496 85.2614 19.36L85.8214 20.192C86.5094 19.456 87.2614 19.12 88.1894 19.12C89.3094 19.12 90.1414 19.712 90.1414 20.752V22.144C89.5174 21.424 88.6374 21.088 87.5814 21.088C86.2694 21.088 84.8774 21.904 84.8774 23.632C84.8774 25.312 86.2694 26.192 87.5814 26.192C88.6214 26.192 89.5014 25.824 90.1414 25.12V26H91.3414ZM88.0134 25.328C86.8934 25.328 86.1094 24.624 86.1094 23.648C86.1094 22.656 86.8934 21.952 88.0134 21.952C88.8614 21.952 89.6774 22.272 90.1414 22.912V24.368C89.6774 25.008 88.8614 25.328 88.0134 25.328ZM96.4829 26.192C98.7069 26.192 100.019 25.232 100.019 23.936C100.019 22.656 98.6749 22.112 97.7789 22.048C98.6909 21.936 99.8589 21.312 99.8589 20.16C99.8589 18.848 98.3869 18.08 96.3069 18.096C94.8989 18.096 93.8589 18.592 93.1389 19.328L93.7629 20.064C94.4189 19.392 95.2669 19.072 96.3549 19.072C97.6349 19.072 98.6109 19.568 98.6109 20.304C98.6109 21.184 97.6029 21.6 96.3229 21.6H94.5949V22.576H96.3229C97.6829 22.576 98.7549 22.896 98.7549 23.856C98.7549 24.672 97.8589 25.2 96.4829 25.2C95.3309 25.2 94.3069 24.848 93.5869 24.16L92.9949 24.928C93.7629 25.696 94.9309 26.192 96.4829 26.192ZM107.374 18.272H101.966V26H103.166V19.328H107.374V18.272ZM112.31 26.192C114.662 26.192 116.134 24.368 116.134 22.128C116.134 19.888 114.662 18.08 112.31 18.08C109.958 18.08 108.486 19.888 108.486 22.128C108.486 24.368 109.958 26.192 112.31 26.192ZM112.31 25.12C110.662 25.12 109.734 23.712 109.734 22.128C109.734 20.56 110.662 19.152 112.31 19.152C113.958 19.152 114.87 20.56 114.87 22.128C114.87 23.712 113.958 25.12 112.31 25.12ZM122.427 26C123.851 26 124.683 25.152 124.683 23.904C124.683 23.024 124.059 22.208 123.275 22.016C123.931 21.808 124.523 21.184 124.523 20.256C124.523 19.088 123.707 18.272 122.347 18.272H118.091V26H122.427ZM122.187 24.944H119.291V22.56H122.187C123.003 22.56 123.435 23.136 123.435 23.76C123.435 24.496 122.955 24.944 122.187 24.944ZM122.139 21.504H119.291V19.328H122.139C122.875 19.328 123.291 19.76 123.291 20.432C123.291 21.04 122.891 21.504 122.139 21.504ZM132.982 26V20.688C132.982 18.816 131.622 18.08 129.99 18.08C128.726 18.08 127.734 18.496 126.902 19.36L127.462 20.192C128.15 19.456 128.902 19.12 129.83 19.12C130.95 19.12 131.782 19.712 131.782 20.752V22.144C131.158 21.424 130.278 21.088 129.222 21.088C127.91 21.088 126.518 21.904 126.518 23.632C126.518 25.312 127.91 26.192 129.222 26.192C130.262 26.192 131.142 25.824 131.782 25.12V26H132.982ZM129.654 25.328C128.534 25.328 127.75 24.624 127.75 23.648C127.75 22.656 128.534 21.952 129.654 21.952C130.502 21.952 131.318 22.272 131.782 22.912V24.368C131.318 25.008 130.502 25.328 129.654 25.328ZM139.196 26.192C141.228 26.192 142.635 24.624 142.635 22.128C142.635 19.616 141.228 18.08 139.196 18.08C138.108 18.08 137.148 18.64 136.588 19.424V18.272H135.388V28.944H136.588V24.832C137.212 25.696 138.14 26.192 139.196 26.192ZM138.891 25.12C137.948 25.12 137.004 24.544 136.588 23.872V20.384C137.004 19.712 137.948 19.152 138.891 19.152C140.444 19.152 141.372 20.416 141.372 22.128C141.372 23.84 140.444 25.12 138.891 25.12ZM145.696 26L149.776 19.984V26H150.976V18.272H149.792L145.744 24.176V18.272H144.544V26H145.696ZM157.708 26C159.132 26 159.964 25.152 159.964 23.904C159.964 23.024 159.34 22.208 158.556 22.016C159.212 21.808 159.804 21.184 159.804 20.256C159.804 19.088 158.988 18.272 157.628 18.272H153.372V26H157.708ZM157.468 24.944H154.572V22.56H157.468C158.284 22.56 158.716 23.136 158.716 23.76C158.716 24.496 158.236 24.944 157.468 24.944ZM157.42 21.504H154.572V19.328H157.42C158.156 19.328 158.572 19.76 158.572 20.432C158.572 21.04 158.172 21.504 157.42 21.504ZM168.263 26V20.688C168.263 18.816 166.903 18.08 165.271 18.08C164.007 18.08 163.015 18.496 162.183 19.36L162.743 20.192C163.431 19.456 164.183 19.12 165.111 19.12C166.231 19.12 167.063 19.712 167.063 20.752V22.144C166.439 21.424 165.559 21.088 164.503 21.088C163.191 21.088 161.799 21.904 161.799 23.632C161.799 25.312 163.191 26.192 164.503 26.192C165.543 26.192 166.423 25.824 167.063 25.12V26H168.263ZM164.935 25.328C163.815 25.328 163.031 24.624 163.031 23.648C163.031 22.656 163.815 21.952 164.935 21.952C165.783 21.952 166.599 22.272 167.063 22.912V24.368C166.599 25.008 165.783 25.328 164.935 25.328ZM169.757 26.192C171.245 26.192 172.077 25.104 172.429 22.224L172.781 19.328H175.901V26H177.101V18.272H171.725L171.229 22.08C170.925 24.368 170.477 25.2 169.757 25.2V26.192Z" fill="#E1523E"></path> <g filter="url(#filter8_d)"> <rect x="454" width="253" height="42" rx="21" fill="white"></rect> </g> <path d="M480.304 26.192C482.192 26.192 483.472 25.296 484.368 24.08L483.232 23.456C482.624 24.368 481.52 25.008 480.304 25.008C477.968 25.008 476.192 23.2 476.192 20.672C476.192 18.128 477.968 16.336 480.304 16.336C481.52 16.336 482.624 16.992 483.232 17.888L484.352 17.264C483.504 16.064 482.192 15.152 480.304 15.152C477.232 15.152 474.816 17.392 474.816 20.672C474.816 23.952 477.232 26.192 480.304 26.192ZM485.054 26.192C486.542 26.192 487.374 25.104 487.726 22.224L488.078 19.328H491.198V26H492.398V18.272H487.022L486.526 22.08C486.222 24.368 485.774 25.2 485.054 25.2V26.192ZM495.946 26L500.026 19.984V26H501.226V18.272H500.042L495.994 24.176V18.272H494.794V26H495.946ZM507.958 26C509.382 26 510.214 25.152 510.214 23.904C510.214 23.024 509.59 22.208 508.806 22.016C509.462 21.808 510.054 21.184 510.054 20.256C510.054 19.088 509.238 18.272 507.878 18.272H503.622V26H507.958ZM507.718 24.944H504.822V22.56H507.718C508.534 22.56 508.966 23.136 508.966 23.76C508.966 24.496 508.486 24.944 507.718 24.944ZM507.67 21.504H504.822V19.328H507.67C508.406 19.328 508.822 19.76 508.822 20.432C508.822 21.04 508.422 21.504 507.67 21.504ZM518.513 26V20.688C518.513 18.816 517.153 18.08 515.521 18.08C514.257 18.08 513.265 18.496 512.433 19.36L512.993 20.192C513.681 19.456 514.433 19.12 515.361 19.12C516.481 19.12 517.313 19.712 517.313 20.752V22.144C516.689 21.424 515.809 21.088 514.753 21.088C513.441 21.088 512.049 21.904 512.049 23.632C512.049 25.312 513.441 26.192 514.753 26.192C515.793 26.192 516.673 25.824 517.313 25.12V26H518.513ZM515.185 25.328C514.065 25.328 513.281 24.624 513.281 23.648C513.281 22.656 514.065 21.952 515.185 21.952C516.033 21.952 516.849 22.272 517.313 22.912V24.368C516.849 25.008 516.033 25.328 515.185 25.328ZM520.007 26.192C521.495 26.192 522.327 25.104 522.679 22.224L523.031 19.328H526.151V26H527.351V18.272H521.975L521.479 22.08C521.175 24.368 520.727 25.2 520.007 25.2V26.192ZM536.608 26.192C538.832 26.192 540.144 25.232 540.144 23.936C540.144 22.656 538.8 22.112 537.904 22.048C538.816 21.936 539.984 21.312 539.984 20.16C539.984 18.848 538.512 18.08 536.432 18.096C535.024 18.096 533.984 18.592 533.264 19.328L533.888 20.064C534.544 19.392 535.392 19.072 536.48 19.072C537.76 19.072 538.736 19.568 538.736 20.304C538.736 21.184 537.728 21.6 536.448 21.6H534.72V22.576H536.448C537.808 22.576 538.88 22.896 538.88 23.856C538.88 24.672 537.984 25.2 536.608 25.2C535.456 25.2 534.432 24.848 533.712 24.16L533.12 24.928C533.888 25.696 535.056 26.192 536.608 26.192ZM548.123 26V20.688C548.123 18.816 546.763 18.08 545.131 18.08C543.867 18.08 542.875 18.496 542.043 19.36L542.603 20.192C543.291 19.456 544.043 19.12 544.971 19.12C546.091 19.12 546.923 19.712 546.923 20.752V22.144C546.299 21.424 545.419 21.088 544.363 21.088C543.051 21.088 541.659 21.904 541.659 23.632C541.659 25.312 543.051 26.192 544.363 26.192C545.403 26.192 546.283 25.824 546.923 25.12V26H548.123ZM544.795 25.328C543.675 25.328 542.891 24.624 542.891 23.648C542.891 22.656 543.675 21.952 544.795 21.952C545.643 21.952 546.459 22.272 546.923 22.912V24.368C546.459 25.008 545.643 25.328 544.795 25.328ZM557.328 26L553.888 21.776L557.312 18.272H555.792L551.728 22.384V18.272H550.528V26H551.728V23.792L553.008 22.528L555.792 26H557.328ZM564.779 26V20.688C564.779 18.816 563.419 18.08 561.787 18.08C560.523 18.08 559.531 18.496 558.699 19.36L559.259 20.192C559.947 19.456 560.699 19.12 561.627 19.12C562.747 19.12 563.579 19.712 563.579 20.752V22.144C562.955 21.424 562.075 21.088 561.019 21.088C559.707 21.088 558.315 21.904 558.315 23.632C558.315 25.312 559.707 26.192 561.019 26.192C562.059 26.192 562.939 25.824 563.579 25.12V26H564.779ZM561.451 25.328C560.331 25.328 559.547 24.624 559.547 23.648C559.547 22.656 560.331 21.952 561.451 21.952C562.299 21.952 563.115 22.272 563.579 22.912V24.368C563.115 25.008 562.299 25.328 561.451 25.328ZM569.92 26.192C572.144 26.192 573.456 25.232 573.456 23.936C573.456 22.656 572.112 22.112 571.216 22.048C572.128 21.936 573.296 21.312 573.296 20.16C573.296 18.848 571.824 18.08 569.744 18.096C568.336 18.096 567.296 18.592 566.576 19.328L567.2 20.064C567.856 19.392 568.704 19.072 569.792 19.072C571.072 19.072 572.048 19.568 572.048 20.304C572.048 21.184 571.04 21.6 569.76 21.6H568.032V22.576H569.76C571.12 22.576 572.192 22.896 572.192 23.856C572.192 24.672 571.296 25.2 569.92 25.2C568.768 25.2 567.744 24.848 567.024 24.16L566.432 24.928C567.2 25.696 568.368 26.192 569.92 26.192ZM575.403 18.272V26H579.499C581.083 26 581.931 24.912 581.931 23.632C581.931 22.368 581.099 21.264 579.499 21.264H576.603V18.272H575.403ZM579.371 22.32C580.251 22.32 580.699 22.88 580.699 23.632C580.699 24.4 580.235 24.944 579.371 24.944H576.603V22.32H579.371ZM584.395 26V18.272H583.195V26H584.395ZM597.719 26L594.279 21.776L597.703 18.272H596.183L592.119 22.384V18.272H590.919V26H592.119V23.792L593.399 22.528L596.183 26H597.719ZM602.467 26.192C604.819 26.192 606.291 24.368 606.291 22.128C606.291 19.888 604.819 18.08 602.467 18.08C600.115 18.08 598.643 19.888 598.643 22.128C598.643 24.368 600.115 26.192 602.467 26.192ZM602.467 25.12C600.819 25.12 599.891 23.712 599.891 22.128C599.891 20.56 600.819 19.152 602.467 19.152C604.115 19.152 605.027 20.56 605.027 22.128C605.027 23.712 604.115 25.12 602.467 25.12ZM609.447 26V22.544H613.479V26H614.679V18.272H613.479V21.488H609.447V18.272H608.247V26H609.447ZM623.875 26L620.435 21.776L623.859 18.272H622.339L618.275 22.384V18.272H617.075V26H618.275V23.792L619.555 22.528L622.339 26H623.875ZM624.862 29.024C625.086 29.088 625.486 29.136 625.742 29.136C626.766 29.12 627.55 28.688 628.014 27.568L631.886 18.272H630.574L628.014 24.608L625.438 18.272H624.142L627.374 26.08L626.862 27.248C626.59 27.888 626.238 28.064 625.71 28.064C625.518 28.064 625.23 28.016 625.054 27.936L624.862 29.024ZM636.946 26.192C638.978 26.192 640.385 24.624 640.385 22.128C640.385 19.616 638.978 18.08 636.946 18.08C635.858 18.08 634.898 18.64 634.338 19.424V18.272H633.138V28.944H634.338V24.832C634.962 25.696 635.89 26.192 636.946 26.192ZM636.641 25.12C635.698 25.12 634.754 24.544 634.338 23.872V20.384C634.754 19.712 635.698 19.152 636.641 19.152C638.194 19.152 639.122 20.416 639.122 22.128C639.122 23.84 638.194 25.12 636.641 25.12ZM645.782 26.192C647.046 26.192 648.086 25.776 648.854 25.008L648.278 24.224C647.67 24.848 646.774 25.2 645.894 25.2C644.23 25.2 643.206 23.984 643.11 22.528H649.366V22.224C649.366 19.904 647.99 18.08 645.654 18.08C643.446 18.08 641.846 19.888 641.846 22.128C641.846 24.544 643.494 26.192 645.782 26.192ZM648.182 21.648H643.11C643.174 20.464 643.99 19.072 645.638 19.072C647.398 19.072 648.166 20.496 648.182 21.648ZM652.509 26V22.544H656.541V26H657.741V18.272H656.541V21.488H652.509V18.272H651.309V26H652.509ZM662.746 26V19.328H665.002V18.272H659.306V19.328H661.546V26H662.746ZM672.607 26V20.688C672.607 18.816 671.247 18.08 669.615 18.08C668.351 18.08 667.359 18.496 666.527 19.36L667.087 20.192C667.775 19.456 668.527 19.12 669.455 19.12C670.575 19.12 671.407 19.712 671.407 20.752V22.144C670.783 21.424 669.903 21.088 668.847 21.088C667.535 21.088 666.143 21.904 666.143 23.632C666.143 25.312 667.535 26.192 668.847 26.192C669.887 26.192 670.767 25.824 671.407 25.12V26H672.607ZM669.279 25.328C668.159 25.328 667.375 24.624 667.375 23.648C667.375 22.656 668.159 21.952 669.279 21.952C670.127 21.952 670.943 22.272 671.407 22.912V24.368C670.943 25.008 670.127 25.328 669.279 25.328ZM682.901 26V18.272H681.301L678.965 24L676.597 18.272H675.013V26H676.213V19.936L678.741 26H679.189L681.701 19.936V26H682.901Z" fill="#E1523E"></path> <g filter="url(#filter9_d)"> <rect x="737" width="216" height="42" rx="21" fill="white"></rect> </g> <path d="M768.696 26V15.328H766.792L763.464 23.36L760.152 15.328H758.248V26H759.576V17.216L763.192 26H763.736L767.368 17.216V26H768.696ZM777.17 26V20.688C777.17 18.816 775.81 18.08 774.178 18.08C772.914 18.08 771.922 18.496 771.09 19.36L771.65 20.192C772.338 19.456 773.09 19.12 774.018 19.12C775.138 19.12 775.97 19.712 775.97 20.752V22.144C775.346 21.424 774.466 21.088 773.41 21.088C772.098 21.088 770.706 21.904 770.706 23.632C770.706 25.312 772.098 26.192 773.41 26.192C774.45 26.192 775.33 25.824 775.97 25.12V26H777.17ZM773.842 25.328C772.722 25.328 771.938 24.624 771.938 23.648C771.938 22.656 772.722 21.952 773.842 21.952C774.69 21.952 775.506 22.272 775.97 22.912V24.368C775.506 25.008 774.69 25.328 773.842 25.328ZM782.183 26V19.328H784.439V18.272H778.743V19.328H780.983V26H782.183ZM789.501 26.192C790.765 26.192 791.805 25.776 792.573 25.008L791.997 24.224C791.389 24.848 790.493 25.2 789.613 25.2C787.949 25.2 786.924 23.984 786.829 22.528H793.085V22.224C793.085 19.904 791.709 18.08 789.373 18.08C787.164 18.08 785.565 19.888 785.565 22.128C785.565 24.544 787.213 26.192 789.501 26.192ZM791.901 21.648H786.829C786.893 20.464 787.709 19.072 789.357 19.072C791.117 19.072 791.885 20.496 791.901 21.648ZM798.836 26.192C800.868 26.192 802.276 24.624 802.276 22.128C802.276 19.616 800.868 18.08 798.836 18.08C797.748 18.08 796.788 18.64 796.228 19.424V18.272H795.028V28.944H796.228V24.832C796.852 25.696 797.78 26.192 798.836 26.192ZM798.532 25.12C797.588 25.12 796.644 24.544 796.228 23.872V20.384C796.644 19.712 797.588 19.152 798.532 19.152C800.084 19.152 801.012 20.416 801.012 22.128C801.012 23.84 800.084 25.12 798.532 25.12ZM805.336 26L809.416 19.984V26H810.616V18.272H809.432L805.384 24.176V18.272H804.184V26H805.336ZM812.101 26.192C813.589 26.192 814.421 25.104 814.773 22.224L815.125 19.328H818.245V26H819.445V18.272H814.069L813.573 22.08C813.269 24.368 812.821 25.2 812.101 25.2V26.192ZM825.249 26.192C826.657 26.192 827.489 25.616 828.081 24.848L827.281 24.112C826.769 24.8 826.113 25.12 825.313 25.12C823.665 25.12 822.641 23.84 822.641 22.128C822.641 20.416 823.665 19.152 825.313 19.152C826.113 19.152 826.769 19.456 827.281 20.16L828.081 19.424C827.489 18.656 826.657 18.08 825.249 18.08C822.945 18.08 821.393 19.84 821.393 22.128C821.393 24.432 822.945 26.192 825.249 26.192ZM830.914 26L832.803 23.008H834.915V26H836.115V18.272H832.035C830.467 18.272 829.587 19.328 829.587 20.64C829.587 21.936 830.419 22.816 831.571 22.96L829.507 26H830.914ZM832.163 21.952C831.283 21.952 830.819 21.408 830.819 20.64C830.819 19.872 831.315 19.328 832.163 19.328H834.915V21.952H832.163ZM846.974 26C848.398 26 849.23 25.152 849.23 23.904C849.23 23.024 848.606 22.208 847.822 22.016C848.478 21.808 849.07 21.184 849.07 20.256C849.07 19.088 848.254 18.272 846.894 18.272H842.638V26H846.974ZM846.734 24.944H843.838V22.56H846.734C847.55 22.56 847.982 23.136 847.982 23.76C847.982 24.496 847.502 24.944 846.734 24.944ZM846.686 21.504H843.838V19.328H846.686C847.422 19.328 847.838 19.76 847.838 20.432C847.838 21.04 847.438 21.504 846.686 21.504ZM859.43 26.192C861.462 26.192 862.87 24.624 862.87 22.128C862.87 19.616 861.462 18.08 859.43 18.08C858.342 18.08 857.382 18.64 856.822 19.424V18.272H855.622V28.944H856.822V24.832C857.446 25.696 858.374 26.192 859.43 26.192ZM859.126 25.12C858.182 25.12 857.238 24.544 856.822 23.872V20.384C857.238 19.712 858.182 19.152 859.126 19.152C860.678 19.152 861.606 20.416 861.606 22.128C861.606 23.84 860.678 25.12 859.126 25.12ZM870.81 26V20.688C870.81 18.816 869.45 18.08 867.818 18.08C866.554 18.08 865.562 18.496 864.73 19.36L865.29 20.192C865.978 19.456 866.73 19.12 867.658 19.12C868.778 19.12 869.61 19.712 869.61 20.752V22.144C868.986 21.424 868.106 21.088 867.05 21.088C865.738 21.088 864.346 21.904 864.346 23.632C864.346 25.312 865.738 26.192 867.05 26.192C868.09 26.192 868.97 25.824 869.61 25.12V26H870.81ZM867.482 25.328C866.362 25.328 865.578 24.624 865.578 23.648C865.578 22.656 866.362 21.952 867.482 21.952C868.33 21.952 869.146 22.272 869.61 22.912V24.368C869.146 25.008 868.33 25.328 867.482 25.328ZM875.952 26.192C878.176 26.192 879.488 25.232 879.488 23.936C879.488 22.656 878.144 22.112 877.248 22.048C878.16 21.936 879.328 21.312 879.328 20.16C879.328 18.848 877.856 18.08 875.776 18.096C874.368 18.096 873.328 18.592 872.608 19.328L873.232 20.064C873.888 19.392 874.736 19.072 875.824 19.072C877.104 19.072 878.08 19.568 878.08 20.304C878.08 21.184 877.072 21.6 875.792 21.6H874.064V22.576H875.792C877.152 22.576 878.224 22.896 878.224 23.856C878.224 24.672 877.328 25.2 875.952 25.2C874.8 25.2 873.776 24.848 873.056 24.16L872.464 24.928C873.232 25.696 874.4 26.192 875.952 26.192ZM886.842 18.272H881.434V26H882.634V19.328H886.842V18.272ZM891.779 26.192C894.131 26.192 895.603 24.368 895.603 22.128C895.603 19.888 894.131 18.08 891.779 18.08C889.427 18.08 887.955 19.888 887.955 22.128C887.955 24.368 889.427 26.192 891.779 26.192ZM891.779 25.12C890.131 25.12 889.203 23.712 889.203 22.128C889.203 20.56 890.131 19.152 891.779 19.152C893.427 19.152 894.339 20.56 894.339 22.128C894.339 23.712 893.427 25.12 891.779 25.12ZM901.895 26C903.319 26 904.151 25.152 904.151 23.904C904.151 23.024 903.527 22.208 902.743 22.016C903.399 21.808 903.991 21.184 903.991 20.256C903.991 19.088 903.175 18.272 901.815 18.272H897.559V26H901.895ZM901.655 24.944H898.759V22.56H901.655C902.471 22.56 902.903 23.136 902.903 23.76C902.903 24.496 902.423 24.944 901.655 24.944ZM901.607 21.504H898.759V19.328H901.607C902.343 19.328 902.759 19.76 902.759 20.432C902.759 21.04 902.359 21.504 901.607 21.504ZM909.795 26.192C912.147 26.192 913.619 24.368 913.619 22.128C913.619 19.888 912.147 18.08 909.795 18.08C907.443 18.08 905.971 19.888 905.971 22.128C905.971 24.368 907.443 26.192 909.795 26.192ZM909.795 25.12C908.147 25.12 907.219 23.712 907.219 22.128C907.219 20.56 908.147 19.152 909.795 19.152C911.443 19.152 912.355 20.56 912.355 22.128C912.355 23.712 911.443 25.12 909.795 25.12ZM919.383 26.192C921.415 26.192 922.823 24.624 922.823 22.128C922.823 19.616 921.415 18.08 919.383 18.08C918.295 18.08 917.335 18.64 916.775 19.424V18.272H915.575V28.944H916.775V24.832C917.399 25.696 918.327 26.192 919.383 26.192ZM919.079 25.12C918.135 25.12 917.191 24.544 916.775 23.872V20.384C917.191 19.712 918.135 19.152 919.079 19.152C920.631 19.152 921.559 20.416 921.559 22.128C921.559 23.84 920.631 25.12 919.079 25.12ZM928.219 26.192C929.483 26.192 930.523 25.776 931.291 25.008L930.715 24.224C930.107 24.848 929.211 25.2 928.331 25.2C926.667 25.2 925.643 23.984 925.547 22.528H931.803V22.224C931.803 19.904 930.427 18.08 928.091 18.08C925.883 18.08 924.283 19.888 924.283 22.128C924.283 24.544 925.931 26.192 928.219 26.192ZM930.619 21.648H925.547C925.611 20.464 926.427 19.072 928.075 19.072C929.835 19.072 930.603 20.496 930.619 21.648Z" fill="#E1523E"></path> <defs> <filter id="filter0_d" x="1526" y="0" width="185" height="50" filterUnits="userSpaceOnUse" color-interpolation-filters="sRGB"> <feFlood flood-opacity="0" result="BackgroundImageFix"></feFlood> <feColorMatrix in="SourceAlpha" type="matrix" values="0 0 0 0 0 0 0 0 0 0 0 0 0 0 0 0 0 0 127 0"></feColorMatrix> <feOffset dx="4" dy="4"></feOffset> <feGaussianBlur stdDeviation="2"></feGaussianBlur> <feColorMatrix type="matrix" values="0 0 0 0 0.508229 0 0 0 0 0.511998 0 0 0 0 0.5125 0 0 0 0.1 0"></feColorMatrix> <feBlend mode="normal" in2="BackgroundImageFix" result="effect1_dropShadow"></feBlend> <feBlend mode="normal" in="SourceGraphic" in2="effect1_dropShadow" result="shape"></feBlend> </filter> <filter id="filter1_d" x="229" y="0" width="203" height="50" filterUnits="userSpaceOnUse" color-interpolation-filters="sRGB"> <feFlood flood-opacity="0" result="BackgroundImageFix"></feFlood> <feColorMatrix in="SourceAlpha" type="matrix" values="0 0 0 0 0 0 0 0 0 0 0 0 0 0 0 0 0 0 127 0"></feColorMatrix> <feOffset dx="4" dy="4"></feOffset> <feGaussianBlur stdDeviation="2"></feGaussianBlur> <feColorMatrix type="matrix" values="0 0 0 0 0.508229 0 0 0 0 0.511998 0 0 0 0 0.5125 0 0 0 0.1 0"></feColorMatrix> <feBlend mode="normal" in2="BackgroundImageFix" result="effect1_dropShadow"></feBlend> <feBlend mode="normal" in="SourceGraphic" in2="effect1_dropShadow" result="shape"></feBlend> </filter> <filter id="filter2_d" x="2223" y="0" width="255" height="50" filterUnits="userSpaceOnUse" color-interpolation-filters="sRGB"> <feFlood flood-opacity="0" result="BackgroundImageFix"></feFlood> <feColorMatrix in="SourceAlpha" type="matrix" values="0 0 0 0 0 0 0 0 0 0 0 0 0 0 0 0 0 0 127 0"></feColorMatrix> <feOffset dx="4" dy="4"></feOffset> <feGaussianBlur stdDeviation="2"></feGaussianBlur> <feColorMatrix type="matrix" values="0 0 0 0 0.508229 0 0 0 0 0.511998 0 0 0 0 0.5125 0 0 0 0.1 0"></feColorMatrix> <feBlend mode="normal" in2="BackgroundImageFix" result="effect1_dropShadow"></feBlend> <feBlend mode="normal" in="SourceGraphic" in2="effect1_dropShadow" result="shape"></feBlend> </filter> <filter id="filter3_d" x="983" y="0" width="255" height="50" filterUnits="userSpaceOnUse" color-interpolation-filters="sRGB"> <feFlood flood-opacity="0" result="BackgroundImageFix"></feFlood> <feColorMatrix in="SourceAlpha" type="matrix" values="0 0 0 0 0 0 0 0 0 0 0 0 0 0 0 0 0 0 127 0"></feColorMatrix> <feOffset dx="4" dy="4"></feOffset> <feGaussianBlur stdDeviation="2"></feGaussianBlur> <feColorMatrix type="matrix" values="0 0 0 0 0.508229 0 0 0 0 0.511998 0 0 0 0 0.5125 0 0 0 0.1 0"></feColorMatrix> <feBlend mode="normal" in2="BackgroundImageFix" result="effect1_dropShadow"></feBlend> <feBlend mode="normal" in="SourceGraphic" in2="effect1_dropShadow" result="shape"></feBlend> </filter> <filter id="filter4_d" x="1733" y="0" width="187" height="50" filterUnits="userSpaceOnUse" color-interpolation-filters="sRGB"> <feFlood flood-opacity="0" result="BackgroundImageFix"></feFlood> <feColorMatrix in="SourceAlpha" type="matrix" values="0 0 0 0 0 0 0 0 0 0 0 0 0 0 0 0 0 0 127 0"></feColorMatrix> <feOffset dx="4" dy="4"></feOffset> <feGaussianBlur stdDeviation="2"></feGaussianBlur> <feColorMatrix type="matrix" values="0 0 0 0 0.508229 0 0 0 0 0.511998 0 0 0 0 0.5125 0 0 0 0.1 0"></feColorMatrix> <feBlend mode="normal" in2="BackgroundImageFix" result="effect1_dropShadow"></feBlend> <feBlend mode="normal" in="SourceGraphic" in2="effect1_dropShadow" result="shape"></feBlend> </filter> <filter id="filter5_d" x="1260" y="0" width="244" height="50" filterUnits="userSpaceOnUse" color-interpolation-filters="sRGB"> <feFlood flood-opacity="0" result="BackgroundImageFix"></feFlood> <feColorMatrix in="SourceAlpha" type="matrix" values="0 0 0 0 0 0 0 0 0 0 0 0 0 0 0 0 0 0 127 0"></feColorMatrix> <feOffset dx="4" dy="4"></feOffset> <feGaussianBlur stdDeviation="2"></feGaussianBlur> <feColorMatrix type="matrix" values="0 0 0 0 0.508229 0 0 0 0 0.511998 0 0 0 0 0.5125 0 0 0 0.1 0"></feColorMatrix> <feBlend mode="normal" in2="BackgroundImageFix" result="effect1_dropShadow"></feBlend> <feBlend mode="normal" in="SourceGraphic" in2="effect1_dropShadow" result="shape"></feBlend> </filter> <filter id="filter6_d" x="1942" y="0" width="259" height="50" filterUnits="userSpaceOnUse" color-interpolation-filters="sRGB"> <feFlood flood-opacity="0" result="BackgroundImageFix"></feFlood> <feColorMatrix in="SourceAlpha" type="matrix" values="0 0 0 0 0 0 0 0 0 0 0 0 0 0 0 0 0 0 127 0"></feColorMatrix> <feOffset dx="4" dy="4"></feOffset> <feGaussianBlur stdDeviation="2"></feGaussianBlur> <feColorMatrix type="matrix" values="0 0 0 0 0.508229 0 0 0 0 0.511998 0 0 0 0 0.5125 0 0 0 0.1 0"></feColorMatrix> <feBlend mode="normal" in2="BackgroundImageFix" result="effect1_dropShadow"></feBlend> <feBlend mode="normal" in="SourceGraphic" in2="effect1_dropShadow" result="shape"></feBlend> </filter> <filter id="filter7_d" x="0" y="0" width="199" height="50" filterUnits="userSpaceOnUse" color-interpolation-filters="sRGB"> <feFlood flood-opacity="0" result="BackgroundImageFix"></feFlood> <feColorMatrix in="SourceAlpha" type="matrix" values="0 0 0 0 0 0 0 0 0 0 0 0 0 0 0 0 0 0 127 0"></feColorMatrix> <feOffset dx="-4" dy="4"></feOffset> <feGaussianBlur stdDeviation="2"></feGaussianBlur> <feColorMatrix type="matrix" values="0 0 0 0 0.508229 0 0 0 0 0.511998 0 0 0 0 0.5125 0 0 0 0.1 0"></feColorMatrix> <feBlend mode="normal" in2="BackgroundImageFix" result="effect1_dropShadow"></feBlend> <feBlend mode="normal" in="SourceGraphic" in2="effect1_dropShadow" result="shape"></feBlend> </filter> <filter id="filter8_d" x="454" y="0" width="261" height="50" filterUnits="userSpaceOnUse" color-interpolation-filters="sRGB"> <feFlood flood-opacity="0" result="BackgroundImageFix"></feFlood> <feColorMatrix in="SourceAlpha" type="matrix" values="0 0 0 0 0 0 0 0 0 0 0 0 0 0 0 0 0 0 127 0"></feColorMatrix> <feOffset dx="4" dy="4"></feOffset> <feGaussianBlur stdDeviation="2"></feGaussianBlur> <feColorMatrix type="matrix" values="0 0 0 0 0.508229 0 0 0 0 0.511998 0 0 0 0 0.5125 0 0 0 0.1 0"></feColorMatrix> <feBlend mode="normal" in2="BackgroundImageFix" result="effect1_dropShadow"></feBlend> <feBlend mode="normal" in="SourceGraphic" in2="effect1_dropShadow" result="shape"></feBlend> </filter> <filter id="filter9_d" x="729" y="0" width="224" height="50" filterUnits="userSpaceOnUse" color-interpolation-filters="sRGB"> <feFlood flood-opacity="0" result="BackgroundImageFix"></feFlood> <feColorMatrix in="SourceAlpha" type="matrix" values="0 0 0 0 0 0 0 0 0 0 0 0 0 0 0 0 0 0 127 0"></feColorMatrix> <feOffset dx="-4" dy="4"></feOffset> <feGaussianBlur stdDeviation="2"></feGaussianBlur> <feColorMatrix type="matrix" values="0 0 0 0 0.508229 0 0 0 0 0.511998 0 0 0 0 0.5125 0 0 0 0.1 0"></feColorMatrix> <feBlend mode="normal" in2="BackgroundImageFix" result="effect1_dropShadow"></feBlend> <feBlend mode="normal" in="SourceGraphic" in2="effect1_dropShadow" result="shape"></feBlend> </filter> </defs> </svg> 