<?xml version="1.0" encoding="UTF-8"?> <svg xmlns="http://www.w3.org/2000/svg" width="261" height="42" viewBox="0 0 261 42" fill="none"> <path d="M9.272 41H0.894V1.647H9.272V41Z" fill="#39C79A"></path> <path d="M52.3074 41H44.2244L25.4624 15.335V41H17.0844V1.647H25.6984L43.9294 26.368V1.647H52.3074V41ZM74.0499 41.708C67.0485 41.708 61.5025 39.6233 57.4119 35.454L61.9549 29.082C65.3375 32.622 69.5069 34.392 74.4629 34.392C76.6262 34.392 78.2979 33.979 79.4779 33.153C80.6972 32.2877 81.3069 31.2453 81.3069 30.026C81.3069 28.964 80.7365 28.079 79.5959 27.371C78.4945 26.663 77.0982 26.1517 75.4069 25.837C73.7549 25.5223 71.9455 25.07 69.9789 24.48C68.0122 23.89 66.1832 23.2213 64.4919 22.474C62.8399 21.7267 61.4435 20.5467 60.3029 18.934C59.2015 17.3213 58.6509 15.3547 58.6509 13.034C58.6509 9.65133 60.0079 6.81933 62.7219 4.538C65.4359 2.21733 69.0545 1.057 73.5779 1.057C79.8319 1.057 84.9452 2.886 88.9179 6.544L84.2569 12.68C81.1495 9.80866 77.3342 8.373 72.8109 8.373C71.0409 8.373 69.6642 8.727 68.6809 9.435C67.6975 10.143 67.2059 11.1067 67.2059 12.326C67.2059 13.27 67.7565 14.0763 68.8579 14.745C69.9985 15.3743 71.3949 15.8463 73.0469 16.161C74.7382 16.4757 76.5475 16.9477 78.4749 17.577C80.4415 18.167 82.2509 18.8553 83.9029 19.642C85.5942 20.3893 86.9905 21.589 88.0919 23.241C89.2325 24.8537 89.8029 26.8007 89.8029 29.082C89.8029 32.858 88.4459 35.9063 85.7319 38.227C83.0572 40.5477 79.1632 41.708 74.0499 41.708ZM103.822 41H95.4438V1.647H103.822V41ZM130.691 41.767C124.791 41.767 119.816 39.879 115.764 36.103C111.752 32.327 109.746 27.4103 109.746 21.353C109.746 15.2563 111.752 10.3397 115.764 6.603C119.816 2.86633 124.791 0.997998 130.691 0.997998C137.85 0.997998 143.278 3.92833 146.975 9.789L140.013 13.565C139.069 12.0703 137.771 10.851 136.119 9.907C134.507 8.92366 132.697 8.432 130.691 8.432C127.112 8.432 124.162 9.65133 121.841 12.09C119.521 14.5287 118.36 17.6163 118.36 21.353C118.36 25.0897 119.521 28.1773 121.841 30.616C124.162 33.0547 127.112 34.274 130.691 34.274C132.343 34.274 133.936 33.979 135.47 33.389C137.004 32.799 138.204 32.091 139.069 31.265V26.545H128.685V19.229H147.447V34.333C143.003 39.289 137.417 41.767 130.691 41.767ZM189.498 41H181.061V24.48H162.476V41H154.098V1.647H162.476V17.105H181.061V1.647H189.498V41ZM214.776 41H206.339V9.022H194.834V1.647H226.222V9.022H214.776V41ZM245.173 41.708C238.172 41.708 232.626 39.6233 228.535 35.454L233.078 29.082C236.461 32.622 240.63 34.392 245.586 34.392C247.749 34.392 249.421 33.979 250.601 33.153C251.82 32.2877 252.43 31.2453 252.43 30.026C252.43 28.964 251.86 28.079 250.719 27.371C249.618 26.663 248.221 26.1517 246.53 25.837C244.878 25.5223 243.069 25.07 241.102 24.48C239.135 23.89 237.306 23.2213 235.615 22.474C233.963 21.7267 232.567 20.5467 231.426 18.934C230.325 17.3213 229.774 15.3547 229.774 13.034C229.774 9.65133 231.131 6.81933 233.845 4.538C236.559 2.21733 240.178 1.057 244.701 1.057C250.955 1.057 256.068 2.886 260.041 6.544L255.38 12.68C252.273 9.80866 248.457 8.373 243.934 8.373C242.164 8.373 240.787 8.727 239.804 9.435C238.821 10.143 238.329 11.1067 238.329 12.326C238.329 13.27 238.88 14.0763 239.981 14.745C241.122 15.3743 242.518 15.8463 244.17 16.161C245.861 16.4757 247.671 16.9477 249.598 17.577C251.565 18.167 253.374 18.8553 255.026 19.642C256.717 20.3893 258.114 21.589 259.215 23.241C260.356 24.8537 260.926 26.8007 260.926 29.082C260.926 32.858 259.569 35.9063 256.855 38.227C254.18 40.5477 250.286 41.708 245.173 41.708Z" fill="#E7EBEB"></path> </svg> 