<?xml version="1.0" encoding="UTF-8"?> <svg xmlns="http://www.w3.org/2000/svg" width="1306" height="419" viewBox="0 0 1306 419" fill="none"> <path fill-rule="evenodd" clip-rule="evenodd" d="M140.344 39.1781C133.931 33.1026 124.48 32.09 123.13 39.8531C122.117 47.2787 120.43 53.0166 118.067 57.4045C115.367 63.1424 121.78 68.2053 125.83 71.9181C124.818 81.0313 103.216 104.321 93.7652 106.008C89.7149 102.295 84.3145 96.2199 78.9141 99.5952C73.5136 102.633 67.7757 104.658 61.7002 106.008C53.9372 107.696 55.6248 116.809 62.3753 122.884C93.7652 149.211 169.033 68.8803 140.344 39.1781ZM99.1656 58.417C96.8029 58.417 97.1404 55.0418 99.1656 54.7043L110.304 54.3667C112.667 54.3667 112.329 57.742 109.966 58.0795L99.1656 58.417ZM110.641 30.4024C108.616 29.3898 110.304 26.0146 112.329 27.0272L119.08 33.1026C121.105 34.1152 119.417 37.1529 117.392 36.1404L110.641 30.4024ZM98.8281 41.5408C96.8029 40.5282 98.4905 37.1529 100.516 38.1655L111.317 42.5533C113.342 43.5659 111.654 46.9412 109.629 45.9286L98.8281 41.5408Z" fill="#D6E8E8"></path> <g filter="url(#filter0_d)"> <path d="M20 47.5334C20 30.6703 33.6703 17 50.5334 17C67.3965 17 81.0668 30.6703 81.0668 47.5334C81.0668 64.3965 67.3965 78.0668 50.5334 78.0668C33.6703 78.0668 20 64.3965 20 47.5334Z" fill="white"></path> <path d="M69.896 69.8752L77.7155 60.9386L94.4716 78.067H53.5122L69.896 69.8752Z" fill="white"></path> </g> <path d="M67.8634 40.008C65.1932 32.9857 58.2405 33.2258 54.0713 35.7249L50.8685 42.3038L56.7982 41.7635L50.6921 49.4328L55.7139 48.1797L52.5652 60.3548L51.5864 52.1184L44.5199 53.6005L49.9248 45.1817L45.2647 44.5179L48.4705 37.3119C44.6552 33.5877 34.7839 32.9006 32.856 41.8317C30.5599 52.4699 49.1491 59.075 52.4729 60.8968L52.4663 60.9382L52.5057 60.9132C52.5194 60.9213 52.5384 60.9306 52.5521 60.9382L52.5533 60.8829C57.578 57.717 71.2903 49.0173 67.8634 40.008Z" fill="#E1523E"></path> <path fill-rule="evenodd" clip-rule="evenodd" d="M800.344 39.1781C793.931 33.1026 784.48 32.09 783.13 39.8531C782.117 47.2787 780.43 53.0166 778.067 57.4045C775.367 63.1424 781.78 68.2053 785.83 71.9181C784.818 81.0313 763.216 104.321 753.765 106.008C749.715 102.295 744.314 96.2199 738.914 99.5952C733.514 102.633 727.776 104.658 721.7 106.008C713.937 107.696 715.625 116.809 722.375 122.884C753.765 149.211 829.033 68.8803 800.344 39.1781ZM759.166 58.417C756.803 58.417 757.14 55.0418 759.166 54.7043L770.304 54.3667C772.667 54.3667 772.329 57.742 769.966 58.0795L759.166 58.417ZM770.641 30.4024C768.616 29.3898 770.304 26.0146 772.329 27.0272L779.08 33.1026C781.105 34.1152 779.417 37.1529 777.392 36.1404L770.641 30.4024ZM758.828 41.5408C756.803 40.5282 758.491 37.1529 760.516 38.1655L771.317 42.5533C773.342 43.5659 771.654 46.9412 769.629 45.9286L758.828 41.5408Z" fill="#D6E8E8"></path> <g filter="url(#filter1_d)"> <path d="M680 47.5334C680 30.6703 693.67 17 710.533 17C727.397 17 741.067 30.6703 741.067 47.5334C741.067 64.3965 727.397 78.0668 710.533 78.0668C693.67 78.0668 680 64.3965 680 47.5334Z" fill="white"></path> <path d="M729.896 69.8752L737.716 60.9386L754.472 78.067H713.512L729.896 69.8752Z" fill="white"></path> </g> <path d="M727.863 40.008C725.193 32.9857 718.241 33.2258 714.071 35.7249L710.868 42.3038L716.798 41.7635L710.692 49.4328L715.714 48.1797L712.565 60.3548L711.586 52.1184L704.52 53.6005L709.925 45.1817L705.265 44.5179L708.471 37.3119C704.655 33.5877 694.784 32.9006 692.856 41.8317C690.56 52.4699 709.149 59.075 712.473 60.8968L712.466 60.9382L712.506 60.9132C712.519 60.9213 712.538 60.9306 712.552 60.9382L712.553 60.8829C717.578 57.717 731.29 49.0173 727.863 40.008Z" fill="#E1523E"></path> <path fill-rule="evenodd" clip-rule="evenodd" d="M309.383 39.1781C302.97 33.1026 293.519 32.09 292.169 39.8531C291.156 47.2787 289.469 53.0166 287.106 57.4045C284.406 63.1424 290.819 68.2053 294.869 71.9181C293.857 81.0313 272.255 104.321 262.804 106.008C258.754 102.295 253.354 96.2199 247.953 99.5952C242.553 102.633 236.815 104.658 230.739 106.008C222.976 107.696 224.664 116.809 231.414 122.884C262.804 149.211 338.072 68.8803 309.383 39.1781ZM268.205 58.417C265.842 58.417 266.18 55.0418 268.205 54.7043L279.343 54.3667C281.706 54.3667 281.368 57.742 279.005 58.0795L268.205 58.417ZM279.681 30.4024C277.655 29.3898 279.343 26.0146 281.368 27.0272L288.119 33.1026C290.144 34.1152 288.456 37.1529 286.431 36.1404L279.681 30.4024ZM267.867 41.5408C265.842 40.5282 267.53 37.1529 269.555 38.1655L280.356 42.5533C282.381 43.5659 280.693 46.9412 278.668 45.9286L267.867 41.5408Z" fill="#D6E8E8"></path> <g filter="url(#filter2_d)"> <path d="M180.988 47.5334C180.988 30.6703 194.659 17 211.522 17C228.385 17 242.055 30.6703 242.055 47.5334C242.055 64.3965 228.385 78.0668 211.522 78.0668C194.659 78.0668 180.988 64.3965 180.988 47.5334Z" fill="white"></path> <path d="M230.884 69.8752L238.704 60.9386L255.46 78.067H214.501L230.884 69.8752Z" fill="white"></path> </g> <path d="M227.111 38.7438C226.603 37.5492 225.87 36.4666 224.953 35.5568C224.036 34.6442 222.954 33.919 221.767 33.4205C220.536 32.9017 219.216 32.6361 217.883 32.6392C216.013 32.6392 214.189 33.1588 212.603 34.1403C212.224 34.3751 211.864 34.633 211.522 34.914C211.181 34.633 210.821 34.3751 210.441 34.1403C208.856 33.1588 207.031 32.6392 205.162 32.6392C203.815 32.6392 202.51 32.9009 201.278 33.4205C200.087 33.9209 199.013 34.6407 198.091 35.5568C197.174 36.4656 196.44 37.5484 195.933 38.7438C195.406 39.987 195.137 41.3072 195.137 42.6659C195.137 43.9477 195.395 45.2833 195.907 46.642C196.335 47.7774 196.95 48.9552 197.735 50.1446C198.979 52.0268 200.69 53.9898 202.814 55.9797C206.334 59.2784 209.819 61.557 209.967 61.6494L210.866 62.2344C211.264 62.4923 211.776 62.4923 212.175 62.2344L213.074 61.6494C213.222 61.5531 216.704 59.2784 220.227 55.9797C222.351 53.9898 224.062 52.0268 225.306 50.1446C226.091 48.9552 226.709 47.7774 227.134 46.642C227.646 45.2833 227.904 43.9477 227.904 42.6659C227.908 41.3072 227.639 39.987 227.111 38.7438V38.7438Z" fill="#4BC197"></path> <path fill-rule="evenodd" clip-rule="evenodd" d="M969.383 39.1781C962.97 33.1026 953.519 32.09 952.169 39.8531C951.156 47.2787 949.469 53.0166 947.106 57.4045C944.406 63.1424 950.819 68.2053 954.869 71.9181C953.857 81.0313 932.255 104.321 922.804 106.008C918.754 102.295 913.354 96.2199 907.953 99.5952C902.553 102.633 896.815 104.658 890.739 106.008C882.976 107.696 884.664 116.809 891.414 122.884C922.804 149.211 998.072 68.8803 969.383 39.1781ZM928.205 58.417C925.842 58.417 926.18 55.0418 928.205 54.7043L939.343 54.3667C941.706 54.3667 941.368 57.742 939.005 58.0795L928.205 58.417ZM939.681 30.4024C937.655 29.3898 939.343 26.0146 941.368 27.0272L948.119 33.1026C950.144 34.1152 948.456 37.1529 946.431 36.1404L939.681 30.4024ZM927.867 41.5408C925.842 40.5282 927.53 37.1529 929.555 38.1655L940.356 42.5533C942.381 43.5659 940.693 46.9412 938.668 45.9286L927.867 41.5408Z" fill="#D6E8E8"></path> <g filter="url(#filter3_d)"> <path d="M840.988 47.5334C840.988 30.6703 854.659 17 871.522 17C888.385 17 902.055 30.6703 902.055 47.5334C902.055 64.3965 888.385 78.0668 871.522 78.0668C854.659 78.0668 840.988 64.3965 840.988 47.5334Z" fill="white"></path> <path d="M890.884 69.8752L898.704 60.9386L915.46 78.067H874.501L890.884 69.8752Z" fill="white"></path> </g> <path d="M887.111 38.7438C886.603 37.5492 885.87 36.4666 884.953 35.5568C884.036 34.6442 882.954 33.919 881.767 33.4205C880.536 32.9017 879.216 32.6361 877.883 32.6392C876.013 32.6392 874.189 33.1588 872.603 34.1403C872.224 34.3751 871.864 34.633 871.522 34.914C871.181 34.633 870.821 34.3751 870.441 34.1403C868.856 33.1588 867.031 32.6392 865.162 32.6392C863.815 32.6392 862.51 32.9009 861.278 33.4205C860.087 33.9209 859.013 34.6407 858.091 35.5568C857.174 36.4656 856.44 37.5484 855.933 38.7438C855.406 39.987 855.137 41.3072 855.137 42.6659C855.137 43.9477 855.395 45.2833 855.907 46.642C856.335 47.7774 856.95 48.9552 857.735 50.1446C858.979 52.0268 860.69 53.9898 862.814 55.9797C866.334 59.2784 869.819 61.557 869.967 61.6494L870.866 62.2344C871.264 62.4923 871.776 62.4923 872.175 62.2344L873.074 61.6494C873.222 61.5531 876.704 59.2784 880.227 55.9797C882.351 53.9898 884.062 52.0268 885.306 50.1446C886.091 48.9552 886.709 47.7774 887.134 46.642C887.646 45.2833 887.904 43.9477 887.904 42.6659C887.908 41.3072 887.639 39.987 887.111 38.7438V38.7438Z" fill="#4BC197"></path> <path fill-rule="evenodd" clip-rule="evenodd" d="M478.418 39.1781C472.005 33.1026 462.554 32.09 461.204 39.8531C460.192 47.2787 458.504 53.0166 456.141 57.4045C453.441 63.1424 459.854 68.2053 463.904 71.9181C462.892 81.0313 441.29 104.321 431.839 106.008C427.789 102.295 422.389 96.2199 416.988 99.5952C411.588 102.633 405.85 104.658 399.774 106.008C392.011 107.696 393.699 116.809 400.45 122.884C431.839 149.211 507.108 68.8803 478.418 39.1781ZM437.24 58.417C434.877 58.417 435.215 55.0418 437.24 54.7043L448.378 54.3667C450.741 54.3667 450.403 57.742 448.041 58.0795L437.24 58.417ZM448.716 30.4024C446.691 29.3898 448.378 26.0146 450.403 27.0272L457.154 33.1026C459.179 34.1152 457.491 37.1529 455.466 36.1404L448.716 30.4024ZM436.902 41.5408C434.877 40.5282 436.565 37.1529 438.59 38.1655L449.391 42.5533C451.416 43.5659 449.728 46.9412 447.703 45.9286L436.902 41.5408Z" fill="#D6E8E8"></path> <g filter="url(#filter4_d)"> <path d="M350.023 47.5334C350.023 30.6703 363.694 17 380.557 17C397.42 17 411.09 30.6703 411.09 47.5334C411.09 64.3965 397.42 78.0668 380.557 78.0668C363.694 78.0668 350.023 64.3965 350.023 47.5334Z" fill="white"></path> <path d="M399.92 69.8752L407.739 60.9386L424.495 78.067H383.536L399.92 69.8752Z" fill="white"></path> </g> <path d="M396.147 38.7438C395.638 37.5492 394.905 36.4666 393.988 35.5568C393.071 34.6442 391.989 33.919 390.802 33.4205C389.571 32.9017 388.251 32.6361 386.918 32.6392C385.048 32.6392 383.224 33.1588 381.639 34.1403C381.259 34.3751 380.899 34.633 380.558 34.914C380.216 34.633 379.856 34.3751 379.477 34.1403C377.891 33.1588 376.067 32.6392 374.197 32.6392C372.85 32.6392 371.545 32.9009 370.313 33.4205C369.122 33.9209 368.048 34.6407 367.127 35.5568C366.209 36.4656 365.475 37.5484 364.968 38.7438C364.441 39.987 364.172 41.3072 364.172 42.6659C364.172 43.9477 364.43 45.2833 364.942 46.642C365.37 47.7774 365.985 48.9552 366.77 50.1446C368.014 52.0268 369.725 53.9898 371.849 55.9797C375.369 59.2784 378.854 61.557 379.002 61.6494L379.901 62.2344C380.3 62.4923 380.812 62.4923 381.21 62.2344L382.109 61.6494C382.257 61.5531 385.739 59.2784 389.262 55.9797C391.386 53.9898 393.097 52.0268 394.341 50.1446C395.126 48.9552 395.745 47.7774 396.169 46.642C396.681 45.2833 396.939 43.9477 396.939 42.6659C396.943 41.3072 396.674 39.987 396.147 38.7438V38.7438Z" fill="#4BC197"></path> <path fill-rule="evenodd" clip-rule="evenodd" d="M1138.42 39.1781C1132 33.1026 1122.55 32.09 1121.2 39.8531C1120.19 47.2787 1118.5 53.0166 1116.14 57.4045C1113.44 63.1424 1119.85 68.2053 1123.9 71.9181C1122.89 81.0313 1101.29 104.321 1091.84 106.008C1087.79 102.295 1082.39 96.2199 1076.99 99.5952C1071.59 102.633 1065.85 104.658 1059.77 106.008C1052.01 107.696 1053.7 116.809 1060.45 122.884C1091.84 149.211 1167.11 68.8803 1138.42 39.1781ZM1097.24 58.417C1094.88 58.417 1095.21 55.0418 1097.24 54.7043L1108.38 54.3667C1110.74 54.3667 1110.4 57.742 1108.04 58.0795L1097.24 58.417ZM1108.72 30.4024C1106.69 29.3898 1108.38 26.0146 1110.4 27.0272L1117.15 33.1026C1119.18 34.1152 1117.49 37.1529 1115.47 36.1404L1108.72 30.4024ZM1096.9 41.5408C1094.88 40.5282 1096.56 37.1529 1098.59 38.1655L1109.39 42.5533C1111.42 43.5659 1109.73 46.9412 1107.7 45.9286L1096.9 41.5408Z" fill="#D6E8E8"></path> <g filter="url(#filter5_d)"> <path d="M1010.02 47.5334C1010.02 30.6703 1023.69 17 1040.56 17C1057.42 17 1071.09 30.6703 1071.09 47.5334C1071.09 64.3965 1057.42 78.0668 1040.56 78.0668C1023.69 78.0668 1010.02 64.3965 1010.02 47.5334Z" fill="white"></path> <path d="M1059.92 69.8752L1067.74 60.9386L1084.5 78.067H1043.54L1059.92 69.8752Z" fill="white"></path> </g> <path d="M1056.15 38.7438C1055.64 37.5492 1054.91 36.4666 1053.99 35.5568C1053.07 34.6442 1051.99 33.919 1050.8 33.4205C1049.57 32.9017 1048.25 32.6361 1046.92 32.6392C1045.05 32.6392 1043.22 33.1588 1041.64 34.1403C1041.26 34.3751 1040.9 34.633 1040.56 34.914C1040.22 34.633 1039.86 34.3751 1039.48 34.1403C1037.89 33.1588 1036.07 32.6392 1034.2 32.6392C1032.85 32.6392 1031.55 32.9009 1030.31 33.4205C1029.12 33.9209 1028.05 34.6407 1027.13 35.5568C1026.21 36.4656 1025.48 37.5484 1024.97 38.7438C1024.44 39.987 1024.17 41.3072 1024.17 42.6659C1024.17 43.9477 1024.43 45.2833 1024.94 46.642C1025.37 47.7774 1025.98 48.9552 1026.77 50.1446C1028.01 52.0268 1029.72 53.9898 1031.85 55.9797C1035.37 59.2784 1038.85 61.557 1039 61.6494L1039.9 62.2344C1040.3 62.4923 1040.81 62.4923 1041.21 62.2344L1042.11 61.6494C1042.26 61.5531 1045.74 59.2784 1049.26 55.9797C1051.39 53.9898 1053.1 52.0268 1054.34 50.1446C1055.13 48.9552 1055.74 47.7774 1056.17 46.642C1056.68 45.2833 1056.94 43.9477 1056.94 42.6659C1056.94 41.3072 1056.67 39.987 1056.15 38.7438V38.7438Z" fill="#4BC197"></path> <path fill-rule="evenodd" clip-rule="evenodd" d="M639.402 39.1781C632.989 33.1026 623.539 32.09 622.189 39.8531C621.176 47.2787 619.488 53.0166 617.126 57.4045C614.425 63.1424 620.838 68.2053 624.889 71.9181C623.876 81.0313 602.274 104.321 592.824 106.008C588.773 102.295 583.373 96.2199 577.973 99.5952C572.572 102.633 566.834 104.658 560.759 106.008C552.996 107.696 554.683 116.809 561.434 122.884C592.824 149.211 668.092 68.8803 639.402 39.1781ZM598.224 58.417C595.862 58.417 596.199 55.0418 598.224 54.7043L609.363 54.3667C611.725 54.3667 611.388 57.742 609.025 58.0795L598.224 58.417ZM609.7 30.4024C607.675 29.3898 609.363 26.0146 611.388 27.0272L618.138 33.1026C620.163 34.1152 618.476 37.1529 616.451 36.1404L609.7 30.4024ZM597.887 41.5408C595.862 40.5282 597.549 37.1529 599.574 38.1655L610.375 42.5533C612.4 43.5659 610.713 46.9412 608.687 45.9286L597.887 41.5408Z" fill="#D6E8E8"></path> <g filter="url(#filter6_d)"> <path d="M519.059 47.5334C519.059 30.6703 532.729 17 549.592 17C566.455 17 580.125 30.6703 580.125 47.5334C580.125 64.3965 566.455 78.0668 549.592 78.0668C532.729 78.0668 519.059 64.3965 519.059 47.5334Z" fill="white"></path> <path d="M568.955 69.8752L576.774 60.9386L593.53 78.067H552.571L568.955 69.8752Z" fill="white"></path> </g> <path d="M566.922 40.008C564.252 32.9857 557.299 33.2258 553.13 35.7249L549.927 42.3038L555.857 41.7635L549.751 49.4328L554.772 48.1797L551.624 60.3548L550.645 52.1184L543.579 53.6005L548.983 45.1817L544.323 44.5179L547.529 37.3119C543.714 33.5877 533.842 32.9006 531.915 41.8317C529.618 52.4699 548.208 59.075 551.531 60.8968L551.525 60.9382L551.564 60.9132C551.578 60.9213 551.597 60.9306 551.611 60.9382L551.612 60.8829C556.637 57.717 570.349 49.0173 566.922 40.008Z" fill="#E1523E"></path> <path fill-rule="evenodd" clip-rule="evenodd" d="M1299.4 39.1781C1292.99 33.1026 1283.54 32.09 1282.19 39.8531C1281.18 47.2787 1279.49 53.0166 1277.13 57.4045C1274.43 63.1424 1280.84 68.2053 1284.89 71.9181C1283.88 81.0313 1262.27 104.321 1252.82 106.008C1248.77 102.295 1243.37 96.2199 1237.97 99.5952C1232.57 102.633 1226.83 104.658 1220.76 106.008C1213 107.696 1214.68 116.809 1221.43 122.884C1252.82 149.211 1328.09 68.8803 1299.4 39.1781ZM1258.22 58.417C1255.86 58.417 1256.2 55.0418 1258.22 54.7043L1269.36 54.3667C1271.73 54.3667 1271.39 57.742 1269.03 58.0795L1258.22 58.417ZM1269.7 30.4024C1267.67 29.3898 1269.36 26.0146 1271.39 27.0272L1278.14 33.1026C1280.16 34.1152 1278.48 37.1529 1276.45 36.1404L1269.7 30.4024ZM1257.89 41.5408C1255.86 40.5282 1257.55 37.1529 1259.57 38.1655L1270.38 42.5533C1272.4 43.5659 1270.71 46.9412 1268.69 45.9286L1257.89 41.5408Z" fill="#D6E8E8"></path> <g filter="url(#filter7_d)"> <path d="M1179.06 47.5334C1179.06 30.6703 1192.73 17 1209.59 17C1226.46 17 1240.13 30.6703 1240.13 47.5334C1240.13 64.3965 1226.46 78.0668 1209.59 78.0668C1192.73 78.0668 1179.06 64.3965 1179.06 47.5334Z" fill="white"></path> <path d="M1228.95 69.8752L1236.77 60.9386L1253.53 78.067H1212.57L1228.95 69.8752Z" fill="white"></path> </g> <path d="M1226.92 40.008C1224.25 32.9857 1217.3 33.2258 1213.13 35.7249L1209.93 42.3038L1215.86 41.7635L1209.75 49.4328L1214.77 48.1797L1211.62 60.3548L1210.64 52.1184L1203.58 53.6005L1208.98 45.1817L1204.32 44.5179L1207.53 37.3119C1203.71 33.5877 1193.84 32.9006 1191.91 41.8317C1189.62 52.4699 1208.21 59.075 1211.53 60.8968L1211.52 60.9382L1211.56 60.9132C1211.58 60.9213 1211.6 60.9306 1211.61 60.9382L1211.61 60.8829C1216.64 57.717 1230.35 49.0173 1226.92 40.008Z" fill="#E1523E"></path> <path fill-rule="evenodd" clip-rule="evenodd" d="M148.395 184.526C141.982 178.451 132.531 177.438 131.181 185.201C130.168 192.627 128.48 198.365 126.118 202.753C123.418 208.491 129.831 213.553 133.881 217.266C132.868 226.379 111.267 249.669 101.816 251.356C97.7657 247.644 92.3652 241.568 86.9648 244.943C81.5644 247.981 75.8265 250.006 69.751 251.356C61.9879 253.044 63.6756 262.157 70.4261 268.233C101.816 294.56 177.084 214.228 148.395 184.526ZM107.216 203.765C104.854 203.765 105.191 200.39 107.216 200.052L118.355 199.715C120.717 199.715 120.38 203.09 118.017 203.428L107.216 203.765ZM118.692 175.751C116.667 174.738 118.355 171.363 120.38 172.375L127.13 178.451C129.156 179.463 127.468 182.501 125.443 181.488L118.692 175.751ZM106.879 186.889C104.854 185.876 106.541 182.501 108.566 183.514L119.367 187.901C121.392 188.914 119.705 192.289 117.68 191.277L106.879 186.889Z" fill="#D6E8E8"></path> <g filter="url(#filter8_d)"> <path d="M20 192.882C20 176.018 33.6703 162.348 50.5334 162.348C67.3965 162.348 81.0668 176.018 81.0668 192.882C81.0668 209.745 67.3965 223.415 50.5334 223.415C33.6703 223.415 20 209.745 20 192.882Z" fill="white"></path> <path d="M69.8961 215.223L77.7156 206.287L94.4717 223.415H53.5123L69.8961 215.223Z" fill="white"></path> </g> <path d="M66.1232 184.092C65.6148 182.897 64.8817 181.815 63.965 180.905C63.0476 179.992 61.966 179.267 60.7789 178.769C59.548 178.25 58.2278 177.984 56.8949 177.987C55.025 177.987 53.2005 178.507 51.6151 179.488C51.2358 179.723 50.8755 179.981 50.5341 180.262C50.1927 179.981 49.8324 179.723 49.4531 179.488C47.8676 178.507 46.0432 177.987 44.1733 177.987C42.8268 177.987 41.522 178.249 40.2893 178.769C39.0983 179.269 38.0249 179.989 37.1032 180.905C36.1853 181.814 35.452 182.897 34.945 184.092C34.4177 185.335 34.1484 186.655 34.1484 188.014C34.1484 189.296 34.4064 190.631 34.9184 191.99C35.347 193.126 35.9615 194.303 36.7466 195.493C37.9907 197.375 39.7014 199.338 41.8254 201.328C45.3453 204.627 48.831 206.905 48.979 206.998L49.8779 207.583C50.2762 207.84 50.7882 207.84 51.1865 207.583L52.0854 206.998C52.2333 206.901 55.7153 204.627 59.239 201.328C61.363 199.338 63.0737 197.375 64.3178 195.493C65.1029 194.303 65.7211 193.126 66.146 191.99C66.658 190.631 66.9159 189.296 66.9159 188.014C66.9197 186.655 66.6504 185.335 66.1232 184.092V184.092Z" fill="#4BC197"></path> <path fill-rule="evenodd" clip-rule="evenodd" d="M808.395 184.526C801.982 178.451 792.531 177.438 791.181 185.201C790.168 192.627 788.48 198.365 786.118 202.753C783.418 208.491 789.831 213.553 793.881 217.266C792.868 226.379 771.267 249.669 761.816 251.356C757.766 247.644 752.365 241.568 746.965 244.943C741.564 247.981 735.826 250.006 729.751 251.356C721.988 253.044 723.676 262.157 730.426 268.233C761.816 294.56 837.084 214.228 808.395 184.526ZM767.216 203.765C764.854 203.765 765.191 200.39 767.216 200.052L778.355 199.715C780.717 199.715 780.38 203.09 778.017 203.428L767.216 203.765ZM778.692 175.751C776.667 174.738 778.355 171.363 780.38 172.375L787.13 178.451C789.156 179.463 787.468 182.501 785.443 181.488L778.692 175.751ZM766.879 186.889C764.854 185.876 766.541 182.501 768.566 183.514L779.367 187.901C781.392 188.914 779.705 192.289 777.68 191.277L766.879 186.889Z" fill="#D6E8E8"></path> <g filter="url(#filter9_d)"> <path d="M680 192.882C680 176.018 693.67 162.348 710.533 162.348C727.397 162.348 741.067 176.018 741.067 192.882C741.067 209.745 727.397 223.415 710.533 223.415C693.67 223.415 680 209.745 680 192.882Z" fill="white"></path> <path d="M729.896 215.223L737.716 206.287L754.472 223.415H713.512L729.896 215.223Z" fill="white"></path> </g> <path d="M726.123 184.092C725.615 182.897 724.882 181.815 723.965 180.905C723.048 179.992 721.966 179.267 720.779 178.769C719.548 178.25 718.228 177.984 716.895 177.987C715.025 177.987 713.201 178.507 711.615 179.488C711.236 179.723 710.875 179.981 710.534 180.262C710.193 179.981 709.832 179.723 709.453 179.488C707.868 178.507 706.043 177.987 704.173 177.987C702.827 177.987 701.522 178.249 700.289 178.769C699.098 179.269 698.025 179.989 697.103 180.905C696.185 181.814 695.452 182.897 694.945 184.092C694.418 185.335 694.148 186.655 694.148 188.014C694.148 189.296 694.406 190.631 694.918 191.99C695.347 193.126 695.961 194.303 696.747 195.493C697.991 197.375 699.701 199.338 701.825 201.328C705.345 204.627 708.831 206.905 708.979 206.998L709.878 207.583C710.276 207.84 710.788 207.84 711.186 207.583L712.085 206.998C712.233 206.901 715.715 204.627 719.239 201.328C721.363 199.338 723.074 197.375 724.318 195.493C725.103 194.303 725.721 193.126 726.146 191.99C726.658 190.631 726.916 189.296 726.916 188.014C726.92 186.655 726.65 185.335 726.123 184.092V184.092Z" fill="#4BC197"></path> <path fill-rule="evenodd" clip-rule="evenodd" d="M478.418 184.526C472.005 178.451 462.554 177.438 461.204 185.201C460.192 192.627 458.504 198.365 456.141 202.753C453.441 208.491 459.854 213.553 463.904 217.266C462.892 226.379 441.29 249.669 431.839 251.356C427.789 247.644 422.389 241.568 416.988 244.943C411.588 247.981 405.85 250.006 399.774 251.356C392.011 253.044 393.699 262.157 400.45 268.233C431.839 294.56 507.108 214.228 478.418 184.526ZM437.24 203.765C434.877 203.765 435.215 200.39 437.24 200.052L448.378 199.715C450.741 199.715 450.403 203.09 448.041 203.428L437.24 203.765ZM448.716 175.751C446.691 174.738 448.378 171.363 450.403 172.375L457.154 178.451C459.179 179.463 457.491 182.501 455.466 181.488L448.716 175.751ZM436.902 186.889C434.877 185.876 436.565 182.501 438.59 183.514L449.391 187.901C451.416 188.914 449.728 192.289 447.703 191.277L436.902 186.889Z" fill="#D6E8E8"></path> <g filter="url(#filter10_d)"> <path d="M350.023 192.882C350.023 176.018 363.694 162.348 380.557 162.348C397.42 162.348 411.09 176.018 411.09 192.882C411.09 209.745 397.42 223.415 380.557 223.415C363.694 223.415 350.023 209.745 350.023 192.882Z" fill="white"></path> <path d="M399.92 215.223L407.739 206.287L424.495 223.415H383.536L399.92 215.223Z" fill="white"></path> </g> <path d="M396.147 184.092C395.638 182.897 394.905 181.815 393.988 180.905C393.071 179.992 391.989 179.267 390.802 178.769C389.571 178.25 388.251 177.984 386.918 177.987C385.048 177.987 383.224 178.507 381.639 179.488C381.259 179.723 380.899 179.981 380.558 180.262C380.216 179.981 379.856 179.723 379.477 179.488C377.891 178.507 376.067 177.987 374.197 177.987C372.85 177.987 371.545 178.249 370.313 178.769C369.122 179.269 368.048 179.989 367.127 180.905C366.209 181.814 365.475 182.897 364.968 184.092C364.441 185.335 364.172 186.655 364.172 188.014C364.172 189.296 364.43 190.631 364.942 191.99C365.37 193.126 365.985 194.303 366.77 195.493C368.014 197.375 369.725 199.338 371.849 201.328C375.369 204.627 378.854 206.905 379.002 206.998L379.901 207.583C380.3 207.84 380.812 207.84 381.21 207.583L382.109 206.998C382.257 206.901 385.739 204.627 389.262 201.328C391.386 199.338 393.097 197.375 394.341 195.493C395.126 194.303 395.745 193.126 396.169 191.99C396.681 190.631 396.939 189.296 396.939 188.014C396.943 186.655 396.674 185.335 396.147 184.092V184.092Z" fill="#4BC197"></path> <path fill-rule="evenodd" clip-rule="evenodd" d="M1138.42 184.526C1132 178.451 1122.55 177.438 1121.2 185.201C1120.19 192.627 1118.5 198.365 1116.14 202.753C1113.44 208.491 1119.85 213.553 1123.9 217.266C1122.89 226.379 1101.29 249.669 1091.84 251.356C1087.79 247.644 1082.39 241.568 1076.99 244.943C1071.59 247.981 1065.85 250.006 1059.77 251.356C1052.01 253.044 1053.7 262.157 1060.45 268.233C1091.84 294.56 1167.11 214.228 1138.42 184.526ZM1097.24 203.765C1094.88 203.765 1095.21 200.39 1097.24 200.052L1108.38 199.715C1110.74 199.715 1110.4 203.09 1108.04 203.428L1097.24 203.765ZM1108.72 175.751C1106.69 174.738 1108.38 171.363 1110.4 172.375L1117.15 178.451C1119.18 179.463 1117.49 182.501 1115.47 181.488L1108.72 175.751ZM1096.9 186.889C1094.88 185.876 1096.56 182.501 1098.59 183.514L1109.39 187.901C1111.42 188.914 1109.73 192.289 1107.7 191.277L1096.9 186.889Z" fill="#D6E8E8"></path> <g filter="url(#filter11_d)"> <path d="M1010.02 192.882C1010.02 176.018 1023.69 162.348 1040.56 162.348C1057.42 162.348 1071.09 176.018 1071.09 192.882C1071.09 209.745 1057.42 223.415 1040.56 223.415C1023.69 223.415 1010.02 209.745 1010.02 192.882Z" fill="white"></path> <path d="M1059.92 215.223L1067.74 206.287L1084.5 223.415H1043.54L1059.92 215.223Z" fill="white"></path> </g> <path d="M1056.15 184.092C1055.64 182.897 1054.91 181.815 1053.99 180.905C1053.07 179.992 1051.99 179.267 1050.8 178.769C1049.57 178.25 1048.25 177.984 1046.92 177.987C1045.05 177.987 1043.22 178.507 1041.64 179.488C1041.26 179.723 1040.9 179.981 1040.56 180.262C1040.22 179.981 1039.86 179.723 1039.48 179.488C1037.89 178.507 1036.07 177.987 1034.2 177.987C1032.85 177.987 1031.55 178.249 1030.31 178.769C1029.12 179.269 1028.05 179.989 1027.13 180.905C1026.21 181.814 1025.48 182.897 1024.97 184.092C1024.44 185.335 1024.17 186.655 1024.17 188.014C1024.17 189.296 1024.43 190.631 1024.94 191.99C1025.37 193.126 1025.98 194.303 1026.77 195.493C1028.01 197.375 1029.72 199.338 1031.85 201.328C1035.37 204.627 1038.85 206.905 1039 206.998L1039.9 207.583C1040.3 207.84 1040.81 207.84 1041.21 207.583L1042.11 206.998C1042.26 206.901 1045.74 204.627 1049.26 201.328C1051.39 199.338 1053.1 197.375 1054.34 195.493C1055.13 194.303 1055.74 193.126 1056.17 191.99C1056.68 190.631 1056.94 189.296 1056.94 188.014C1056.94 186.655 1056.67 185.335 1056.15 184.092V184.092Z" fill="#4BC197"></path> <path fill-rule="evenodd" clip-rule="evenodd" d="M309.379 184.526C302.966 178.451 293.515 177.438 292.165 185.201C291.152 192.627 289.465 198.365 287.102 202.753C284.402 208.491 290.815 213.553 294.865 217.266C293.853 226.379 272.251 249.669 262.8 251.356C258.75 247.644 253.35 241.568 247.949 244.943C242.549 247.981 236.811 250.006 230.735 251.356C222.972 253.044 224.66 262.157 231.41 268.233C262.8 294.56 338.069 214.228 309.379 184.526ZM268.201 203.765C265.838 203.765 266.176 200.39 268.201 200.052L279.339 199.715C281.702 199.715 281.364 203.09 279.002 203.428L268.201 203.765ZM279.677 175.751C277.651 174.738 279.339 171.363 281.364 172.375L288.115 178.451C290.14 179.463 288.452 182.501 286.427 181.488L279.677 175.751ZM267.863 186.889C265.838 185.876 267.526 182.501 269.551 183.514L280.352 187.901C282.377 188.914 280.689 192.289 278.664 191.277L267.863 186.889Z" fill="#D6E8E8"></path> <g filter="url(#filter12_d)"> <path d="M189.035 192.882C189.035 176.018 202.705 162.348 219.569 162.348C236.432 162.348 250.102 176.018 250.102 192.882C250.102 209.745 236.432 223.415 219.569 223.415C202.705 223.415 189.035 209.745 189.035 192.882Z" fill="white"></path> <path d="M238.931 215.223L246.751 206.287L263.507 223.415H222.547L238.931 215.223Z" fill="white"></path> </g> <path d="M236.899 185.356C234.228 178.334 227.276 178.574 223.106 181.073L219.904 187.652L225.833 187.112L219.727 194.781L224.749 193.528L221.6 205.703L220.622 197.467L213.555 198.949L218.96 190.53L214.3 189.866L217.506 182.66C213.69 178.936 203.819 178.249 201.891 187.18C199.595 197.818 218.184 204.423 221.508 206.245L221.501 206.286L221.541 206.261C221.555 206.269 221.574 206.279 221.587 206.286L221.588 206.231C226.613 203.065 240.325 194.365 236.899 185.356Z" fill="#E1523E"></path> <path fill-rule="evenodd" clip-rule="evenodd" d="M969.379 184.526C962.966 178.451 953.515 177.438 952.165 185.201C951.152 192.627 949.465 198.365 947.102 202.753C944.402 208.491 950.815 213.553 954.865 217.266C953.853 226.379 932.251 249.669 922.8 251.356C918.75 247.644 913.35 241.568 907.949 244.943C902.549 247.981 896.811 250.006 890.735 251.356C882.972 253.044 884.66 262.157 891.41 268.233C922.8 294.56 998.069 214.228 969.379 184.526ZM928.201 203.765C925.838 203.765 926.176 200.39 928.201 200.052L939.339 199.715C941.702 199.715 941.364 203.09 939.002 203.428L928.201 203.765ZM939.677 175.751C937.651 174.738 939.339 171.363 941.364 172.375L948.115 178.451C950.14 179.463 948.452 182.501 946.427 181.488L939.677 175.751ZM927.863 186.889C925.838 185.876 927.526 182.501 929.551 183.514L940.352 187.901C942.377 188.914 940.689 192.289 938.664 191.277L927.863 186.889Z" fill="#D6E8E8"></path> <g filter="url(#filter13_d)"> <path d="M849.035 192.882C849.035 176.018 862.705 162.348 879.569 162.348C896.432 162.348 910.102 176.018 910.102 192.882C910.102 209.745 896.432 223.415 879.569 223.415C862.705 223.415 849.035 209.745 849.035 192.882Z" fill="white"></path> <path d="M898.931 215.223L906.751 206.287L923.507 223.415H882.547L898.931 215.223Z" fill="white"></path> </g> <path d="M896.899 185.356C894.228 178.334 887.276 178.574 883.106 181.073L879.904 187.652L885.833 187.112L879.727 194.781L884.749 193.528L881.6 205.703L880.622 197.467L873.555 198.949L878.96 190.53L874.3 189.866L877.506 182.66C873.69 178.936 863.819 178.249 861.891 187.18C859.595 197.818 878.184 204.423 881.508 206.245L881.501 206.286L881.541 206.261C881.555 206.269 881.574 206.279 881.587 206.286L881.588 206.231C886.613 203.065 900.325 194.365 896.899 185.356Z" fill="#E1523E"></path> <path fill-rule="evenodd" clip-rule="evenodd" d="M639.402 184.526C632.989 178.451 623.539 177.438 622.189 185.201C621.176 192.627 619.488 198.365 617.126 202.753C614.425 208.491 620.838 213.553 624.889 217.266C623.876 226.379 602.274 249.669 592.824 251.356C588.773 247.644 583.373 241.568 577.973 244.943C572.572 247.981 566.834 250.006 560.759 251.356C552.996 253.044 554.683 262.157 561.434 268.233C592.824 294.56 668.092 214.228 639.402 184.526ZM598.224 203.765C595.862 203.765 596.199 200.39 598.224 200.052L609.363 199.715C611.725 199.715 611.388 203.09 609.025 203.428L598.224 203.765ZM609.7 175.751C607.675 174.738 609.363 171.363 611.388 172.375L618.138 178.451C620.163 179.463 618.476 182.501 616.451 181.488L609.7 175.751ZM597.887 186.889C595.862 185.876 597.549 182.501 599.574 183.514L610.375 187.901C612.4 188.914 610.713 192.289 608.687 191.277L597.887 186.889Z" fill="#D6E8E8"></path> <g filter="url(#filter14_d)"> <path d="M519.059 192.882C519.059 176.018 532.729 162.348 549.592 162.348C566.455 162.348 580.125 176.018 580.125 192.882C580.125 209.745 566.455 223.415 549.592 223.415C532.729 223.415 519.059 209.745 519.059 192.882Z" fill="white"></path> <path d="M568.955 215.223L576.774 206.287L593.53 223.415H552.571L568.955 215.223Z" fill="white"></path> </g> <path d="M566.922 185.356C564.252 178.334 557.299 178.574 553.13 181.073L549.927 187.652L555.857 187.112L549.751 194.781L554.772 193.528L551.624 205.703L550.645 197.467L543.579 198.949L548.983 190.53L544.323 189.866L547.529 182.66C543.714 178.936 533.842 178.249 531.915 187.18C529.618 197.818 548.208 204.423 551.531 206.245L551.525 206.286L551.564 206.261C551.578 206.269 551.597 206.279 551.611 206.286L551.612 206.231C556.637 203.065 570.349 194.365 566.922 185.356Z" fill="#E1523E"></path> <path fill-rule="evenodd" clip-rule="evenodd" d="M1299.4 184.526C1292.99 178.451 1283.54 177.438 1282.19 185.201C1281.18 192.627 1279.49 198.365 1277.13 202.753C1274.43 208.491 1280.84 213.553 1284.89 217.266C1283.88 226.379 1262.27 249.669 1252.82 251.356C1248.77 247.644 1243.37 241.568 1237.97 244.943C1232.57 247.981 1226.83 250.006 1220.76 251.356C1213 253.044 1214.68 262.157 1221.43 268.233C1252.82 294.56 1328.09 214.228 1299.4 184.526ZM1258.22 203.765C1255.86 203.765 1256.2 200.39 1258.22 200.052L1269.36 199.715C1271.73 199.715 1271.39 203.09 1269.03 203.428L1258.22 203.765ZM1269.7 175.751C1267.67 174.738 1269.36 171.363 1271.39 172.375L1278.14 178.451C1280.16 179.463 1278.48 182.501 1276.45 181.488L1269.7 175.751ZM1257.89 186.889C1255.86 185.876 1257.55 182.501 1259.57 183.514L1270.38 187.901C1272.4 188.914 1270.71 192.289 1268.69 191.277L1257.89 186.889Z" fill="#D6E8E8"></path> <g filter="url(#filter15_d)"> <path d="M1179.06 192.882C1179.06 176.018 1192.73 162.348 1209.59 162.348C1226.46 162.348 1240.13 176.018 1240.13 192.882C1240.13 209.745 1226.46 223.415 1209.59 223.415C1192.73 223.415 1179.06 209.745 1179.06 192.882Z" fill="white"></path> <path d="M1228.95 215.223L1236.77 206.287L1253.53 223.415H1212.57L1228.95 215.223Z" fill="white"></path> </g> <path d="M1226.92 185.356C1224.25 178.334 1217.3 178.574 1213.13 181.073L1209.93 187.652L1215.86 187.112L1209.75 194.781L1214.77 193.528L1211.62 205.703L1210.64 197.467L1203.58 198.949L1208.98 190.53L1204.32 189.866L1207.53 182.66C1203.71 178.936 1193.84 178.249 1191.91 187.18C1189.62 197.818 1208.21 204.423 1211.53 206.245L1211.52 206.286L1211.56 206.261C1211.58 206.269 1211.6 206.279 1211.61 206.286L1211.61 206.231C1216.64 203.065 1230.35 194.365 1226.92 185.356Z" fill="#E1523E"></path> <path fill-rule="evenodd" clip-rule="evenodd" d="M140.344 329.874C133.931 323.799 124.48 322.786 123.13 330.549C122.117 337.975 120.43 343.713 118.067 348.101C115.367 353.839 121.78 358.902 125.83 362.614C124.818 371.728 103.216 395.017 93.7652 396.704C89.7149 392.992 84.3145 386.916 78.9141 390.291C73.5136 393.329 67.7757 395.354 61.7002 396.704C53.9372 398.392 55.6248 407.505 62.3753 413.581C93.7652 439.908 169.033 359.577 140.344 329.874ZM99.1656 349.113C96.8029 349.113 97.1404 345.738 99.1656 345.401L110.304 345.063C112.667 345.063 112.329 348.438 109.966 348.776L99.1656 349.113ZM110.641 321.099C108.616 320.086 110.304 316.711 112.329 317.723L119.08 323.799C121.105 324.811 119.417 327.849 117.392 326.837L110.641 321.099ZM98.8281 332.237C96.8029 331.224 98.4905 327.849 100.516 328.862L111.317 333.25C113.342 334.262 111.654 337.637 109.629 336.625L98.8281 332.237Z" fill="#D6E8E8"></path> <g filter="url(#filter16_d)"> <path d="M20 338.23C20 321.367 33.6703 307.696 50.5334 307.696C67.3965 307.696 81.0668 321.367 81.0668 338.23C81.0668 355.093 67.3965 368.763 50.5334 368.763C33.6703 368.763 20 355.093 20 338.23Z" fill="white"></path> <path d="M69.896 360.571L77.7155 351.635L94.4716 368.763H53.5122L69.896 360.571Z" fill="white"></path> </g> <path d="M67.8634 330.704C65.1932 323.682 58.2405 323.922 54.0713 326.421L50.8685 333L56.7982 332.46L50.6921 340.129L55.7139 338.876L52.5652 351.051L51.5864 342.815L44.5199 344.297L49.9248 335.878L45.2647 335.214L48.4705 328.008C44.6552 324.284 34.7839 323.597 32.856 332.528C30.5599 343.166 49.1491 349.771 52.4729 351.593L52.4663 351.635L52.5057 351.609C52.5194 351.618 52.5384 351.627 52.5521 351.635L52.5533 351.579C57.578 348.413 71.2903 339.714 67.8634 330.704Z" fill="#E1523E"></path> <path fill-rule="evenodd" clip-rule="evenodd" d="M800.344 329.874C793.931 323.799 784.48 322.786 783.13 330.549C782.117 337.975 780.43 343.713 778.067 348.101C775.367 353.839 781.78 358.902 785.83 362.614C784.818 371.728 763.216 395.017 753.765 396.704C749.715 392.992 744.314 386.916 738.914 390.291C733.514 393.329 727.776 395.354 721.7 396.704C713.937 398.392 715.625 407.505 722.375 413.581C753.765 439.908 829.033 359.577 800.344 329.874ZM759.166 349.113C756.803 349.113 757.14 345.738 759.166 345.401L770.304 345.063C772.667 345.063 772.329 348.438 769.966 348.776L759.166 349.113ZM770.641 321.099C768.616 320.086 770.304 316.711 772.329 317.723L779.08 323.799C781.105 324.811 779.417 327.849 777.392 326.837L770.641 321.099ZM758.828 332.237C756.803 331.224 758.491 327.849 760.516 328.862L771.317 333.25C773.342 334.262 771.654 337.637 769.629 336.625L758.828 332.237Z" fill="#D6E8E8"></path> <g filter="url(#filter17_d)"> <path d="M680 338.23C680 321.367 693.67 307.696 710.533 307.696C727.397 307.696 741.067 321.367 741.067 338.23C741.067 355.093 727.397 368.763 710.533 368.763C693.67 368.763 680 355.093 680 338.23Z" fill="white"></path> <path d="M729.896 360.571L737.716 351.635L754.472 368.763H713.512L729.896 360.571Z" fill="white"></path> </g> <path d="M727.863 330.704C725.193 323.682 718.241 323.922 714.071 326.421L710.868 333L716.798 332.46L710.692 340.129L715.714 338.876L712.565 351.051L711.586 342.815L704.52 344.297L709.925 335.878L705.265 335.214L708.471 328.008C704.655 324.284 694.784 323.597 692.856 332.528C690.56 343.166 709.149 349.771 712.473 351.593L712.466 351.635L712.506 351.609C712.519 351.618 712.538 351.627 712.552 351.635L712.553 351.579C717.578 348.413 731.29 339.714 727.863 330.704Z" fill="#E1523E"></path> <path fill-rule="evenodd" clip-rule="evenodd" d="M301.332 329.874C294.919 323.799 285.468 322.786 284.118 330.549C283.106 337.975 281.418 343.713 279.055 348.101C276.355 353.839 282.768 358.902 286.818 362.614C285.806 371.728 264.204 395.017 254.753 396.704C250.703 392.992 245.303 386.916 239.902 390.291C234.502 393.329 228.764 395.354 222.689 396.704C214.925 398.392 216.613 407.505 223.364 413.581C254.753 439.908 330.022 359.577 301.332 329.874ZM260.154 349.113C257.791 349.113 258.129 345.738 260.154 345.401L271.292 345.063C273.655 345.063 273.317 348.438 270.955 348.776L260.154 349.113ZM271.63 321.099C269.605 320.086 271.292 316.711 273.317 317.723L280.068 323.799C282.093 324.811 280.405 327.849 278.38 326.837L271.63 321.099ZM259.816 332.237C257.791 331.224 259.479 327.849 261.504 328.862L272.305 333.25C274.33 334.262 272.642 337.637 270.617 336.625L259.816 332.237Z" fill="#D6E8E8"></path> <g filter="url(#filter18_d)"> <path d="M180.988 338.23C180.988 321.367 194.659 307.696 211.522 307.696C228.385 307.696 242.055 321.367 242.055 338.23C242.055 355.093 228.385 368.763 211.522 368.763C194.659 368.763 180.988 355.093 180.988 338.23Z" fill="white"></path> <path d="M230.884 360.571L238.704 351.635L255.46 368.763H214.501L230.884 360.571Z" fill="white"></path> </g> <path d="M228.852 330.704C226.181 323.682 219.229 323.922 215.06 326.421L211.857 333L217.786 332.46L211.68 340.129L216.702 338.876L213.554 351.051L212.575 342.815L205.508 344.297L210.913 335.878L206.253 335.214L209.459 328.008C205.643 324.284 195.772 323.597 193.844 332.528C191.548 343.166 210.137 349.771 213.461 351.593L213.455 351.635L213.494 351.609C213.508 351.618 213.527 351.627 213.54 351.635L213.542 351.579C218.566 348.413 232.279 339.714 228.852 330.704Z" fill="#E1523E"></path> <path fill-rule="evenodd" clip-rule="evenodd" d="M961.332 329.874C954.919 323.799 945.468 322.786 944.118 330.549C943.106 337.975 941.418 343.713 939.055 348.101C936.355 353.839 942.768 358.902 946.818 362.614C945.806 371.728 924.204 395.017 914.753 396.704C910.703 392.992 905.303 386.916 899.902 390.291C894.502 393.329 888.764 395.354 882.689 396.704C874.925 398.392 876.613 407.505 883.364 413.581C914.753 439.908 990.022 359.577 961.332 329.874ZM920.154 349.113C917.791 349.113 918.129 345.738 920.154 345.401L931.292 345.063C933.655 345.063 933.317 348.438 930.955 348.776L920.154 349.113ZM931.63 321.099C929.605 320.086 931.292 316.711 933.317 317.723L940.068 323.799C942.093 324.811 940.405 327.849 938.38 326.837L931.63 321.099ZM919.816 332.237C917.791 331.224 919.479 327.849 921.504 328.862L932.305 333.25C934.33 334.262 932.642 337.637 930.617 336.625L919.816 332.237Z" fill="#D6E8E8"></path> <g filter="url(#filter19_d)"> <path d="M840.988 338.23C840.988 321.367 854.659 307.696 871.522 307.696C888.385 307.696 902.055 321.367 902.055 338.23C902.055 355.093 888.385 368.763 871.522 368.763C854.659 368.763 840.988 355.093 840.988 338.23Z" fill="white"></path> <path d="M890.884 360.571L898.704 351.635L915.46 368.763H874.501L890.884 360.571Z" fill="white"></path> </g> <path d="M888.852 330.704C886.181 323.682 879.229 323.922 875.06 326.421L871.857 333L877.786 332.46L871.68 340.129L876.702 338.876L873.554 351.051L872.575 342.815L865.508 344.297L870.913 335.878L866.253 335.214L869.459 328.008C865.643 324.284 855.772 323.597 853.844 332.528C851.548 343.166 870.137 349.771 873.461 351.593L873.455 351.635L873.494 351.609C873.508 351.618 873.527 351.627 873.54 351.635L873.542 351.579C878.566 348.413 892.279 339.714 888.852 330.704Z" fill="#E1523E"></path> <path fill-rule="evenodd" clip-rule="evenodd" d="M631.355 329.874C624.942 323.799 615.492 322.786 614.142 330.549C613.129 337.975 611.441 343.713 609.079 348.101C606.379 353.839 612.792 358.902 616.842 362.614C615.829 371.728 594.228 395.017 584.777 396.704C580.727 392.992 575.326 386.916 569.926 390.291C564.525 393.329 558.787 395.354 552.712 396.704C544.949 398.392 546.637 407.505 553.387 413.581C584.777 439.908 660.045 359.577 631.355 329.874ZM590.177 349.113C587.815 349.113 588.152 345.738 590.177 345.401L601.316 345.063C603.678 345.063 603.341 348.438 600.978 348.776L590.177 349.113ZM601.653 321.099C599.628 320.086 601.316 316.711 603.341 317.723L610.091 323.799C612.116 324.811 610.429 327.849 608.404 326.837L601.653 321.099ZM589.84 332.237C587.815 331.224 589.502 327.849 591.527 328.862L602.328 333.25C604.353 334.262 602.666 337.637 600.641 336.625L589.84 332.237Z" fill="#D6E8E8"></path> <g filter="url(#filter20_d)"> <path d="M502.961 338.23C502.961 321.367 516.631 307.696 533.494 307.696C550.357 307.696 564.028 321.367 564.028 338.23C564.028 355.093 550.357 368.763 533.494 368.763C516.631 368.763 502.961 355.093 502.961 338.23Z" fill="white"></path> <path d="M552.857 360.571L560.677 351.635L577.433 368.763H536.473L552.857 360.571Z" fill="white"></path> </g> <path d="M549.084 329.44C548.576 328.245 547.843 327.163 546.926 326.253C546.009 325.34 544.927 324.615 543.74 324.117C542.509 323.598 541.189 323.332 539.856 323.335C537.986 323.335 536.161 323.855 534.576 324.837C534.197 325.071 533.836 325.329 533.495 325.61C533.154 325.329 532.793 325.071 532.414 324.837C530.829 323.855 529.004 323.335 527.134 323.335C525.788 323.335 524.483 323.597 523.25 324.117C522.059 324.617 520.986 325.337 520.064 326.253C519.146 327.162 518.413 328.245 517.906 329.44C517.379 330.683 517.109 332.004 517.109 333.362C517.109 334.644 517.367 335.98 517.879 337.338C518.308 338.474 518.922 339.652 519.708 340.841C520.952 342.723 522.662 344.686 524.786 346.676C528.306 349.975 531.792 352.253 531.94 352.346L532.839 352.931C533.237 353.189 533.749 353.189 534.147 352.931L535.046 352.346C535.194 352.249 538.676 349.975 542.2 346.676C544.324 344.686 546.035 342.723 547.279 340.841C548.064 339.652 548.682 338.474 549.107 337.338C549.619 335.98 549.877 334.644 549.877 333.362C549.881 332.004 549.611 330.683 549.084 329.44V329.44Z" fill="#4BC197"></path> <path fill-rule="evenodd" clip-rule="evenodd" d="M1291.36 329.874C1284.94 323.799 1275.49 322.786 1274.14 330.549C1273.13 337.975 1271.44 343.713 1269.08 348.101C1266.38 353.839 1272.79 358.902 1276.84 362.614C1275.83 371.728 1254.23 395.017 1244.78 396.704C1240.73 392.992 1235.33 386.916 1229.93 390.291C1224.53 393.329 1218.79 395.354 1212.71 396.704C1204.95 398.392 1206.64 407.505 1213.39 413.581C1244.78 439.908 1320.05 359.577 1291.36 329.874ZM1250.18 349.113C1247.81 349.113 1248.15 345.738 1250.18 345.401L1261.32 345.063C1263.68 345.063 1263.34 348.438 1260.98 348.776L1250.18 349.113ZM1261.65 321.099C1259.63 320.086 1261.32 316.711 1263.34 317.723L1270.09 323.799C1272.12 324.811 1270.43 327.849 1268.4 326.837L1261.65 321.099ZM1249.84 332.237C1247.81 331.224 1249.5 327.849 1251.53 328.862L1262.33 333.25C1264.35 334.262 1262.67 337.637 1260.64 336.625L1249.84 332.237Z" fill="#D6E8E8"></path> <g filter="url(#filter21_d)"> <path d="M1162.96 338.23C1162.96 321.367 1176.63 307.696 1193.49 307.696C1210.36 307.696 1224.03 321.367 1224.03 338.23C1224.03 355.093 1210.36 368.763 1193.49 368.763C1176.63 368.763 1162.96 355.093 1162.96 338.23Z" fill="white"></path> <path d="M1212.86 360.571L1220.68 351.635L1237.43 368.763H1196.47L1212.86 360.571Z" fill="white"></path> </g> <path d="M1209.08 329.44C1208.58 328.245 1207.84 327.163 1206.93 326.253C1206.01 325.34 1204.93 324.615 1203.74 324.117C1202.51 323.598 1201.19 323.332 1199.86 323.335C1197.99 323.335 1196.16 323.855 1194.58 324.837C1194.2 325.071 1193.84 325.329 1193.5 325.61C1193.15 325.329 1192.79 325.071 1192.41 324.837C1190.83 323.855 1189 323.335 1187.13 323.335C1185.79 323.335 1184.48 323.597 1183.25 324.117C1182.06 324.617 1180.99 325.337 1180.06 326.253C1179.15 327.162 1178.41 328.245 1177.91 329.44C1177.38 330.683 1177.11 332.004 1177.11 333.362C1177.11 334.644 1177.37 335.98 1177.88 337.338C1178.31 338.474 1178.92 339.652 1179.71 340.841C1180.95 342.723 1182.66 344.686 1184.79 346.676C1188.31 349.975 1191.79 352.253 1191.94 352.346L1192.84 352.931C1193.24 353.189 1193.75 353.189 1194.15 352.931L1195.05 352.346C1195.19 352.249 1198.68 349.975 1202.2 346.676C1204.32 344.686 1206.03 342.723 1207.28 340.841C1208.06 339.652 1208.68 338.474 1209.11 337.338C1209.62 335.98 1209.88 334.644 1209.88 333.362C1209.88 332.004 1209.61 330.683 1209.08 329.44V329.44Z" fill="#4BC197"></path> <path fill-rule="evenodd" clip-rule="evenodd" d="M462.316 329.874C455.903 323.799 446.453 322.786 445.103 330.549C444.09 337.975 442.402 343.713 440.04 348.101C437.339 353.839 443.752 358.902 447.803 362.614C446.79 371.728 425.189 395.017 415.738 396.704C411.688 392.992 406.287 386.916 400.887 390.291C395.486 393.329 389.748 395.354 383.673 396.704C375.91 398.392 377.597 407.505 384.348 413.581C415.738 439.908 491.006 359.577 462.316 329.874ZM421.138 349.113C418.776 349.113 419.113 345.738 421.138 345.401L432.277 345.063C434.639 345.063 434.302 348.438 431.939 348.776L421.138 349.113ZM432.614 321.099C430.589 320.086 432.277 316.711 434.302 317.723L441.052 323.799C443.077 324.811 441.39 327.849 439.365 326.837L432.614 321.099ZM420.801 332.237C418.776 331.224 420.463 327.849 422.488 328.862L433.289 333.25C435.314 334.262 433.627 337.637 431.602 336.625L420.801 332.237Z" fill="#D6E8E8"></path> <g filter="url(#filter22_d)"> <path d="M341.973 338.23C341.973 321.367 355.643 307.696 372.506 307.696C389.369 307.696 403.039 321.367 403.039 338.23C403.039 355.093 389.369 368.763 372.506 368.763C355.643 368.763 341.973 355.093 341.973 338.23Z" fill="white"></path> <path d="M391.869 360.571L399.688 351.635L416.444 368.763H375.485L391.869 360.571Z" fill="white"></path> </g> <path d="M389.836 330.704C387.166 323.682 380.213 323.922 376.044 326.421L372.841 333L378.771 332.46L372.665 340.129L377.687 338.876L374.538 351.051L373.559 342.815L366.493 344.297L371.897 335.878L367.237 335.214L370.443 328.008C366.628 324.284 356.757 323.597 354.829 332.528C352.533 343.166 371.122 349.771 374.446 351.593L374.439 351.635L374.478 351.609C374.492 351.618 374.511 351.627 374.525 351.635L374.526 351.579C379.551 348.413 393.263 339.714 389.836 330.704Z" fill="#E1523E"></path> <path fill-rule="evenodd" clip-rule="evenodd" d="M1122.32 329.874C1115.9 323.799 1106.45 322.786 1105.1 330.549C1104.09 337.975 1102.4 343.713 1100.04 348.101C1097.34 353.839 1103.75 358.902 1107.8 362.614C1106.79 371.728 1085.19 395.017 1075.74 396.704C1071.69 392.992 1066.29 386.916 1060.89 390.291C1055.49 393.329 1049.75 395.354 1043.67 396.704C1035.91 398.392 1037.6 407.505 1044.35 413.581C1075.74 439.908 1151.01 359.577 1122.32 329.874ZM1081.14 349.113C1078.78 349.113 1079.11 345.738 1081.14 345.401L1092.28 345.063C1094.64 345.063 1094.3 348.438 1091.94 348.776L1081.14 349.113ZM1092.61 321.099C1090.59 320.086 1092.28 316.711 1094.3 317.723L1101.05 323.799C1103.08 324.811 1101.39 327.849 1099.36 326.837L1092.61 321.099ZM1080.8 332.237C1078.78 331.224 1080.46 327.849 1082.49 328.862L1093.29 333.25C1095.31 334.262 1093.63 337.637 1091.6 336.625L1080.8 332.237Z" fill="#D6E8E8"></path> <g filter="url(#filter23_d)"> <path d="M1001.97 338.23C1001.97 321.367 1015.64 307.696 1032.51 307.696C1049.37 307.696 1063.04 321.367 1063.04 338.23C1063.04 355.093 1049.37 368.763 1032.51 368.763C1015.64 368.763 1001.97 355.093 1001.97 338.23Z" fill="white"></path> <path d="M1051.87 360.571L1059.69 351.635L1076.44 368.763H1035.48L1051.87 360.571Z" fill="white"></path> </g> <path d="M1049.84 330.704C1047.17 323.682 1040.21 323.922 1036.04 326.421L1032.84 333L1038.77 332.46L1032.66 340.129L1037.69 338.876L1034.54 351.051L1033.56 342.815L1026.49 344.297L1031.9 335.878L1027.24 335.214L1030.44 328.008C1026.63 324.284 1016.76 323.597 1014.83 332.528C1012.53 343.166 1031.12 349.771 1034.45 351.593L1034.44 351.635L1034.48 351.609C1034.49 351.618 1034.51 351.627 1034.52 351.635L1034.53 351.579C1039.55 348.413 1053.26 339.714 1049.84 330.704Z" fill="#E1523E"></path> <defs> <filter id="filter0_d" x="0" y="0" width="114.472" height="101.067" filterUnits="userSpaceOnUse" color-interpolation-filters="sRGB"> <feFlood flood-opacity="0" result="BackgroundImageFix"></feFlood> <feColorMatrix in="SourceAlpha" type="matrix" values="0 0 0 0 0 0 0 0 0 0 0 0 0 0 0 0 0 0 127 0"></feColorMatrix> <feOffset dy="3"></feOffset> <feGaussianBlur stdDeviation="10"></feGaussianBlur> <feColorMatrix type="matrix" values="0 0 0 0 0.0958333 0 0 0 0 0.0958333 0 0 0 0 0.0958333 0 0 0 0.1 0"></feColorMatrix> <feBlend mode="normal" in2="BackgroundImageFix" result="effect1_dropShadow"></feBlend> <feBlend mode="normal" in="SourceGraphic" in2="effect1_dropShadow" result="shape"></feBlend> </filter> <filter id="filter1_d" x="660" y="0" width="114.472" height="101.067" filterUnits="userSpaceOnUse" color-interpolation-filters="sRGB"> <feFlood flood-opacity="0" result="BackgroundImageFix"></feFlood> <feColorMatrix in="SourceAlpha" type="matrix" values="0 0 0 0 0 0 0 0 0 0 0 0 0 0 0 0 0 0 127 0"></feColorMatrix> <feOffset dy="3"></feOffset> <feGaussianBlur stdDeviation="10"></feGaussianBlur> <feColorMatrix type="matrix" values="0 0 0 0 0.0958333 0 0 0 0 0.0958333 0 0 0 0 0.0958333 0 0 0 0.1 0"></feColorMatrix> <feBlend mode="normal" in2="BackgroundImageFix" result="effect1_dropShadow"></feBlend> <feBlend mode="normal" in="SourceGraphic" in2="effect1_dropShadow" result="shape"></feBlend> </filter> <filter id="filter2_d" x="160.988" y="0" width="114.472" height="101.067" filterUnits="userSpaceOnUse" color-interpolation-filters="sRGB"> <feFlood flood-opacity="0" result="BackgroundImageFix"></feFlood> <feColorMatrix in="SourceAlpha" type="matrix" values="0 0 0 0 0 0 0 0 0 0 0 0 0 0 0 0 0 0 127 0"></feColorMatrix> <feOffset dy="3"></feOffset> <feGaussianBlur stdDeviation="10"></feGaussianBlur> <feColorMatrix type="matrix" values="0 0 0 0 0.0941176 0 0 0 0 0.0941176 0 0 0 0 0.0941176 0 0 0 0.1 0"></feColorMatrix> <feBlend mode="normal" in2="BackgroundImageFix" result="effect1_dropShadow"></feBlend> <feBlend mode="normal" in="SourceGraphic" in2="effect1_dropShadow" result="shape"></feBlend> </filter> <filter id="filter3_d" x="820.988" y="0" width="114.472" height="101.067" filterUnits="userSpaceOnUse" color-interpolation-filters="sRGB"> <feFlood flood-opacity="0" result="BackgroundImageFix"></feFlood> <feColorMatrix in="SourceAlpha" type="matrix" values="0 0 0 0 0 0 0 0 0 0 0 0 0 0 0 0 0 0 127 0"></feColorMatrix> <feOffset dy="3"></feOffset> <feGaussianBlur stdDeviation="10"></feGaussianBlur> <feColorMatrix type="matrix" values="0 0 0 0 0.0941176 0 0 0 0 0.0941176 0 0 0 0 0.0941176 0 0 0 0.1 0"></feColorMatrix> <feBlend mode="normal" in2="BackgroundImageFix" result="effect1_dropShadow"></feBlend> <feBlend mode="normal" in="SourceGraphic" in2="effect1_dropShadow" result="shape"></feBlend> </filter> <filter id="filter4_d" x="330.023" y="0" width="114.472" height="101.067" filterUnits="userSpaceOnUse" color-interpolation-filters="sRGB"> <feFlood flood-opacity="0" result="BackgroundImageFix"></feFlood> <feColorMatrix in="SourceAlpha" type="matrix" values="0 0 0 0 0 0 0 0 0 0 0 0 0 0 0 0 0 0 127 0"></feColorMatrix> <feOffset dy="3"></feOffset> <feGaussianBlur stdDeviation="10"></feGaussianBlur> <feColorMatrix type="matrix" values="0 0 0 0 0.0941176 0 0 0 0 0.0941176 0 0 0 0 0.0941176 0 0 0 0.1 0"></feColorMatrix> <feBlend mode="normal" in2="BackgroundImageFix" result="effect1_dropShadow"></feBlend> <feBlend mode="normal" in="SourceGraphic" in2="effect1_dropShadow" result="shape"></feBlend> </filter> <filter id="filter5_d" x="990.023" y="0" width="114.472" height="101.067" filterUnits="userSpaceOnUse" color-interpolation-filters="sRGB"> <feFlood flood-opacity="0" result="BackgroundImageFix"></feFlood> <feColorMatrix in="SourceAlpha" type="matrix" values="0 0 0 0 0 0 0 0 0 0 0 0 0 0 0 0 0 0 127 0"></feColorMatrix> <feOffset dy="3"></feOffset> <feGaussianBlur stdDeviation="10"></feGaussianBlur> <feColorMatrix type="matrix" values="0 0 0 0 0.0941176 0 0 0 0 0.0941176 0 0 0 0 0.0941176 0 0 0 0.1 0"></feColorMatrix> <feBlend mode="normal" in2="BackgroundImageFix" result="effect1_dropShadow"></feBlend> <feBlend mode="normal" in="SourceGraphic" in2="effect1_dropShadow" result="shape"></feBlend> </filter> <filter id="filter6_d" x="499.059" y="0" width="114.472" height="101.067" filterUnits="userSpaceOnUse" color-interpolation-filters="sRGB"> <feFlood flood-opacity="0" result="BackgroundImageFix"></feFlood> <feColorMatrix in="SourceAlpha" type="matrix" values="0 0 0 0 0 0 0 0 0 0 0 0 0 0 0 0 0 0 127 0"></feColorMatrix> <feOffset dy="3"></feOffset> <feGaussianBlur stdDeviation="10"></feGaussianBlur> <feColorMatrix type="matrix" values="0 0 0 0 0.0958333 0 0 0 0 0.0958333 0 0 0 0 0.0958333 0 0 0 0.1 0"></feColorMatrix> <feBlend mode="normal" in2="BackgroundImageFix" result="effect1_dropShadow"></feBlend> <feBlend mode="normal" in="SourceGraphic" in2="effect1_dropShadow" result="shape"></feBlend> </filter> <filter id="filter7_d" x="1159.06" y="0" width="114.472" height="101.067" filterUnits="userSpaceOnUse" color-interpolation-filters="sRGB"> <feFlood flood-opacity="0" result="BackgroundImageFix"></feFlood> <feColorMatrix in="SourceAlpha" type="matrix" values="0 0 0 0 0 0 0 0 0 0 0 0 0 0 0 0 0 0 127 0"></feColorMatrix> <feOffset dy="3"></feOffset> <feGaussianBlur stdDeviation="10"></feGaussianBlur> <feColorMatrix type="matrix" values="0 0 0 0 0.0958333 0 0 0 0 0.0958333 0 0 0 0 0.0958333 0 0 0 0.1 0"></feColorMatrix> <feBlend mode="normal" in2="BackgroundImageFix" result="effect1_dropShadow"></feBlend> <feBlend mode="normal" in="SourceGraphic" in2="effect1_dropShadow" result="shape"></feBlend> </filter> <filter id="filter8_d" x="0" y="145.348" width="114.472" height="101.067" filterUnits="userSpaceOnUse" color-interpolation-filters="sRGB"> <feFlood flood-opacity="0" result="BackgroundImageFix"></feFlood> <feColorMatrix in="SourceAlpha" type="matrix" values="0 0 0 0 0 0 0 0 0 0 0 0 0 0 0 0 0 0 127 0"></feColorMatrix> <feOffset dy="3"></feOffset> <feGaussianBlur stdDeviation="10"></feGaussianBlur> <feColorMatrix type="matrix" values="0 0 0 0 0.0941176 0 0 0 0 0.0941176 0 0 0 0 0.0941176 0 0 0 0.1 0"></feColorMatrix> <feBlend mode="normal" in2="BackgroundImageFix" result="effect1_dropShadow"></feBlend> <feBlend mode="normal" in="SourceGraphic" in2="effect1_dropShadow" result="shape"></feBlend> </filter> <filter id="filter9_d" x="660" y="145.348" width="114.472" height="101.067" filterUnits="userSpaceOnUse" color-interpolation-filters="sRGB"> <feFlood flood-opacity="0" result="BackgroundImageFix"></feFlood> <feColorMatrix in="SourceAlpha" type="matrix" values="0 0 0 0 0 0 0 0 0 0 0 0 0 0 0 0 0 0 127 0"></feColorMatrix> <feOffset dy="3"></feOffset> <feGaussianBlur stdDeviation="10"></feGaussianBlur> <feColorMatrix type="matrix" values="0 0 0 0 0.0941176 0 0 0 0 0.0941176 0 0 0 0 0.0941176 0 0 0 0.1 0"></feColorMatrix> <feBlend mode="normal" in2="BackgroundImageFix" result="effect1_dropShadow"></feBlend> <feBlend mode="normal" in="SourceGraphic" in2="effect1_dropShadow" result="shape"></feBlend> </filter> <filter id="filter10_d" x="330.023" y="145.348" width="114.472" height="101.067" filterUnits="userSpaceOnUse" color-interpolation-filters="sRGB"> <feFlood flood-opacity="0" result="BackgroundImageFix"></feFlood> <feColorMatrix in="SourceAlpha" type="matrix" values="0 0 0 0 0 0 0 0 0 0 0 0 0 0 0 0 0 0 127 0"></feColorMatrix> <feOffset dy="3"></feOffset> <feGaussianBlur stdDeviation="10"></feGaussianBlur> <feColorMatrix type="matrix" values="0 0 0 0 0.0941176 0 0 0 0 0.0941176 0 0 0 0 0.0941176 0 0 0 0.1 0"></feColorMatrix> <feBlend mode="normal" in2="BackgroundImageFix" result="effect1_dropShadow"></feBlend> <feBlend mode="normal" in="SourceGraphic" in2="effect1_dropShadow" result="shape"></feBlend> </filter> <filter id="filter11_d" x="990.023" y="145.348" width="114.472" height="101.067" filterUnits="userSpaceOnUse" color-interpolation-filters="sRGB"> <feFlood flood-opacity="0" result="BackgroundImageFix"></feFlood> <feColorMatrix in="SourceAlpha" type="matrix" values="0 0 0 0 0 0 0 0 0 0 0 0 0 0 0 0 0 0 127 0"></feColorMatrix> <feOffset dy="3"></feOffset> <feGaussianBlur stdDeviation="10"></feGaussianBlur> <feColorMatrix type="matrix" values="0 0 0 0 0.0941176 0 0 0 0 0.0941176 0 0 0 0 0.0941176 0 0 0 0.1 0"></feColorMatrix> <feBlend mode="normal" in2="BackgroundImageFix" result="effect1_dropShadow"></feBlend> <feBlend mode="normal" in="SourceGraphic" in2="effect1_dropShadow" result="shape"></feBlend> </filter> <filter id="filter12_d" x="169.035" y="145.348" width="114.472" height="101.067" filterUnits="userSpaceOnUse" color-interpolation-filters="sRGB"> <feFlood flood-opacity="0" result="BackgroundImageFix"></feFlood> <feColorMatrix in="SourceAlpha" type="matrix" values="0 0 0 0 0 0 0 0 0 0 0 0 0 0 0 0 0 0 127 0"></feColorMatrix> <feOffset dy="3"></feOffset> <feGaussianBlur stdDeviation="10"></feGaussianBlur> <feColorMatrix type="matrix" values="0 0 0 0 0.0958333 0 0 0 0 0.0958333 0 0 0 0 0.0958333 0 0 0 0.1 0"></feColorMatrix> <feBlend mode="normal" in2="BackgroundImageFix" result="effect1_dropShadow"></feBlend> <feBlend mode="normal" in="SourceGraphic" in2="effect1_dropShadow" result="shape"></feBlend> </filter> <filter id="filter13_d" x="829.035" y="145.348" width="114.472" height="101.067" filterUnits="userSpaceOnUse" color-interpolation-filters="sRGB"> <feFlood flood-opacity="0" result="BackgroundImageFix"></feFlood> <feColorMatrix in="SourceAlpha" type="matrix" values="0 0 0 0 0 0 0 0 0 0 0 0 0 0 0 0 0 0 127 0"></feColorMatrix> <feOffset dy="3"></feOffset> <feGaussianBlur stdDeviation="10"></feGaussianBlur> <feColorMatrix type="matrix" values="0 0 0 0 0.0958333 0 0 0 0 0.0958333 0 0 0 0 0.0958333 0 0 0 0.1 0"></feColorMatrix> <feBlend mode="normal" in2="BackgroundImageFix" result="effect1_dropShadow"></feBlend> <feBlend mode="normal" in="SourceGraphic" in2="effect1_dropShadow" result="shape"></feBlend> </filter> <filter id="filter14_d" x="499.059" y="145.348" width="114.472" height="101.067" filterUnits="userSpaceOnUse" color-interpolation-filters="sRGB"> <feFlood flood-opacity="0" result="BackgroundImageFix"></feFlood> <feColorMatrix in="SourceAlpha" type="matrix" values="0 0 0 0 0 0 0 0 0 0 0 0 0 0 0 0 0 0 127 0"></feColorMatrix> <feOffset dy="3"></feOffset> <feGaussianBlur stdDeviation="10"></feGaussianBlur> <feColorMatrix type="matrix" values="0 0 0 0 0.0958333 0 0 0 0 0.0958333 0 0 0 0 0.0958333 0 0 0 0.1 0"></feColorMatrix> <feBlend mode="normal" in2="BackgroundImageFix" result="effect1_dropShadow"></feBlend> <feBlend mode="normal" in="SourceGraphic" in2="effect1_dropShadow" result="shape"></feBlend> </filter> <filter id="filter15_d" x="1159.06" y="145.348" width="114.472" height="101.067" filterUnits="userSpaceOnUse" color-interpolation-filters="sRGB"> <feFlood flood-opacity="0" result="BackgroundImageFix"></feFlood> <feColorMatrix in="SourceAlpha" type="matrix" values="0 0 0 0 0 0 0 0 0 0 0 0 0 0 0 0 0 0 127 0"></feColorMatrix> <feOffset dy="3"></feOffset> <feGaussianBlur stdDeviation="10"></feGaussianBlur> <feColorMatrix type="matrix" values="0 0 0 0 0.0958333 0 0 0 0 0.0958333 0 0 0 0 0.0958333 0 0 0 0.1 0"></feColorMatrix> <feBlend mode="normal" in2="BackgroundImageFix" result="effect1_dropShadow"></feBlend> <feBlend mode="normal" in="SourceGraphic" in2="effect1_dropShadow" result="shape"></feBlend> </filter> <filter id="filter16_d" x="0" y="290.696" width="114.472" height="101.067" filterUnits="userSpaceOnUse" color-interpolation-filters="sRGB"> <feFlood flood-opacity="0" result="BackgroundImageFix"></feFlood> <feColorMatrix in="SourceAlpha" type="matrix" values="0 0 0 0 0 0 0 0 0 0 0 0 0 0 0 0 0 0 127 0"></feColorMatrix> <feOffset dy="3"></feOffset> <feGaussianBlur stdDeviation="10"></feGaussianBlur> <feColorMatrix type="matrix" values="0 0 0 0 0.0958333 0 0 0 0 0.0958333 0 0 0 0 0.0958333 0 0 0 0.1 0"></feColorMatrix> <feBlend mode="normal" in2="BackgroundImageFix" result="effect1_dropShadow"></feBlend> <feBlend mode="normal" in="SourceGraphic" in2="effect1_dropShadow" result="shape"></feBlend> </filter> <filter id="filter17_d" x="660" y="290.696" width="114.472" height="101.067" filterUnits="userSpaceOnUse" color-interpolation-filters="sRGB"> <feFlood flood-opacity="0" result="BackgroundImageFix"></feFlood> <feColorMatrix in="SourceAlpha" type="matrix" values="0 0 0 0 0 0 0 0 0 0 0 0 0 0 0 0 0 0 127 0"></feColorMatrix> <feOffset dy="3"></feOffset> <feGaussianBlur stdDeviation="10"></feGaussianBlur> <feColorMatrix type="matrix" values="0 0 0 0 0.0958333 0 0 0 0 0.0958333 0 0 0 0 0.0958333 0 0 0 0.1 0"></feColorMatrix> <feBlend mode="normal" in2="BackgroundImageFix" result="effect1_dropShadow"></feBlend> <feBlend mode="normal" in="SourceGraphic" in2="effect1_dropShadow" result="shape"></feBlend> </filter> <filter id="filter18_d" x="160.988" y="290.696" width="114.472" height="101.067" filterUnits="userSpaceOnUse" color-interpolation-filters="sRGB"> <feFlood flood-opacity="0" result="BackgroundImageFix"></feFlood> <feColorMatrix in="SourceAlpha" type="matrix" values="0 0 0 0 0 0 0 0 0 0 0 0 0 0 0 0 0 0 127 0"></feColorMatrix> <feOffset dy="3"></feOffset> <feGaussianBlur stdDeviation="10"></feGaussianBlur> <feColorMatrix type="matrix" values="0 0 0 0 0.0958333 0 0 0 0 0.0958333 0 0 0 0 0.0958333 0 0 0 0.1 0"></feColorMatrix> <feBlend mode="normal" in2="BackgroundImageFix" result="effect1_dropShadow"></feBlend> <feBlend mode="normal" in="SourceGraphic" in2="effect1_dropShadow" result="shape"></feBlend> </filter> <filter id="filter19_d" x="820.988" y="290.696" width="114.472" height="101.067" filterUnits="userSpaceOnUse" color-interpolation-filters="sRGB"> <feFlood flood-opacity="0" result="BackgroundImageFix"></feFlood> <feColorMatrix in="SourceAlpha" type="matrix" values="0 0 0 0 0 0 0 0 0 0 0 0 0 0 0 0 0 0 127 0"></feColorMatrix> <feOffset dy="3"></feOffset> <feGaussianBlur stdDeviation="10"></feGaussianBlur> <feColorMatrix type="matrix" values="0 0 0 0 0.0958333 0 0 0 0 0.0958333 0 0 0 0 0.0958333 0 0 0 0.1 0"></feColorMatrix> <feBlend mode="normal" in2="BackgroundImageFix" result="effect1_dropShadow"></feBlend> <feBlend mode="normal" in="SourceGraphic" in2="effect1_dropShadow" result="shape"></feBlend> </filter> <filter id="filter20_d" x="482.961" y="290.696" width="114.472" height="101.067" filterUnits="userSpaceOnUse" color-interpolation-filters="sRGB"> <feFlood flood-opacity="0" result="BackgroundImageFix"></feFlood> <feColorMatrix in="SourceAlpha" type="matrix" values="0 0 0 0 0 0 0 0 0 0 0 0 0 0 0 0 0 0 127 0"></feColorMatrix> <feOffset dy="3"></feOffset> <feGaussianBlur stdDeviation="10"></feGaussianBlur> <feColorMatrix type="matrix" values="0 0 0 0 0.0941176 0 0 0 0 0.0941176 0 0 0 0 0.0941176 0 0 0 0.1 0"></feColorMatrix> <feBlend mode="normal" in2="BackgroundImageFix" result="effect1_dropShadow"></feBlend> <feBlend mode="normal" in="SourceGraphic" in2="effect1_dropShadow" result="shape"></feBlend> </filter> <filter id="filter21_d" x="1142.96" y="290.696" width="114.472" height="101.067" filterUnits="userSpaceOnUse" color-interpolation-filters="sRGB"> <feFlood flood-opacity="0" result="BackgroundImageFix"></feFlood> <feColorMatrix in="SourceAlpha" type="matrix" values="0 0 0 0 0 0 0 0 0 0 0 0 0 0 0 0 0 0 127 0"></feColorMatrix> <feOffset dy="3"></feOffset> <feGaussianBlur stdDeviation="10"></feGaussianBlur> <feColorMatrix type="matrix" values="0 0 0 0 0.0941176 0 0 0 0 0.0941176 0 0 0 0 0.0941176 0 0 0 0.1 0"></feColorMatrix> <feBlend mode="normal" in2="BackgroundImageFix" result="effect1_dropShadow"></feBlend> <feBlend mode="normal" in="SourceGraphic" in2="effect1_dropShadow" result="shape"></feBlend> </filter> <filter id="filter22_d" x="321.973" y="290.696" width="114.472" height="101.067" filterUnits="userSpaceOnUse" color-interpolation-filters="sRGB"> <feFlood flood-opacity="0" result="BackgroundImageFix"></feFlood> <feColorMatrix in="SourceAlpha" type="matrix" values="0 0 0 0 0 0 0 0 0 0 0 0 0 0 0 0 0 0 127 0"></feColorMatrix> <feOffset dy="3"></feOffset> <feGaussianBlur stdDeviation="10"></feGaussianBlur> <feColorMatrix type="matrix" values="0 0 0 0 0.0958333 0 0 0 0 0.0958333 0 0 0 0 0.0958333 0 0 0 0.1 0"></feColorMatrix> <feBlend mode="normal" in2="BackgroundImageFix" result="effect1_dropShadow"></feBlend> <feBlend mode="normal" in="SourceGraphic" in2="effect1_dropShadow" result="shape"></feBlend> </filter> <filter id="filter23_d" x="981.973" y="290.696" width="114.472" height="101.067" filterUnits="userSpaceOnUse" color-interpolation-filters="sRGB"> <feFlood flood-opacity="0" result="BackgroundImageFix"></feFlood> <feColorMatrix in="SourceAlpha" type="matrix" values="0 0 0 0 0 0 0 0 0 0 0 0 0 0 0 0 0 0 127 0"></feColorMatrix> <feOffset dy="3"></feOffset> <feGaussianBlur stdDeviation="10"></feGaussianBlur> <feColorMatrix type="matrix" values="0 0 0 0 0.0958333 0 0 0 0 0.0958333 0 0 0 0 0.0958333 0 0 0 0.1 0"></feColorMatrix> <feBlend mode="normal" in2="BackgroundImageFix" result="effect1_dropShadow"></feBlend> <feBlend mode="normal" in="SourceGraphic" in2="effect1_dropShadow" result="shape"></feBlend> </filter> </defs> </svg> 