<?xml version="1.0" encoding="UTF-8"?> <svg xmlns="http://www.w3.org/2000/svg" width="480" height="65" viewBox="0 0 480 65" fill="none"> <path opacity="0.7" d="M23.6583 64.056C16.677 64.056 11.0743 61.8853 6.85034 57.544C2.62634 53.2027 0.514344 47.9227 0.514344 41.704C0.514344 35.4853 2.62634 30.2347 6.85034 25.952C11.0743 21.6107 16.677 19.44 23.6583 19.44C30.6983 19.44 36.3303 21.6107 40.5543 25.952C44.7783 30.2347 46.8903 35.4853 46.8903 41.704C46.8903 47.9227 44.7783 53.2027 40.5543 57.544C36.3303 61.8853 30.6983 64.056 23.6583 64.056ZM16.8823 49.184C18.525 51.12 20.7837 52.088 23.6583 52.088C26.533 52.088 28.7917 51.12 30.4343 49.184C32.1357 47.1893 32.9863 44.696 32.9863 41.704C32.9863 38.7707 32.1357 36.336 30.4343 34.4C28.7917 32.4053 26.533 31.408 23.6583 31.408C20.7837 31.408 18.525 32.4053 16.8823 34.4C15.2983 36.336 14.5063 38.7707 14.5063 41.704C14.5063 44.696 15.2983 47.1893 16.8823 49.184ZM75.6815 63H62.1295V32.288H50.5135V20.496H87.2095V32.288H75.6815V63ZM161.048 63H115.024V51.208C128.048 41.8213 136.32 35.4853 139.84 32.2C143.419 28.9147 145.208 25.8347 145.208 22.96C145.208 21.024 144.416 19.528 142.832 18.472C141.307 17.3573 139.4 16.8 137.112 16.8C131.246 16.8 126.024 18.9413 121.448 23.224L113.088 13.192C116.08 9.90666 119.688 7.472 123.912 5.888C128.136 4.24533 132.448 3.424 136.848 3.424C143.83 3.424 149.52 5.21333 153.92 8.792C158.379 12.3707 160.608 17.0933 160.608 22.96C160.608 27.36 158.966 31.6427 155.68 35.808C152.395 39.9733 147.027 44.6373 139.576 49.8H161.048V63ZM214.501 63H168.477V51.208C181.501 41.8213 189.773 35.4853 193.293 32.2C196.872 28.9147 198.661 25.8347 198.661 22.96C198.661 21.024 197.869 19.528 196.285 18.472C194.76 17.3573 192.853 16.8 190.565 16.8C184.699 16.8 179.477 18.9413 174.901 23.224L166.541 13.192C169.533 9.90666 173.141 7.472 177.365 5.888C181.589 4.24533 185.901 3.424 190.301 3.424C197.283 3.424 202.973 5.21333 207.373 8.792C211.832 12.3707 214.061 17.0933 214.061 22.96C214.061 27.36 212.419 31.6427 209.133 35.808C205.848 39.9733 200.48 44.6373 193.029 49.8H214.501V63ZM279.118 61.504C275.892 63.2053 272.196 64.056 268.03 64.056C263.865 64.056 260.14 63.2053 256.854 61.504C253.628 59.8027 250.988 57.5147 248.934 54.64C246.94 51.7653 245.414 48.568 244.358 45.048C243.361 41.4693 242.862 37.6853 242.862 33.696C242.862 28.2987 243.742 23.3707 245.502 18.912C247.262 14.4533 250.078 10.7573 253.95 7.824C257.881 4.89066 262.574 3.424 268.03 3.424C273.486 3.424 278.15 4.89066 282.022 7.824C285.953 10.7573 288.798 14.4533 290.558 18.912C292.318 23.3707 293.198 28.2987 293.198 33.696C293.198 37.6853 292.67 41.4693 291.614 45.048C290.617 48.568 289.092 51.7653 287.038 54.64C285.044 57.5147 282.404 59.8027 279.118 61.504ZM258.174 33.696C258.174 45.0187 261.46 50.68 268.03 50.68C274.601 50.68 277.886 45.0187 277.886 33.696C277.886 22.432 274.601 16.8 268.03 16.8C261.46 16.8 258.174 22.432 258.174 33.696ZM334.032 61.504C330.806 63.2053 327.11 64.056 322.944 64.056C318.779 64.056 315.054 63.2053 311.768 61.504C308.542 59.8027 305.902 57.5147 303.848 54.64C301.854 51.7653 300.328 48.568 299.272 45.048C298.275 41.4693 297.776 37.6853 297.776 33.696C297.776 28.2987 298.656 23.3707 300.416 18.912C302.176 14.4533 304.992 10.7573 308.864 7.824C312.795 4.89066 317.488 3.424 322.944 3.424C328.4 3.424 333.064 4.89066 336.936 7.824C340.867 10.7573 343.712 14.4533 345.472 18.912C347.232 23.3707 348.112 28.2987 348.112 33.696C348.112 37.6853 347.584 41.4693 346.528 45.048C345.531 48.568 344.006 51.7653 341.952 54.64C339.958 57.5147 337.318 59.8027 334.032 61.504ZM313.088 33.696C313.088 45.0187 316.374 50.68 322.944 50.68C329.515 50.68 332.8 45.0187 332.8 33.696C332.8 22.432 329.515 16.8 322.944 16.8C316.374 16.8 313.088 22.432 313.088 33.696ZM388.946 61.504C385.72 63.2053 382.024 64.056 377.858 64.056C373.693 64.056 369.968 63.2053 366.682 61.504C363.456 59.8027 360.816 57.5147 358.762 54.64C356.768 51.7653 355.242 48.568 354.186 45.048C353.189 41.4693 352.69 37.6853 352.69 33.696C352.69 28.2987 353.57 23.3707 355.33 18.912C357.09 14.4533 359.906 10.7573 363.778 7.824C367.709 4.89066 372.402 3.424 377.858 3.424C383.314 3.424 387.978 4.89066 391.85 7.824C395.781 10.7573 398.626 14.4533 400.386 18.912C402.146 23.3707 403.026 28.2987 403.026 33.696C403.026 37.6853 402.498 41.4693 401.442 45.048C400.445 48.568 398.92 51.7653 396.866 54.64C394.872 57.5147 392.232 59.8027 388.946 61.504ZM368.002 33.696C368.002 45.0187 371.288 50.68 377.858 50.68C384.429 50.68 387.714 45.0187 387.714 33.696C387.714 22.432 384.429 16.8 377.858 16.8C371.288 16.8 368.002 22.432 368.002 33.696ZM435.752 63V53.584H428.712V45.048H435.752V38.184H428.712V27.272H435.752V0.167996H455.816C463.912 0.167996 469.808 1.81066 473.504 5.096C477.259 8.38133 479.136 12.8987 479.136 18.648C479.136 22.0507 478.373 25.248 476.848 28.24C475.323 31.232 472.771 33.6373 469.192 35.456C465.672 37.2747 460.861 38.184 454.76 38.184H449.04V45.048H462.592V53.584H449.04V63H435.752ZM449.04 27.272H453.44C457.195 27.272 460.157 26.6267 462.328 25.336C464.557 24.0453 465.672 21.9627 465.672 19.088C465.672 13.7493 462.152 11.08 455.112 11.08H449.04V27.272Z" fill="url(#paint0_linear)"></path> <defs> <linearGradient id="paint0_linear" x1="480.819" y1="14.6011" x2="358.191" y2="251.813" gradientUnits="userSpaceOnUse"> <stop stop-color="#64C5E9"></stop> <stop offset="1" stop-color="#A9F0C5"></stop> </linearGradient> </defs> </svg> 