<?xml version="1.0" encoding="UTF-8"?> <svg xmlns="http://www.w3.org/2000/svg" width="271" height="273" viewBox="0 0 271 273" fill="none"> <g filter="url(#filter0_d)"> <rect y="223" width="197" height="42" rx="21" fill="white"></rect> </g> <path d="M30.144 249H28.816V239.512H22.576V249H21.248V238.328H30.144V249ZM36.0786 249.192C34.9266 249.192 33.9826 248.819 33.2466 248.072C32.5106 247.315 32.1426 246.333 32.1426 245.128C32.1426 243.997 32.5053 243.043 33.2306 242.264C33.956 241.475 34.8626 241.08 35.9506 241.08C37.092 241.08 37.9933 241.475 38.6546 242.264C39.3266 243.043 39.6626 244.029 39.6626 245.224V245.528H33.4066C33.46 246.285 33.7373 246.92 34.2386 247.432C34.74 247.944 35.3906 248.2 36.1906 248.2C37.1506 248.2 37.9453 247.875 38.5746 247.224L39.1506 248.008C38.3613 248.797 37.3373 249.192 36.0786 249.192ZM38.4786 244.648C38.468 243.987 38.244 243.395 37.8066 242.872C37.3693 242.339 36.7453 242.072 35.9346 242.072C35.1666 242.072 34.5586 242.333 34.1106 242.856C33.6733 243.379 33.4386 243.976 33.4066 244.648H38.4786ZM45.4143 249.192C44.3263 249.192 43.4569 248.739 42.8063 247.832V251.944H41.6063V241.272H42.8063V242.424C43.0943 242.019 43.4676 241.693 43.9263 241.448C44.3849 241.203 44.8809 241.08 45.4143 241.08C46.4383 241.08 47.2649 241.448 47.8943 242.184C48.5343 242.909 48.8542 243.891 48.8542 245.128C48.8542 246.365 48.5343 247.352 47.8943 248.088C47.2649 248.824 46.4383 249.192 45.4143 249.192ZM45.1102 248.12C45.8676 248.12 46.4703 247.843 46.9183 247.288C47.3663 246.723 47.5903 246.003 47.5903 245.128C47.5903 244.253 47.3663 243.539 46.9183 242.984C46.4703 242.429 45.8676 242.152 45.1102 242.152C44.6516 242.152 44.2036 242.275 43.7663 242.52C43.3396 242.755 43.0196 243.043 42.8063 243.384V246.872C43.0196 247.224 43.3396 247.523 43.7663 247.768C44.2036 248.003 44.6516 248.12 45.1102 248.12ZM54.2505 249.192C53.0985 249.192 52.1545 248.819 51.4185 248.072C50.6825 247.315 50.3145 246.333 50.3145 245.128C50.3145 243.997 50.6772 243.043 51.4025 242.264C52.1278 241.475 53.0345 241.08 54.1225 241.08C55.2638 241.08 56.1652 241.475 56.8265 242.264C57.4985 243.043 57.8345 244.029 57.8345 245.224V245.528H51.5785C51.6318 246.285 51.9092 246.92 52.4105 247.432C52.9118 247.944 53.5625 248.2 54.3625 248.2C55.3225 248.2 56.1172 247.875 56.7465 247.224L57.3225 248.008C56.5332 248.797 55.5092 249.192 54.2505 249.192ZM56.6505 244.648C56.6398 243.987 56.4158 243.395 55.9785 242.872C55.5412 242.339 54.9172 242.072 54.1065 242.072C53.3385 242.072 52.7305 242.333 52.2825 242.856C51.8452 243.379 51.6105 243.976 51.5785 244.648H56.6505ZM61.2661 247.256C61.7355 247.832 62.3648 248.12 63.1541 248.12C63.9435 248.12 64.5675 247.832 65.0261 247.256C65.4848 246.669 65.7141 245.955 65.7141 245.112C65.7141 244.291 65.4848 243.592 65.0261 243.016C64.5675 242.44 63.9435 242.152 63.1541 242.152C62.3648 242.152 61.7355 242.44 61.2661 243.016C60.8075 243.592 60.5781 244.291 60.5781 245.112C60.5781 245.955 60.8075 246.669 61.2661 247.256ZM63.1541 249.192C61.9915 249.192 61.0635 248.781 60.3701 247.96C59.6768 247.139 59.3301 246.077 59.3301 244.776C59.3301 242.941 59.6608 241.587 60.3221 240.712C60.9835 239.827 62.0021 239.293 63.3781 239.112C64.1995 238.984 64.7648 238.861 65.0741 238.744C65.3941 238.627 65.5541 238.488 65.5541 238.328H66.7221C66.7221 238.627 66.6315 238.888 66.4501 239.112C66.2688 239.325 66.0075 239.496 65.6661 239.624C65.3355 239.752 65.0208 239.853 64.7221 239.928C64.4341 239.992 64.0875 240.051 63.6821 240.104C62.6155 240.253 61.8421 240.547 61.3621 240.984C60.8928 241.421 60.5835 242.003 60.4341 242.728C61.1381 241.629 62.1088 241.08 63.3461 241.08C64.4128 241.08 65.2821 241.469 65.9541 242.248C66.6261 243.027 66.9621 243.981 66.9621 245.112C66.9621 246.264 66.6155 247.235 65.9221 248.024C65.2288 248.803 64.3061 249.192 63.1541 249.192ZM70.1645 249H69.0125V241.272H70.2125V247.176L74.2605 241.272H75.4445V249H74.2445V242.984L70.1645 249ZM82.1766 249H77.8406V241.272H82.0966C82.7686 241.272 83.2966 241.453 83.6806 241.816C84.0753 242.179 84.2726 242.659 84.2726 243.256C84.2726 243.693 84.15 244.072 83.9046 244.392C83.67 244.701 83.3766 244.909 83.0246 245.016C83.4193 245.112 83.75 245.341 84.0166 245.704C84.294 246.067 84.4326 246.467 84.4326 246.904C84.4326 247.533 84.23 248.04 83.8246 248.424C83.43 248.808 82.8806 249 82.1766 249ZM81.9366 247.944C82.3206 247.944 82.6246 247.837 82.8486 247.624C83.0726 247.411 83.1846 247.123 83.1846 246.76C83.1846 246.429 83.0726 246.147 82.8486 245.912C82.6246 245.677 82.3206 245.56 81.9366 245.56H79.0406V247.944H81.9366ZM81.8886 244.504C82.2513 244.504 82.534 244.408 82.7366 244.216C82.9393 244.013 83.0406 243.752 83.0406 243.432C83.0406 243.091 82.9393 242.824 82.7366 242.632C82.534 242.429 82.2513 242.328 81.8886 242.328H79.0406V244.504H81.8886ZM92.732 249H91.532V248.12C90.8813 248.835 90.028 249.192 88.972 249.192C88.2573 249.192 87.628 248.963 87.084 248.504C86.54 248.045 86.268 247.421 86.268 246.632C86.268 245.821 86.5347 245.197 87.068 244.76C87.612 244.312 88.2467 244.088 88.972 244.088C90.0707 244.088 90.924 244.44 91.532 245.144V243.752C91.532 243.24 91.3507 242.84 90.988 242.552C90.6253 242.264 90.156 242.12 89.58 242.12C88.6733 242.12 87.884 242.477 87.212 243.192L86.652 242.36C87.4733 241.507 88.5027 241.08 89.74 241.08C90.6253 241.08 91.3453 241.293 91.9 241.72C92.4547 242.147 92.732 242.803 92.732 243.688V249ZM89.404 248.328C90.364 248.328 91.0733 248.008 91.532 247.368V245.912C91.0733 245.272 90.364 244.952 89.404 244.952C88.8493 244.952 88.3907 245.112 88.028 245.432C87.676 245.741 87.5 246.147 87.5 246.648C87.5 247.139 87.676 247.544 88.028 247.864C88.3907 248.173 88.8493 248.328 89.404 248.328ZM94.2255 249.192V248.2C94.5882 248.2 94.8868 247.96 95.1215 247.48C95.3562 247 95.5482 246.2 95.6975 245.08L96.1935 241.272H101.57V249H100.37V242.328H97.2495L96.8975 245.224C96.7268 246.643 96.4282 247.661 96.0015 248.28C95.5748 248.888 94.9828 249.192 94.2255 249.192ZM109.998 249H108.798V248.12C108.147 248.835 107.294 249.192 106.238 249.192C105.523 249.192 104.894 248.963 104.35 248.504C103.806 248.045 103.534 247.421 103.534 246.632C103.534 245.821 103.8 245.197 104.334 244.76C104.878 244.312 105.512 244.088 106.238 244.088C107.336 244.088 108.19 244.44 108.798 245.144V243.752C108.798 243.24 108.616 242.84 108.254 242.552C107.891 242.264 107.422 242.12 106.846 242.12C105.939 242.12 105.15 242.477 104.478 243.192L103.918 242.36C104.739 241.507 105.768 241.08 107.006 241.08C107.891 241.08 108.611 241.293 109.166 241.72C109.72 242.147 109.998 242.803 109.998 243.688V249ZM106.67 248.328C107.63 248.328 108.339 248.008 108.798 247.368V245.912C108.339 245.272 107.63 244.952 106.67 244.952C106.115 244.952 105.656 245.112 105.294 245.432C104.942 245.741 104.766 246.147 104.766 246.648C104.766 247.139 104.942 247.544 105.294 247.864C105.656 248.173 106.115 248.328 106.67 248.328ZM123.328 249H121.792L119.008 245.528L117.728 246.792V249H116.528V241.272H117.728V245.384L121.792 241.272H123.312L119.888 244.776L123.328 249ZM123.835 249.192V248.2C124.198 248.2 124.496 247.96 124.731 247.48C124.966 247 125.158 246.2 125.307 245.08L125.803 241.272H131.179V249H129.979V242.328H126.859L126.507 245.224C126.336 246.643 126.038 247.661 125.611 248.28C125.184 248.888 124.592 249.192 123.835 249.192ZM134.727 249H133.575V241.272H134.775V247.176L138.823 241.272H140.007V249H138.807V242.984L134.727 249ZM145.891 249.192C144.739 249.192 143.795 248.819 143.059 248.072C142.323 247.315 141.955 246.333 141.955 245.128C141.955 243.997 142.318 243.043 143.043 242.264C143.768 241.475 144.675 241.08 145.763 241.08C146.904 241.08 147.806 241.475 148.467 242.264C149.139 243.043 149.475 244.029 149.475 245.224V245.528H143.219C143.272 246.285 143.55 246.92 144.051 247.432C144.552 247.944 145.203 248.2 146.003 248.2C146.963 248.2 147.758 247.875 148.387 247.224L148.963 248.008C148.174 248.797 147.15 249.192 145.891 249.192ZM148.291 244.648C148.28 243.987 148.056 243.395 147.619 242.872C147.182 242.339 146.558 242.072 145.747 242.072C144.979 242.072 144.371 242.333 143.923 242.856C143.486 243.379 143.251 243.976 143.219 244.648H148.291ZM152.619 249H151.419V241.272H152.619V244.488H156.651V241.272H157.851V249H156.651V245.544H152.619V249ZM162.855 249H161.655V242.328H159.415V241.272H165.111V242.328H162.855V249ZM172.716 249H171.516V248.12C170.866 248.835 170.012 249.192 168.956 249.192C168.242 249.192 167.612 248.963 167.068 248.504C166.524 248.045 166.252 247.421 166.252 246.632C166.252 245.821 166.519 245.197 167.052 244.76C167.596 244.312 168.231 244.088 168.956 244.088C170.055 244.088 170.908 244.44 171.516 245.144V243.752C171.516 243.24 171.335 242.84 170.972 242.552C170.61 242.264 170.14 242.12 169.564 242.12C168.658 242.12 167.868 242.477 167.196 243.192L166.636 242.36C167.458 241.507 168.487 241.08 169.724 241.08C170.61 241.08 171.33 241.293 171.884 241.72C172.439 242.147 172.716 242.803 172.716 243.688V249ZM169.388 248.328C170.348 248.328 171.058 248.008 171.516 247.368V245.912C171.058 245.272 170.348 244.952 169.388 244.952C168.834 244.952 168.375 245.112 168.012 245.432C167.66 245.741 167.484 246.147 167.484 246.648C167.484 247.139 167.66 247.544 168.012 247.864C168.375 248.173 168.834 248.328 169.388 248.328Z" fill="#E1523E"></path> <g filter="url(#filter1_d)"> <rect x="35" width="223" height="42" rx="21" fill="white"></rect> </g> <path d="M65.144 26H63.816V16.512H57.576V26H56.248V15.328H65.144V26ZM71.3986 26.192C70.3106 26.192 69.4413 25.7387 68.7906 24.832V28.944H67.5906V18.272H68.7906V19.424C69.0786 19.0187 69.452 18.6933 69.9106 18.448C70.3693 18.2027 70.8653 18.08 71.3986 18.08C72.4226 18.08 73.2493 18.448 73.8786 19.184C74.5186 19.9093 74.8386 20.8907 74.8386 22.128C74.8386 23.3653 74.5186 24.352 73.8786 25.088C73.2493 25.824 72.4226 26.192 71.3986 26.192ZM71.0946 25.12C71.852 25.12 72.4546 24.8427 72.9026 24.288C73.3506 23.7227 73.5746 23.0027 73.5746 22.128C73.5746 21.2533 73.3506 20.5387 72.9026 19.984C72.4546 19.4293 71.852 19.152 71.0946 19.152C70.636 19.152 70.188 19.2747 69.7506 19.52C69.324 19.7547 69.004 20.0427 68.7906 20.384V23.872C69.004 24.224 69.324 24.5227 69.7506 24.768C70.188 25.0027 70.636 25.12 71.0946 25.12ZM82.8909 25.024C82.1975 25.8027 81.2749 26.192 80.1229 26.192C78.9709 26.192 78.0429 25.8027 77.3389 25.024C76.6455 24.2453 76.2989 23.28 76.2989 22.128C76.2989 20.976 76.6455 20.016 77.3389 19.248C78.0429 18.4693 78.9709 18.08 80.1229 18.08C81.2749 18.08 82.1975 18.4693 82.8909 19.248C83.5949 20.016 83.9469 20.976 83.9469 22.128C83.9469 23.28 83.5949 24.2453 82.8909 25.024ZM78.2349 24.256C78.7042 24.832 79.3335 25.12 80.1229 25.12C80.9122 25.12 81.5362 24.832 81.9949 24.256C82.4535 23.6693 82.6829 22.96 82.6829 22.128C82.6829 21.296 82.4535 20.592 81.9949 20.016C81.5362 19.44 80.9122 19.152 80.1229 19.152C79.3335 19.152 78.7042 19.4453 78.2349 20.032C77.7762 20.608 77.5469 21.3067 77.5469 22.128C77.5469 22.96 77.7762 23.6693 78.2349 24.256ZM92.3351 26H91.1351V19.328H87.1031V26H85.9031V18.272H92.3351V26ZM94.2993 29.024L94.4913 27.936C94.6833 28.0213 94.9019 28.064 95.1473 28.064C95.4246 28.064 95.6539 28.0053 95.8353 27.888C96.0166 27.7707 96.1713 27.5573 96.2993 27.248L96.8113 26.08L93.5793 18.272H94.8753L97.4513 24.608L100.011 18.272H101.323L97.4513 27.568C97.0246 28.592 96.2673 29.1147 95.1793 29.136C94.8593 29.136 94.5659 29.0987 94.2993 29.024ZM105.983 26.192C104.842 26.192 103.914 25.808 103.199 25.04C102.484 24.2613 102.127 23.2907 102.127 22.128C102.127 20.9653 102.484 20 103.199 19.232C103.914 18.464 104.842 18.08 105.983 18.08C107.178 18.08 108.122 18.528 108.815 19.424L108.015 20.16C107.524 19.488 106.868 19.152 106.047 19.152C105.236 19.152 104.586 19.4293 104.095 19.984C103.615 20.5387 103.375 21.2533 103.375 22.128C103.375 23.0027 103.615 23.7227 104.095 24.288C104.586 24.8427 105.236 25.12 106.047 25.12C106.858 25.12 107.514 24.784 108.015 24.112L108.815 24.848C108.122 25.744 107.178 26.192 105.983 26.192ZM117.297 26H115.761L112.977 22.528L111.697 23.792V26H110.497V18.272H111.697V22.384L115.761 18.272H117.281L113.857 21.776L117.297 26ZM124.748 26H123.548V25.12C122.897 25.8347 122.044 26.192 120.988 26.192C120.273 26.192 119.644 25.9627 119.1 25.504C118.556 25.0453 118.284 24.4213 118.284 23.632C118.284 22.8213 118.55 22.1973 119.084 21.76C119.628 21.312 120.262 21.088 120.988 21.088C122.086 21.088 122.94 21.44 123.548 22.144V20.752C123.548 20.24 123.366 19.84 123.004 19.552C122.641 19.264 122.172 19.12 121.596 19.12C120.689 19.12 119.9 19.4773 119.228 20.192L118.668 19.36C119.489 18.5067 120.518 18.08 121.756 18.08C122.641 18.08 123.361 18.2933 123.916 18.72C124.47 19.1467 124.748 19.8027 124.748 20.688V26ZM121.42 25.328C122.38 25.328 123.089 25.008 123.548 24.368V22.912C123.089 22.272 122.38 21.952 121.42 21.952C120.865 21.952 120.406 22.112 120.044 22.432C119.692 22.7413 119.516 23.1467 119.516 23.648C119.516 24.1387 119.692 24.544 120.044 24.864C120.406 25.1733 120.865 25.328 121.42 25.328ZM126.241 26.192V25.2C126.604 25.2 126.902 24.96 127.137 24.48C127.372 24 127.564 23.2 127.713 22.08L128.209 18.272H133.585V26H132.385V19.328H129.265L128.913 22.224C128.742 23.6427 128.444 24.6613 128.017 25.28C127.59 25.888 126.998 26.192 126.241 26.192ZM143.722 26.192C142.08 26.192 140.826 25.6213 139.962 24.48L140.778 23.6C141.514 24.5387 142.496 25.008 143.722 25.008C144.448 25.008 145.04 24.7893 145.498 24.352C145.957 23.9147 146.186 23.3707 146.186 22.72C146.186 22.0267 145.957 21.472 145.498 21.056C145.05 20.6293 144.464 20.416 143.738 20.416C142.778 20.416 141.957 20.752 141.274 21.424L140.298 21.088V15.328H146.826V16.512H141.626V20.224C142.266 19.584 143.098 19.264 144.122 19.264C145.061 19.264 145.861 19.5733 146.522 20.192C147.184 20.8 147.514 21.6267 147.514 22.672C147.514 23.7387 147.157 24.592 146.442 25.232C145.728 25.872 144.821 26.192 143.722 26.192ZM153.24 26.192C152.536 26.192 151.912 26.032 151.368 25.712C150.834 25.3813 150.408 24.944 150.088 24.4C149.778 23.856 149.544 23.2693 149.384 22.64C149.234 22.0107 149.16 21.3547 149.16 20.672C149.16 19.9893 149.234 19.3333 149.384 18.704C149.544 18.0747 149.778 17.4933 150.088 16.96C150.408 16.416 150.834 15.984 151.368 15.664C151.912 15.3333 152.536 15.168 153.24 15.168C153.933 15.168 154.552 15.3333 155.096 15.664C155.64 15.984 156.066 16.416 156.376 16.96C156.696 17.4933 156.93 18.0747 157.08 18.704C157.24 19.3333 157.32 19.9893 157.32 20.672C157.32 21.3547 157.24 22.0107 157.08 22.64C156.93 23.2693 156.696 23.856 156.376 24.4C156.066 24.944 155.64 25.3813 155.096 25.712C154.552 26.032 153.933 26.192 153.24 26.192ZM151.64 24.352C152.066 24.7893 152.6 25.008 153.24 25.008C153.88 25.008 154.413 24.7893 154.84 24.352C155.266 23.904 155.56 23.3707 155.72 22.752C155.88 22.1333 155.96 21.44 155.96 20.672C155.96 19.904 155.88 19.2107 155.72 18.592C155.56 17.9733 155.266 17.4453 154.84 17.008C154.413 16.5707 153.88 16.352 153.24 16.352C152.6 16.352 152.066 16.5707 151.64 17.008C151.213 17.4453 150.92 17.9733 150.76 18.592C150.6 19.2107 150.52 19.904 150.52 20.672C150.52 21.44 150.6 22.1333 150.76 22.752C150.92 23.3707 151.213 23.904 151.64 24.352ZM163.053 19.696C162.573 20.1867 161.954 20.432 161.197 20.432C160.439 20.432 159.821 20.1867 159.341 19.696C158.871 19.1947 158.637 18.5707 158.637 17.824C158.637 17.0667 158.877 16.4373 159.357 15.936C159.837 15.424 160.45 15.168 161.197 15.168C161.954 15.168 162.573 15.424 163.053 15.936C163.543 16.4373 163.789 17.0667 163.789 17.824C163.789 18.5707 163.543 19.1947 163.053 19.696ZM161.053 26H160.189L167.005 15.328H167.885L161.053 26ZM168.621 25.456C168.141 25.9467 167.522 26.192 166.765 26.192C166.007 26.192 165.389 25.9467 164.909 25.456C164.439 24.9547 164.205 24.3307 164.205 23.584C164.205 22.8267 164.445 22.1973 164.925 21.696C165.405 21.184 166.018 20.928 166.765 20.928C167.522 20.928 168.141 21.184 168.621 21.696C169.101 22.1973 169.341 22.8267 169.341 23.584C169.341 24.3307 169.101 24.9547 168.621 25.456ZM160.045 19.12C160.343 19.4613 160.727 19.632 161.197 19.632C161.666 19.632 162.055 19.4613 162.365 19.12C162.674 18.768 162.829 18.336 162.829 17.824C162.829 17.2907 162.674 16.8533 162.365 16.512C162.066 16.16 161.677 15.984 161.197 15.984C160.727 15.984 160.343 16.16 160.045 16.512C159.746 16.8533 159.597 17.2907 159.597 17.824C159.597 18.336 159.746 18.768 160.045 19.12ZM165.597 24.88C165.906 25.2213 166.295 25.392 166.765 25.392C167.234 25.392 167.623 25.2213 167.933 24.88C168.242 24.528 168.397 24.096 168.397 23.584C168.397 23.0507 168.242 22.6133 167.933 22.272C167.634 21.92 167.245 21.744 166.765 21.744C166.285 21.744 165.895 21.92 165.597 22.272C165.298 22.6133 165.149 23.0507 165.149 23.584C165.149 24.096 165.298 24.528 165.597 24.88ZM177.905 26.192C176.422 26.192 175.259 25.7707 174.417 24.928L175.009 24.16C175.734 24.8533 176.699 25.2 177.905 25.2C178.598 25.2 179.147 25.0773 179.553 24.832C179.969 24.5867 180.177 24.2613 180.177 23.856C180.177 23.0027 179.366 22.576 177.745 22.576H176.017V21.6H177.745C178.417 21.6 178.966 21.4933 179.393 21.28C179.819 21.056 180.033 20.7307 180.033 20.304C180.033 19.9413 179.819 19.648 179.393 19.424C178.966 19.1893 178.427 19.072 177.777 19.072C176.699 19.072 175.835 19.4027 175.185 20.064L174.561 19.328C175.361 18.5067 176.417 18.096 177.729 18.096C178.785 18.0853 179.638 18.2667 180.289 18.64C180.95 19.0027 181.281 19.5093 181.281 20.16C181.281 20.6933 181.062 21.1253 180.625 21.456C180.198 21.7867 179.723 21.984 179.201 22.048C179.745 22.0907 180.251 22.272 180.721 22.592C181.201 22.912 181.441 23.36 181.441 23.936C181.441 24.5973 181.121 25.1413 180.481 25.568C179.851 25.984 178.993 26.192 177.905 26.192ZM187.724 26H183.388V18.272H187.644C188.316 18.272 188.844 18.4533 189.228 18.816C189.622 19.1787 189.82 19.6587 189.82 20.256C189.82 20.6933 189.697 21.072 189.452 21.392C189.217 21.7013 188.924 21.9093 188.572 22.016C188.966 22.112 189.297 22.3413 189.564 22.704C189.841 23.0667 189.98 23.4667 189.98 23.904C189.98 24.5333 189.777 25.04 189.372 25.424C188.977 25.808 188.428 26 187.724 26ZM187.484 24.944C187.868 24.944 188.172 24.8373 188.396 24.624C188.62 24.4107 188.732 24.1227 188.732 23.76C188.732 23.4293 188.62 23.1467 188.396 22.912C188.172 22.6773 187.868 22.56 187.484 22.56H184.588V24.944H187.484ZM187.436 21.504C187.798 21.504 188.081 21.408 188.284 21.216C188.486 21.0133 188.588 20.752 188.588 20.432C188.588 20.0907 188.486 19.824 188.284 19.632C188.081 19.4293 187.798 19.328 187.436 19.328H184.588V21.504H187.436ZM198.391 25.024C197.698 25.8027 196.775 26.192 195.623 26.192C194.471 26.192 193.543 25.8027 192.839 25.024C192.146 24.2453 191.799 23.28 191.799 22.128C191.799 20.976 192.146 20.016 192.839 19.248C193.543 18.4693 194.471 18.08 195.623 18.08C196.775 18.08 197.698 18.4693 198.391 19.248C199.095 20.016 199.447 20.976 199.447 22.128C199.447 23.28 199.095 24.2453 198.391 25.024ZM193.735 24.256C194.204 24.832 194.834 25.12 195.623 25.12C196.412 25.12 197.036 24.832 197.495 24.256C197.954 23.6693 198.183 22.96 198.183 22.128C198.183 21.296 197.954 20.592 197.495 20.016C197.036 19.44 196.412 19.152 195.623 19.152C194.834 19.152 194.204 19.4453 193.735 20.032C193.276 20.608 193.047 21.3067 193.047 22.128C193.047 22.96 193.276 23.6693 193.735 24.256ZM202.603 26H201.403V18.272H202.603V21.488H206.635V18.272H207.835V26H206.635V22.544H202.603V26ZM217.031 26H215.495L212.711 22.528L211.431 23.792V26H210.231V18.272H211.431V22.384L215.495 18.272H217.015L213.591 21.776L217.031 26ZM224.547 25.024C223.854 25.8027 222.931 26.192 221.779 26.192C220.627 26.192 219.699 25.8027 218.995 25.024C218.302 24.2453 217.955 23.28 217.955 22.128C217.955 20.976 218.302 20.016 218.995 19.248C219.699 18.4693 220.627 18.08 221.779 18.08C222.931 18.08 223.854 18.4693 224.547 19.248C225.251 20.016 225.603 20.976 225.603 22.128C225.603 23.28 225.251 24.2453 224.547 25.024ZM219.891 24.256C220.36 24.832 220.99 25.12 221.779 25.12C222.568 25.12 223.192 24.832 223.651 24.256C224.11 23.6693 224.339 22.96 224.339 22.128C224.339 21.296 224.11 20.592 223.651 20.016C223.192 19.44 222.568 19.152 221.779 19.152C220.99 19.152 220.36 19.4453 219.891 20.032C219.432 20.608 219.203 21.3067 219.203 22.128C219.203 22.96 219.432 23.6693 219.891 24.256ZM231.895 26H227.559V18.272H231.815C232.487 18.272 233.015 18.4533 233.399 18.816C233.794 19.1787 233.991 19.6587 233.991 20.256C233.991 20.6933 233.869 21.072 233.623 21.392C233.389 21.7013 233.095 21.9093 232.743 22.016C233.138 22.112 233.469 22.3413 233.735 22.704C234.013 23.0667 234.151 23.4667 234.151 23.904C234.151 24.5333 233.949 25.04 233.543 25.424C233.149 25.808 232.599 26 231.895 26ZM231.655 24.944C232.039 24.944 232.343 24.8373 232.567 24.624C232.791 24.4107 232.903 24.1227 232.903 23.76C232.903 23.4293 232.791 23.1467 232.567 22.912C232.343 22.6773 232.039 22.56 231.655 22.56H228.759V24.944H231.655ZM231.607 21.504C231.97 21.504 232.253 21.408 232.455 21.216C232.658 21.0133 232.759 20.752 232.759 20.432C232.759 20.0907 232.658 19.824 232.455 19.632C232.253 19.4293 231.97 19.328 231.607 19.328H228.759V21.504H231.607Z" fill="#E1523E"></path> <g filter="url(#filter2_d)"> <rect x="55" y="108" width="216" height="42" rx="21" fill="white"></rect> </g> <path d="M85.144 134H83.816V124.512H77.576V134H76.248V123.328H85.144V134ZM93.7346 133.024C93.0413 133.803 92.1186 134.192 90.9666 134.192C89.8146 134.192 88.8866 133.803 88.1826 133.024C87.4893 132.245 87.1426 131.28 87.1426 130.128C87.1426 128.976 87.4893 128.016 88.1826 127.248C88.8866 126.469 89.8146 126.08 90.9666 126.08C92.1186 126.08 93.0413 126.469 93.7346 127.248C94.4386 128.016 94.7906 128.976 94.7906 130.128C94.7906 131.28 94.4386 132.245 93.7346 133.024ZM89.0786 132.256C89.548 132.832 90.1773 133.12 90.9666 133.12C91.756 133.12 92.38 132.832 92.8386 132.256C93.2973 131.669 93.5266 130.96 93.5266 130.128C93.5266 129.296 93.2973 128.592 92.8386 128.016C92.38 127.44 91.756 127.152 90.9666 127.152C90.1773 127.152 89.548 127.445 89.0786 128.032C88.62 128.608 88.3906 129.307 88.3906 130.128C88.3906 130.96 88.62 131.669 89.0786 132.256ZM104.635 134H103.435V127.936L100.923 134H100.475L97.9469 127.936V134H96.7469V126.272H98.3309L100.699 132L103.035 126.272H104.635V134ZM113.172 133.024C112.479 133.803 111.556 134.192 110.404 134.192C109.252 134.192 108.324 133.803 107.62 133.024C106.927 132.245 106.58 131.28 106.58 130.128C106.58 128.976 106.927 128.016 107.62 127.248C108.324 126.469 109.252 126.08 110.404 126.08C111.556 126.08 112.479 126.469 113.172 127.248C113.876 128.016 114.228 128.976 114.228 130.128C114.228 131.28 113.876 132.245 113.172 133.024ZM108.516 132.256C108.985 132.832 109.615 133.12 110.404 133.12C111.193 133.12 111.817 132.832 112.276 132.256C112.735 131.669 112.964 130.96 112.964 130.128C112.964 129.296 112.735 128.592 112.276 128.016C111.817 127.44 111.193 127.152 110.404 127.152C109.615 127.152 108.985 127.445 108.516 128.032C108.057 128.608 107.828 129.307 107.828 130.128C107.828 130.96 108.057 131.669 108.516 132.256ZM121.592 126.272V127.328H117.384V134H116.184V126.272H121.592ZM134.078 134H132.542L129.758 130.528L128.478 131.792V134H127.278V126.272H128.478V130.384L132.542 126.272H134.062L130.638 129.776L134.078 134ZM134.585 134.192V133.2C134.948 133.2 135.246 132.96 135.481 132.48C135.716 132 135.908 131.2 136.057 130.08L136.553 126.272H141.929V134H140.729V127.328H137.609L137.257 130.224C137.086 131.643 136.788 132.661 136.361 133.28C135.934 133.888 135.342 134.192 134.585 134.192ZM145.477 134H144.325V126.272H145.525V132.176L149.573 126.272H150.757V134H149.557V127.984L145.477 134ZM156.641 134.192C155.489 134.192 154.545 133.819 153.809 133.072C153.073 132.315 152.705 131.333 152.705 130.128C152.705 128.997 153.068 128.043 153.793 127.264C154.518 126.475 155.425 126.08 156.513 126.08C157.654 126.08 158.556 126.475 159.217 127.264C159.889 128.043 160.225 129.029 160.225 130.224V130.528H153.969C154.022 131.285 154.3 131.92 154.801 132.432C155.302 132.944 155.953 133.2 156.753 133.2C157.713 133.2 158.508 132.875 159.137 132.224L159.713 133.008C158.924 133.797 157.9 134.192 156.641 134.192ZM159.041 129.648C159.03 128.987 158.806 128.395 158.369 127.872C157.932 127.339 157.308 127.072 156.497 127.072C155.729 127.072 155.121 127.333 154.673 127.856C154.236 128.379 154.001 128.976 153.969 129.648H159.041ZM163.369 134H162.169V126.272H163.369V129.488H167.401V126.272H168.601V134H167.401V130.544H163.369V134ZM173.605 134H172.405V127.328H170.165V126.272H175.861V127.328H173.605V134ZM177.002 137.024L177.194 135.936C177.386 136.021 177.605 136.064 177.85 136.064C178.128 136.064 178.357 136.005 178.538 135.888C178.72 135.771 178.874 135.557 179.002 135.248L179.514 134.08L176.282 126.272H177.578L180.154 132.608L182.714 126.272H184.026L180.154 135.568C179.728 136.592 178.97 137.115 177.882 137.136C177.562 137.136 177.269 137.099 177.002 137.024ZM193.739 134H189.403V126.272H193.659C194.331 126.272 194.859 126.453 195.243 126.816C195.638 127.179 195.835 127.659 195.835 128.256C195.835 128.693 195.712 129.072 195.467 129.392C195.232 129.701 194.939 129.909 194.587 130.016C194.982 130.112 195.312 130.341 195.579 130.704C195.856 131.067 195.995 131.467 195.995 131.904C195.995 132.533 195.792 133.04 195.387 133.424C194.992 133.808 194.443 134 193.739 134ZM193.499 132.944C193.883 132.944 194.187 132.837 194.411 132.624C194.635 132.411 194.747 132.123 194.747 131.76C194.747 131.429 194.635 131.147 194.411 130.912C194.187 130.677 193.883 130.56 193.499 130.56H190.603V132.944H193.499ZM193.451 129.504C193.814 129.504 194.096 129.408 194.299 129.216C194.502 129.013 194.603 128.752 194.603 128.432C194.603 128.091 194.502 127.824 194.299 127.632C194.096 127.429 193.814 127.328 193.451 127.328H190.603V129.504H193.451ZM198.263 126.272H199.463V129.264H202.359C203.127 129.264 203.724 129.493 204.151 129.952C204.577 130.4 204.791 130.96 204.791 131.632C204.791 132.304 204.572 132.869 204.135 133.328C203.708 133.776 203.116 134 202.359 134H198.263V126.272ZM202.231 130.32H199.463V132.944H202.231C202.657 132.944 202.983 132.827 203.207 132.592C203.441 132.347 203.559 132.027 203.559 131.632C203.559 131.237 203.441 130.923 203.207 130.688C202.983 130.443 202.657 130.32 202.231 130.32ZM207.255 134H206.055V126.272H207.255V134ZM211.141 132.256C211.61 132.832 212.24 133.12 213.029 133.12C213.818 133.12 214.442 132.832 214.901 132.256C215.36 131.669 215.589 130.955 215.589 130.112C215.589 129.291 215.36 128.592 214.901 128.016C214.442 127.44 213.818 127.152 213.029 127.152C212.24 127.152 211.61 127.44 211.141 128.016C210.682 128.592 210.453 129.291 210.453 130.112C210.453 130.955 210.682 131.669 211.141 132.256ZM213.029 134.192C211.866 134.192 210.938 133.781 210.245 132.96C209.552 132.139 209.205 131.077 209.205 129.776C209.205 127.941 209.536 126.587 210.197 125.712C210.858 124.827 211.877 124.293 213.253 124.112C214.074 123.984 214.64 123.861 214.949 123.744C215.269 123.627 215.429 123.488 215.429 123.328H216.597C216.597 123.627 216.506 123.888 216.325 124.112C216.144 124.325 215.882 124.496 215.541 124.624C215.21 124.752 214.896 124.853 214.597 124.928C214.309 124.992 213.962 125.051 213.557 125.104C212.49 125.253 211.717 125.547 211.237 125.984C210.768 126.421 210.458 127.003 210.309 127.728C211.013 126.629 211.984 126.08 213.221 126.08C214.288 126.08 215.157 126.469 215.829 127.248C216.501 128.027 216.837 128.981 216.837 130.112C216.837 131.264 216.49 132.235 215.797 133.024C215.104 133.803 214.181 134.192 213.029 134.192ZM222.696 134.192C221.608 134.192 220.738 133.739 220.088 132.832V136.944H218.888V126.272H220.088V127.424C220.376 127.019 220.749 126.693 221.208 126.448C221.666 126.203 222.162 126.08 222.696 126.08C223.72 126.08 224.546 126.448 225.176 127.184C225.816 127.909 226.135 128.891 226.135 130.128C226.135 131.365 225.816 132.352 225.176 133.088C224.546 133.824 223.72 134.192 222.696 134.192ZM222.391 133.12C223.149 133.12 223.752 132.843 224.2 132.288C224.648 131.723 224.872 131.003 224.872 130.128C224.872 129.253 224.648 128.539 224.2 127.984C223.752 127.429 223.149 127.152 222.391 127.152C221.933 127.152 221.485 127.275 221.048 127.52C220.621 127.755 220.301 128.043 220.088 128.384V131.872C220.301 132.224 220.621 132.523 221.048 132.768C221.485 133.003 221.933 133.12 222.391 133.12ZM234.076 134H232.876V133.12C232.225 133.835 231.372 134.192 230.316 134.192C229.601 134.192 228.972 133.963 228.428 133.504C227.884 133.045 227.612 132.421 227.612 131.632C227.612 130.821 227.878 130.197 228.412 129.76C228.956 129.312 229.59 129.088 230.316 129.088C231.414 129.088 232.268 129.44 232.876 130.144V128.752C232.876 128.24 232.694 127.84 232.332 127.552C231.969 127.264 231.5 127.12 230.924 127.12C230.017 127.12 229.228 127.477 228.556 128.192L227.996 127.36C228.817 126.507 229.846 126.08 231.084 126.08C231.969 126.08 232.689 126.293 233.244 126.72C233.798 127.147 234.076 127.803 234.076 128.688V134ZM230.748 133.328C231.708 133.328 232.417 133.008 232.876 132.368V130.912C232.417 130.272 231.708 129.952 230.748 129.952C230.193 129.952 229.734 130.112 229.372 130.432C229.02 130.741 228.844 131.147 228.844 131.648C228.844 132.139 229.02 132.544 229.372 132.864C229.734 133.173 230.193 133.328 230.748 133.328ZM239.089 134H237.889V127.328H235.649V126.272H241.345V127.328H239.089V134ZM242.919 126.272H244.119V129.264H247.015C247.783 129.264 248.38 129.493 248.807 129.952C249.233 130.4 249.447 130.96 249.447 131.632C249.447 132.304 249.228 132.869 248.791 133.328C248.364 133.776 247.772 134 247.015 134H242.919V126.272ZM246.887 130.32H244.119V132.944H246.887C247.313 132.944 247.639 132.827 247.863 132.592C248.097 132.347 248.215 132.027 248.215 131.632C248.215 131.237 248.097 130.923 247.863 130.688C247.639 130.443 247.313 130.32 246.887 130.32Z" fill="#39C79A"></path> <defs> <filter id="filter0_d" x="0" y="223" width="205" height="50" filterUnits="userSpaceOnUse" color-interpolation-filters="sRGB"> <feFlood flood-opacity="0" result="BackgroundImageFix"></feFlood> <feColorMatrix in="SourceAlpha" type="matrix" values="0 0 0 0 0 0 0 0 0 0 0 0 0 0 0 0 0 0 127 0"></feColorMatrix> <feOffset dx="4" dy="4"></feOffset> <feGaussianBlur stdDeviation="2"></feGaussianBlur> <feColorMatrix type="matrix" values="0 0 0 0 0.508229 0 0 0 0 0.511998 0 0 0 0 0.5125 0 0 0 0.1 0"></feColorMatrix> <feBlend mode="normal" in2="BackgroundImageFix" result="effect1_dropShadow"></feBlend> <feBlend mode="normal" in="SourceGraphic" in2="effect1_dropShadow" result="shape"></feBlend> </filter> <filter id="filter1_d" x="35" y="0" width="231" height="50" filterUnits="userSpaceOnUse" color-interpolation-filters="sRGB"> <feFlood flood-opacity="0" result="BackgroundImageFix"></feFlood> <feColorMatrix in="SourceAlpha" type="matrix" values="0 0 0 0 0 0 0 0 0 0 0 0 0 0 0 0 0 0 127 0"></feColorMatrix> <feOffset dx="4" dy="4"></feOffset> <feGaussianBlur stdDeviation="2"></feGaussianBlur> <feColorMatrix type="matrix" values="0 0 0 0 0.508229 0 0 0 0 0.511998 0 0 0 0 0.5125 0 0 0 0.1 0"></feColorMatrix> <feBlend mode="normal" in2="BackgroundImageFix" result="effect1_dropShadow"></feBlend> <feBlend mode="normal" in="SourceGraphic" in2="effect1_dropShadow" result="shape"></feBlend> </filter> <filter id="filter2_d" x="47" y="108" width="224" height="50" filterUnits="userSpaceOnUse" color-interpolation-filters="sRGB"> <feFlood flood-opacity="0" result="BackgroundImageFix"></feFlood> <feColorMatrix in="SourceAlpha" type="matrix" values="0 0 0 0 0 0 0 0 0 0 0 0 0 0 0 0 0 0 127 0"></feColorMatrix> <feOffset dx="-4" dy="4"></feOffset> <feGaussianBlur stdDeviation="2"></feGaussianBlur> <feColorMatrix type="matrix" values="0 0 0 0 0.508229 0 0 0 0 0.511998 0 0 0 0 0.5125 0 0 0 0.1 0"></feColorMatrix> <feBlend mode="normal" in2="BackgroundImageFix" result="effect1_dropShadow"></feBlend> <feBlend mode="normal" in="SourceGraphic" in2="effect1_dropShadow" result="shape"></feBlend> </filter> </defs> </svg> 