<?xml version="1.0" encoding="UTF-8"?> <svg xmlns="http://www.w3.org/2000/svg" width="794" height="339" viewBox="0 0 794 339" fill="none"> <g filter="url(#filter0_d)"> <rect x="44" width="189" height="42" rx="21" fill="white"></rect> </g> <path d="M70.304 26.192C72.192 26.192 73.472 25.296 74.368 24.08L73.232 23.456C72.624 24.368 71.52 25.008 70.304 25.008C67.968 25.008 66.192 23.2 66.192 20.672C66.192 18.128 67.968 16.336 70.304 16.336C71.52 16.336 72.624 16.992 73.232 17.888L74.352 17.264C73.504 16.064 72.192 15.152 70.304 15.152C67.232 15.152 64.816 17.392 64.816 20.672C64.816 23.952 67.232 26.192 70.304 26.192ZM80.3485 26C81.7725 26 82.6045 25.152 82.6045 23.904C82.6045 23.024 81.9805 22.208 81.1965 22.016C81.8525 21.808 82.4445 21.184 82.4445 20.256C82.4445 19.088 81.6285 18.272 80.2685 18.272H76.0125V26H80.3485ZM80.1085 24.944H77.2125V22.56H80.1085C80.9245 22.56 81.3565 23.136 81.3565 23.76C81.3565 24.496 80.8765 24.944 80.1085 24.944ZM80.0605 21.504H77.2125V19.328H80.0605C80.7965 19.328 81.2125 19.76 81.2125 20.432C81.2125 21.04 80.8125 21.504 80.0605 21.504ZM90.6319 16.336C90.6319 15.936 90.2799 15.6 89.8799 15.6C89.4799 15.6 89.1279 15.936 89.1279 16.336C89.1279 16.752 89.4799 17.088 89.8799 17.088C90.2799 17.088 90.6319 16.752 90.6319 16.336ZM87.3199 16.336C87.3199 15.936 86.9839 15.6 86.5839 15.6C86.1679 15.6 85.8319 15.936 85.8319 16.336C85.8319 16.752 86.1679 17.088 86.5839 17.088C86.9839 17.088 87.3199 16.752 87.3199 16.336ZM88.3599 26.192C89.6239 26.192 90.6639 25.776 91.4319 25.008L90.8559 24.224C90.2479 24.848 89.3519 25.2 88.4719 25.2C86.8079 25.2 85.7839 23.984 85.6879 22.528H91.9439V22.224C91.9439 19.904 90.5679 18.08 88.2319 18.08C86.0239 18.08 84.4239 19.888 84.4239 22.128C84.4239 24.544 86.0719 26.192 88.3599 26.192ZM90.7599 21.648H85.6879C85.7519 20.464 86.5679 19.072 88.2159 19.072C89.9759 19.072 90.7439 20.496 90.7599 21.648ZM92.9755 26.192C94.4635 26.192 95.2955 25.104 95.6475 22.224L95.9995 19.328H99.1195V26H100.32V18.272H94.9435L94.4475 22.08C94.1435 24.368 93.6955 25.2 92.9755 25.2V26.192ZM108.041 26V22.544H112.073V26H113.273V18.272H112.073V21.488H108.041V18.272H106.841V26H108.041ZM119.157 26.192C120.421 26.192 121.461 25.776 122.229 25.008L121.653 24.224C121.045 24.848 120.149 25.2 119.269 25.2C117.605 25.2 116.581 23.984 116.485 22.528H122.741V22.224C122.741 19.904 121.365 18.08 119.029 18.08C116.821 18.08 115.221 19.888 115.221 22.128C115.221 24.544 116.869 26.192 119.157 26.192ZM121.557 21.648H116.485C116.549 20.464 117.365 19.072 119.013 19.072C120.773 19.072 121.541 20.496 121.557 21.648ZM130.092 18.272H124.684V26H125.884V19.328H130.092V18.272ZM137.685 26V20.688C137.685 18.816 136.325 18.08 134.693 18.08C133.429 18.08 132.437 18.496 131.605 19.36L132.165 20.192C132.853 19.456 133.605 19.12 134.533 19.12C135.653 19.12 136.485 19.712 136.485 20.752V22.144C135.861 21.424 134.981 21.088 133.925 21.088C132.613 21.088 131.221 21.904 131.221 23.632C131.221 25.312 132.613 26.192 133.925 26.192C134.965 26.192 135.845 25.824 136.485 25.12V26H137.685ZM134.357 25.328C133.237 25.328 132.453 24.624 132.453 23.648C132.453 22.656 133.237 21.952 134.357 21.952C135.205 21.952 136.021 22.272 136.485 22.912V24.368C136.021 25.008 135.205 25.328 134.357 25.328ZM142.699 26V19.328H144.955V18.272H139.259V19.328H141.499V26H142.699ZM147.68 26L151.76 19.984V26H152.96V18.272H151.776L147.728 24.176V18.272H146.528V26H147.68ZM159.692 26C161.116 26 161.948 25.152 161.948 23.904C161.948 23.024 161.324 22.208 160.54 22.016C161.196 21.808 161.788 21.184 161.788 20.256C161.788 19.088 160.972 18.272 159.612 18.272H155.356V26H159.692ZM159.452 24.944H156.556V22.56H159.452C160.268 22.56 160.7 23.136 160.7 23.76C160.7 24.496 160.22 24.944 159.452 24.944ZM159.404 21.504H156.556V19.328H159.404C160.14 19.328 160.556 19.76 160.556 20.432C160.556 21.04 160.156 21.504 159.404 21.504ZM169.541 26V22.544H173.573V26H174.773V18.272H173.573V21.488H169.541V18.272H168.341V26H169.541ZM183.201 26V20.688C183.201 18.816 181.841 18.08 180.209 18.08C178.945 18.08 177.953 18.496 177.121 19.36L177.681 20.192C178.369 19.456 179.121 19.12 180.049 19.12C181.169 19.12 182.001 19.712 182.001 20.752V22.144C181.377 21.424 180.497 21.088 179.441 21.088C178.129 21.088 176.737 21.904 176.737 23.632C176.737 25.312 178.129 26.192 179.441 26.192C180.481 26.192 181.361 25.824 182.001 25.12V26H183.201ZM179.873 25.328C178.753 25.328 177.969 24.624 177.969 23.648C177.969 22.656 178.753 21.952 179.873 21.952C180.721 21.952 181.537 22.272 182.001 22.912V24.368C181.537 25.008 180.721 25.328 179.873 25.328ZM190.931 26V22.544H194.963V26H196.163V18.272H194.963V21.488H190.931V18.272H189.731V26H190.931ZM202.047 26.192C203.311 26.192 204.351 25.776 205.119 25.008L204.543 24.224C203.935 24.848 203.039 25.2 202.159 25.2C200.495 25.2 199.471 23.984 199.375 22.528H205.631V22.224C205.631 19.904 204.255 18.08 201.919 18.08C199.711 18.08 198.111 19.888 198.111 22.128C198.111 24.544 199.759 26.192 202.047 26.192ZM204.447 21.648H199.375C199.439 20.464 200.255 19.072 201.903 19.072C203.663 19.072 204.431 20.496 204.447 21.648ZM210.183 26V19.328H212.439V18.272H206.743V19.328H208.983V26H210.183Z" fill="#39C79A"></path> <g filter="url(#filter1_d)"> <rect x="319" y="209" width="177" height="42" rx="21" fill="white"></rect> </g> <path d="M339.512 236.968H340.84V235H348.792V236.968H350.12V233.816H349.144V224.328H342.616L341.96 229.688C341.512 233.304 340.792 233.848 339.512 233.928V236.968ZM343.272 229.784L343.8 225.512H347.816V233.816H341.64C342.424 233.224 343 232.04 343.272 229.784ZM357.795 235V229.688C357.795 227.816 356.435 227.08 354.803 227.08C353.539 227.08 352.547 227.496 351.715 228.36L352.275 229.192C352.963 228.456 353.715 228.12 354.643 228.12C355.763 228.12 356.595 228.712 356.595 229.752V231.144C355.971 230.424 355.091 230.088 354.035 230.088C352.723 230.088 351.331 230.904 351.331 232.632C351.331 234.312 352.723 235.192 354.035 235.192C355.075 235.192 355.955 234.824 356.595 234.12V235H357.795ZM354.467 234.328C353.347 234.328 352.562 233.624 352.562 232.648C352.562 231.656 353.347 230.952 354.467 230.952C355.315 230.952 356.131 231.272 356.595 231.912V233.368C356.131 234.008 355.315 234.328 354.467 234.328ZM359.288 235.192C360.776 235.192 361.608 234.104 361.96 231.224L362.312 228.328H365.432V235H366.632V227.272H361.256L360.76 231.08C360.456 233.368 360.008 234.2 359.288 234.2V235.192ZM379.953 235L376.513 230.776L379.937 227.272H378.417L374.353 231.384V227.272H373.153V235H374.353V232.792L375.633 231.528L378.417 235H379.953ZM380.46 235.192C381.948 235.192 382.78 234.104 383.132 231.224L383.484 228.328H386.604V235H387.804V227.272H382.428L381.932 231.08C381.628 233.368 381.18 234.2 380.46 234.2V235.192ZM391.352 235L395.432 228.984V235H396.632V227.272H395.448L391.4 233.176V227.272H390.2V235H391.352ZM402.516 235.192C403.78 235.192 404.82 234.776 405.588 234.008L405.012 233.224C404.404 233.848 403.508 234.2 402.628 234.2C400.964 234.2 399.94 232.984 399.844 231.528H406.1V231.224C406.1 228.904 404.724 227.08 402.388 227.08C400.18 227.08 398.58 228.888 398.58 231.128C398.58 233.544 400.228 235.192 402.516 235.192ZM404.916 230.648H399.844C399.908 229.464 400.724 228.072 402.372 228.072C404.132 228.072 404.9 229.496 404.916 230.648ZM409.244 235V231.544H413.276V235H414.476V227.272H413.276V230.488H409.244V227.272H408.044V235H409.244ZM419.48 235V228.328H421.736V227.272H416.04V228.328H418.28V235H419.48ZM422.877 238.024C423.101 238.088 423.501 238.136 423.757 238.136C424.781 238.12 425.565 237.688 426.029 236.568L429.901 227.272H428.589L426.029 233.608L423.453 227.272H422.157L425.389 235.08L424.877 236.248C424.605 236.888 424.253 237.064 423.725 237.064C423.533 237.064 423.245 237.016 423.069 236.936L422.877 238.024ZM438.686 235.192C440.094 235.192 440.926 234.616 441.518 233.848L440.718 233.112C440.206 233.8 439.55 234.12 438.75 234.12C437.102 234.12 436.078 232.84 436.078 231.128C436.078 229.416 437.102 228.152 438.75 228.152C439.55 228.152 440.206 228.456 440.718 229.16L441.518 228.424C440.926 227.656 440.094 227.08 438.686 227.08C436.382 227.08 434.83 228.84 434.83 231.128C434.83 233.432 436.382 235.192 438.686 235.192ZM446.576 235.192C448.928 235.192 450.4 233.368 450.4 231.128C450.4 228.888 448.928 227.08 446.576 227.08C444.224 227.08 442.752 228.888 442.752 231.128C442.752 233.368 444.224 235.192 446.576 235.192ZM446.576 234.12C444.928 234.12 444 232.712 444 231.128C444 229.56 444.928 228.152 446.576 228.152C448.224 228.152 449.136 229.56 449.136 231.128C449.136 232.712 448.224 234.12 446.576 234.12ZM456.692 235C458.116 235 458.948 234.152 458.948 232.904C458.948 232.024 458.324 231.208 457.54 231.016C458.196 230.808 458.788 230.184 458.788 229.256C458.788 228.088 457.972 227.272 456.612 227.272H452.356V235H456.692ZM456.452 233.944H453.556V231.56H456.452C457.268 231.56 457.7 232.136 457.7 232.76C457.7 233.496 457.22 233.944 456.452 233.944ZM456.404 230.504H453.556V228.328H456.404C457.14 228.328 457.556 228.76 457.556 229.432C457.556 230.04 457.156 230.504 456.404 230.504ZM464.704 235.192C465.968 235.192 467.008 234.776 467.776 234.008L467.2 233.224C466.592 233.848 465.696 234.2 464.816 234.2C463.152 234.2 462.128 232.984 462.032 231.528H468.288V231.224C468.288 228.904 466.912 227.08 464.576 227.08C462.368 227.08 460.768 228.888 460.768 231.128C460.768 233.544 462.416 235.192 464.704 235.192ZM467.104 230.648H462.032C462.096 229.464 462.912 228.072 464.56 228.072C466.32 228.072 467.088 229.496 467.104 230.648ZM472.839 235V228.328H475.095V227.272H469.399V228.328H471.639V235H472.839Z" fill="#39C79A"></path> <g filter="url(#filter2_d)"> <rect x="104" y="265" width="195" height="42" rx="21" fill="white"></rect> </g> <path d="M134.144 291V280.328H125.248V291H126.576V281.512H132.816V291H134.144ZM140.399 291.192C142.431 291.192 143.839 289.624 143.839 287.128C143.839 284.616 142.431 283.08 140.399 283.08C139.311 283.08 138.351 283.64 137.791 284.424V283.272H136.591V293.944H137.791V289.832C138.415 290.696 139.343 291.192 140.399 291.192ZM140.095 290.12C139.151 290.12 138.207 289.544 137.791 288.872V285.384C138.207 284.712 139.151 284.152 140.095 284.152C141.647 284.152 142.575 285.416 142.575 287.128C142.575 288.84 141.647 290.12 140.095 290.12ZM149.123 291.192C151.475 291.192 152.947 289.368 152.947 287.128C152.947 284.888 151.475 283.08 149.123 283.08C146.771 283.08 145.299 284.888 145.299 287.128C145.299 289.368 146.771 291.192 149.123 291.192ZM149.123 290.12C147.475 290.12 146.547 288.712 146.547 287.128C146.547 285.56 147.475 284.152 149.123 284.152C150.771 284.152 151.683 285.56 151.683 287.128C151.683 288.712 150.771 290.12 149.123 290.12ZM156.055 291L157.943 288.008H160.055V291H161.255V283.272H157.175C155.607 283.272 154.727 284.328 154.727 285.64C154.727 286.936 155.559 287.816 156.711 287.96L154.647 291H156.055ZM157.303 286.952C156.423 286.952 155.959 286.408 155.959 285.64C155.959 284.872 156.455 284.328 157.303 284.328H160.055V286.952H157.303ZM167.989 291C169.413 291 170.245 290.152 170.245 288.904C170.245 288.024 169.621 287.208 168.837 287.016C169.493 286.808 170.085 286.184 170.085 285.256C170.085 284.088 169.269 283.272 167.909 283.272H163.653V291H167.989ZM167.749 289.944H164.853V287.56H167.749C168.565 287.56 168.997 288.136 168.997 288.76C168.997 289.496 168.517 289.944 167.749 289.944ZM167.701 286.504H164.853V284.328H167.701C168.437 284.328 168.853 284.76 168.853 285.432C168.853 286.04 168.453 286.504 167.701 286.504ZM173.664 291L177.745 284.984V291H178.945V283.272H177.761L173.713 289.176V283.272H172.513V291H173.664ZM180.429 291.192C181.917 291.192 182.749 290.104 183.101 287.224L183.453 284.328H186.573V291H187.773V283.272H182.397L181.901 287.08C181.597 289.368 181.149 290.2 180.429 290.2V291.192ZM195.446 291L199.526 284.984V291H200.726V283.272H199.542L195.494 289.176V283.272H194.294V291H195.446ZM204.322 291V287.544H208.354V291H209.554V283.272H208.354V286.488H204.322V283.272H203.122V291H204.322ZM213.102 291L217.182 284.984V291H218.382V283.272H217.198L213.15 289.176V283.272H211.95V291H213.102ZM226.906 292.968H228.106V289.944H227.21V283.272H226.01V289.944H221.978V283.272H220.778V291H226.906V292.968ZM230.899 291L234.979 284.984V291H236.179V283.272H234.995L230.947 289.176V283.272H229.747V291H230.899ZM244.607 291V285.688C244.607 283.816 243.247 283.08 241.615 283.08C240.351 283.08 239.359 283.496 238.527 284.36L239.087 285.192C239.775 284.456 240.527 284.12 241.455 284.12C242.575 284.12 243.407 284.712 243.407 285.752V287.144C242.783 286.424 241.903 286.088 240.847 286.088C239.535 286.088 238.143 286.904 238.143 288.632C238.143 290.312 239.535 291.192 240.847 291.192C241.887 291.192 242.767 290.824 243.407 290.12V291H244.607ZM241.279 290.328C240.159 290.328 239.375 289.624 239.375 288.648C239.375 287.656 240.159 286.952 241.279 286.952C242.127 286.952 242.943 287.272 243.407 287.912V289.368C242.943 290.008 242.127 290.328 241.279 290.328ZM249.621 291V284.328H251.877V283.272H246.181V284.328H248.421V291H249.621ZM254.602 291L258.682 284.984V291H259.882V283.272H258.698L254.65 289.176V283.272H253.45V291H254.602ZM266.614 291C268.038 291 268.87 290.152 268.87 288.904C268.87 288.024 268.246 287.208 267.462 287.016C268.118 286.808 268.71 286.184 268.71 285.256C268.71 284.088 267.894 283.272 266.534 283.272H262.278V291H266.614ZM266.374 289.944H263.478V287.56H266.374C267.19 287.56 267.622 288.136 267.622 288.76C267.622 289.496 267.142 289.944 266.374 289.944ZM266.326 286.504H263.478V284.328H266.326C267.062 284.328 267.478 284.76 267.478 285.432C267.478 286.04 267.078 286.504 266.326 286.504ZM270.706 294.024C270.93 294.088 271.33 294.136 271.586 294.136C272.61 294.12 273.394 293.688 273.858 292.568L277.73 283.272H276.418L273.858 289.608L271.282 283.272H269.986L273.218 291.08L272.706 292.248C272.434 292.888 272.082 293.064 271.554 293.064C271.362 293.064 271.074 293.016 270.898 292.936L270.706 294.024Z" fill="#39C79A"></path> <g filter="url(#filter3_d)"> <rect x="260" y="41" width="247" height="42" rx="21" fill="white"></rect> </g> <path d="M280.512 68.968H281.84V67H289.792V68.968H291.12V65.816H290.144V56.328H283.616L282.96 61.688C282.512 65.304 281.792 65.848 280.512 65.928V68.968ZM284.272 61.784L284.8 57.512H288.816V65.816H282.64C283.424 65.224 284 64.04 284.272 61.784ZM296.139 67.192C298.491 67.192 299.963 65.368 299.963 63.128C299.963 60.888 298.491 59.08 296.139 59.08C293.787 59.08 292.315 60.888 292.315 63.128C292.315 65.368 293.787 67.192 296.139 67.192ZM296.139 66.12C294.491 66.12 293.562 64.712 293.562 63.128C293.562 61.56 294.491 60.152 296.139 60.152C297.787 60.152 298.699 61.56 298.699 63.128C298.699 64.712 297.787 66.12 296.139 66.12ZM301.885 67L304.669 63.528L305.213 64.072V67H306.413V64.072L306.957 63.528L309.741 67H311.277L307.821 62.776L311.261 59.272H309.741L306.413 62.664V59.272H305.213V62.68L301.885 59.272H300.365L303.789 62.776L300.349 67H301.885ZM318.732 67V61.688C318.732 59.816 317.372 59.08 315.74 59.08C314.476 59.08 313.484 59.496 312.652 60.36L313.212 61.192C313.9 60.456 314.652 60.12 315.58 60.12C316.7 60.12 317.532 60.712 317.532 61.752V63.144C316.908 62.424 316.028 62.088 314.972 62.088C313.66 62.088 312.268 62.904 312.268 64.632C312.268 66.312 313.66 67.192 314.972 67.192C316.012 67.192 316.892 66.824 317.532 66.12V67H318.732ZM315.404 66.328C314.284 66.328 313.5 65.624 313.5 64.648C313.5 63.656 314.284 62.952 315.404 62.952C316.252 62.952 317.068 63.272 317.532 63.912V65.368C317.068 66.008 316.252 66.328 315.404 66.328ZM320.226 67.192C321.714 67.192 322.546 66.104 322.898 63.224L323.25 60.328H326.37V67H327.57V59.272H322.194L321.698 63.08C321.394 65.368 320.946 66.2 320.226 66.2V67.192ZM335.998 67V61.688C335.998 59.816 334.638 59.08 333.006 59.08C331.742 59.08 330.75 59.496 329.918 60.36L330.478 61.192C331.166 60.456 331.918 60.12 332.846 60.12C333.966 60.12 334.798 60.712 334.798 61.752V63.144C334.174 62.424 333.294 62.088 332.238 62.088C330.926 62.088 329.534 62.904 329.534 64.632C329.534 66.312 330.926 67.192 332.238 67.192C333.278 67.192 334.158 66.824 334.798 66.12V67H335.998ZM332.67 66.328C331.55 66.328 330.766 65.624 330.766 64.648C330.766 63.656 331.55 62.952 332.67 62.952C333.518 62.952 334.334 63.272 334.798 63.912V65.368C334.334 66.008 333.518 66.328 332.67 66.328ZM349.328 67L345.888 62.776L349.312 59.272H347.792L343.728 63.384V59.272H342.528V67H343.728V64.792L345.008 63.528L347.792 67H349.328ZM349.835 67.192C351.323 67.192 352.155 66.104 352.507 63.224L352.859 60.328H355.979V67H357.179V59.272H351.803L351.307 63.08C351.003 65.368 350.555 66.2 349.835 66.2V67.192ZM360.727 67L364.807 60.984V67H366.007V59.272H364.823L360.775 65.176V59.272H359.575V67H360.727ZM371.891 67.192C373.155 67.192 374.195 66.776 374.963 66.008L374.387 65.224C373.779 65.848 372.883 66.2 372.003 66.2C370.339 66.2 369.315 64.984 369.219 63.528H375.475V63.224C375.475 60.904 374.099 59.08 371.763 59.08C369.555 59.08 367.955 60.888 367.955 63.128C367.955 65.544 369.603 67.192 371.891 67.192ZM374.291 62.648H369.219C369.283 61.464 370.099 60.072 371.747 60.072C373.507 60.072 374.275 61.496 374.291 62.648ZM378.619 67V63.544H382.651V67H383.851V59.272H382.651V62.488H378.619V59.272H377.419V67H378.619ZM388.855 67V60.328H391.111V59.272H385.415V60.328H387.655V67H388.855ZM398.716 67V61.688C398.716 59.816 397.356 59.08 395.724 59.08C394.46 59.08 393.468 59.496 392.636 60.36L393.196 61.192C393.884 60.456 394.636 60.12 395.564 60.12C396.684 60.12 397.516 60.712 397.516 61.752V63.144C396.892 62.424 396.012 62.088 394.956 62.088C393.644 62.088 392.252 62.904 392.252 64.632C392.252 66.312 393.644 67.192 394.956 67.192C395.996 67.192 396.876 66.824 397.516 66.12V67H398.716ZM395.388 66.328C394.268 66.328 393.484 65.624 393.484 64.648C393.484 63.656 394.268 62.952 395.388 62.952C396.236 62.952 397.052 63.272 397.516 63.912V65.368C397.052 66.008 396.236 66.328 395.388 66.328ZM411.679 67V59.272H405.247V67H406.447V60.328H410.479V67H411.679ZM417.451 67.192C419.803 67.192 421.275 65.368 421.275 63.128C421.275 60.888 419.803 59.08 417.451 59.08C415.099 59.08 413.627 60.888 413.627 63.128C413.627 65.368 415.099 67.192 417.451 67.192ZM417.451 66.12C415.803 66.12 414.875 64.712 414.875 63.128C414.875 61.56 415.803 60.152 417.451 60.152C419.099 60.152 420.011 61.56 420.011 63.128C420.011 64.712 419.099 66.12 417.451 66.12ZM430.764 67.192C432.172 67.192 433.004 66.616 433.596 65.848L432.796 65.112C432.284 65.8 431.628 66.12 430.828 66.12C429.18 66.12 428.156 64.84 428.156 63.128C428.156 61.416 429.18 60.152 430.828 60.152C431.628 60.152 432.284 60.456 432.796 61.16L433.596 60.424C433.004 59.656 432.172 59.08 430.764 59.08C428.46 59.08 426.908 60.84 426.908 63.128C426.908 65.432 428.46 67.192 430.764 67.192ZM442.078 67L438.638 62.776L442.062 59.272H440.542L436.478 63.384V59.272H435.278V67H436.478V64.792L437.758 63.528L440.542 67H442.078ZM447.305 67.192C449.337 67.192 450.745 65.624 450.745 63.128C450.745 60.616 449.337 59.08 447.305 59.08C446.217 59.08 445.257 59.64 444.697 60.424V59.272H443.497V69.944H444.697V65.832C445.321 66.696 446.249 67.192 447.305 67.192ZM447.001 66.12C446.057 66.12 445.113 65.544 444.697 64.872V61.384C445.113 60.712 446.057 60.152 447.001 60.152C448.553 60.152 449.481 61.416 449.481 63.128C449.481 64.84 448.553 66.12 447.001 66.12ZM453.805 67L457.885 60.984V67H459.085V59.272H457.901L453.853 65.176V59.272H452.653V67H453.805ZM467.913 67V59.272H461.481V67H462.681V60.328H466.713V67H467.913ZM472.917 67V60.328H475.173V59.272H469.477V60.328H471.717V67H472.917ZM476.315 70.024C476.539 70.088 476.939 70.136 477.195 70.136C478.219 70.12 479.003 69.688 479.467 68.568L483.339 59.272H482.027L479.467 65.608L476.891 59.272H475.595L478.827 67.08L478.315 68.248C478.043 68.888 477.691 69.064 477.163 69.064C476.971 69.064 476.683 69.016 476.507 68.936L476.315 70.024Z" fill="#39C79A"></path> <g filter="url(#filter4_d)"> <rect x="539" y="92" width="247" height="42" rx="21" fill="white"></rect> </g> <path d="M569.144 118V107.328H560.248V118H561.576V108.512H567.816V118H569.144ZM575.399 118.192C577.431 118.192 578.839 116.624 578.839 114.128C578.839 111.616 577.431 110.08 575.399 110.08C574.311 110.08 573.351 110.64 572.791 111.424V110.272H571.591V120.944H572.791V116.832C573.415 117.696 574.343 118.192 575.399 118.192ZM575.095 117.12C574.151 117.12 573.207 116.544 572.791 115.872V112.384C573.207 111.712 574.151 111.152 575.095 111.152C576.647 111.152 577.575 112.416 577.575 114.128C577.575 115.84 576.647 117.12 575.095 117.12ZM584.123 118.192C586.475 118.192 587.947 116.368 587.947 114.128C587.947 111.888 586.475 110.08 584.123 110.08C581.771 110.08 580.299 111.888 580.299 114.128C580.299 116.368 581.771 118.192 584.123 118.192ZM584.123 117.12C582.475 117.12 581.547 115.712 581.547 114.128C581.547 112.56 582.475 111.152 584.123 111.152C585.771 111.152 586.683 112.56 586.683 114.128C586.683 115.712 585.771 117.12 584.123 117.12ZM595.311 110.272H589.903V118H591.103V111.328H595.311V110.272ZM600.248 118.192C602.6 118.192 604.072 116.368 604.072 114.128C604.072 111.888 602.6 110.08 600.248 110.08C597.896 110.08 596.424 111.888 596.424 114.128C596.424 116.368 597.896 118.192 600.248 118.192ZM600.248 117.12C598.6 117.12 597.672 115.712 597.672 114.128C597.672 112.56 598.6 111.152 600.248 111.152C601.896 111.152 602.808 112.56 602.808 114.128C602.808 115.712 601.896 117.12 600.248 117.12ZM610.364 118C611.788 118 612.62 117.152 612.62 115.904C612.62 115.024 611.996 114.208 611.212 114.016C611.868 113.808 612.46 113.184 612.46 112.256C612.46 111.088 611.644 110.272 610.284 110.272H606.028V118H610.364ZM610.124 116.944H607.228V114.56H610.124C610.94 114.56 611.372 115.136 611.372 115.76C611.372 116.496 610.892 116.944 610.124 116.944ZM610.076 113.504H607.228V111.328H610.076C610.812 111.328 611.228 111.76 611.228 112.432C611.228 113.04 610.828 113.504 610.076 113.504ZM618.264 118.192C620.616 118.192 622.088 116.368 622.088 114.128C622.088 111.888 620.616 110.08 618.264 110.08C615.912 110.08 614.44 111.888 614.44 114.128C614.44 116.368 615.912 118.192 618.264 118.192ZM618.264 117.12C616.616 117.12 615.688 115.712 615.688 114.128C615.688 112.56 616.616 111.152 618.264 111.152C619.912 111.152 620.824 112.56 620.824 114.128C620.824 115.712 619.912 117.12 618.264 117.12ZM627.852 118.192C629.884 118.192 631.292 116.624 631.292 114.128C631.292 111.616 629.884 110.08 627.852 110.08C626.764 110.08 625.804 110.64 625.244 111.424V110.272H624.044V120.944H625.244V116.832C625.868 117.696 626.796 118.192 627.852 118.192ZM627.548 117.12C626.604 117.12 625.66 116.544 625.244 115.872V112.384C625.66 111.712 626.604 111.152 627.548 111.152C629.1 111.152 630.028 112.416 630.028 114.128C630.028 115.84 629.1 117.12 627.548 117.12ZM634.352 118L638.432 111.984V118H639.632V110.272H638.448L634.4 116.176V110.272H633.2V118H634.352ZM641.116 118.192C642.604 118.192 643.436 117.104 643.788 114.224L644.14 111.328H647.26V118H648.46V110.272H643.084L642.588 114.08C642.284 116.368 641.836 117.2 641.116 117.2V118.192ZM661.413 118V110.272H654.981V118H656.181V111.328H660.213V118H661.413ZM667.617 118.192C669.649 118.192 671.057 116.624 671.057 114.128C671.057 111.616 669.649 110.08 667.617 110.08C666.529 110.08 665.569 110.64 665.009 111.424V110.272H663.809V120.944H665.009V116.832C665.633 117.696 666.561 118.192 667.617 118.192ZM667.313 117.12C666.369 117.12 665.425 116.544 665.009 115.872V112.384C665.425 111.712 666.369 111.152 667.313 111.152C668.865 111.152 669.793 112.416 669.793 114.128C669.793 115.84 668.865 117.12 667.313 117.12ZM676.454 118.192C677.718 118.192 678.758 117.776 679.526 117.008L678.95 116.224C678.342 116.848 677.446 117.2 676.566 117.2C674.902 117.2 673.878 115.984 673.782 114.528H680.038V114.224C680.038 111.904 678.662 110.08 676.326 110.08C674.118 110.08 672.518 111.888 672.518 114.128C672.518 116.544 674.166 118.192 676.454 118.192ZM678.854 113.648H673.782C673.846 112.464 674.662 111.072 676.31 111.072C678.07 111.072 678.838 112.496 678.854 113.648ZM683.133 118L687.213 111.984V118H688.413V110.272H687.229L683.181 116.176V110.272H681.981V118H683.133ZM698.697 118V110.272H697.097L694.761 116L692.393 110.272H690.809V118H692.009V111.936L694.537 118H694.985L697.497 111.936V118H698.697ZM700.659 121.024C700.883 121.088 701.283 121.136 701.539 121.136C702.563 121.12 703.347 120.688 703.811 119.568L707.683 110.272H706.371L703.811 116.608L701.235 110.272H699.939L703.171 118.08L702.659 119.248C702.387 119.888 702.035 120.064 701.507 120.064C701.315 120.064 701.027 120.016 700.851 119.936L700.659 121.024ZM717.862 110.272V116.944H714.598V110.272H713.398V116.944H710.134V110.272H708.934V118H718.854V119.968H720.054V116.944H719.062V110.272H717.862ZM725.188 118.192C726.452 118.192 727.492 117.776 728.26 117.008L727.684 116.224C727.076 116.848 726.18 117.2 725.3 117.2C723.636 117.2 722.612 115.984 722.516 114.528H728.772V114.224C728.772 111.904 727.396 110.08 725.06 110.08C722.852 110.08 721.252 111.888 721.252 114.128C721.252 116.544 722.9 118.192 725.188 118.192ZM727.588 113.648H722.516C722.58 112.464 723.396 111.072 725.044 111.072C726.804 111.072 727.572 112.496 727.588 113.648ZM734.124 118.192C735.532 118.192 736.364 117.616 736.956 116.848L736.156 116.112C735.644 116.8 734.988 117.12 734.188 117.12C732.54 117.12 731.516 115.84 731.516 114.128C731.516 112.416 732.54 111.152 734.188 111.152C734.988 111.152 735.644 111.456 736.156 112.16L736.956 111.424C736.364 110.656 735.532 110.08 734.124 110.08C731.82 110.08 730.268 111.84 730.268 114.128C730.268 116.432 731.82 118.192 734.124 118.192ZM741.246 118V111.328H743.502V110.272H737.806V111.328H740.046V118H741.246ZM749.411 118C750.835 118 751.667 117.152 751.667 115.904C751.667 115.024 751.043 114.208 750.259 114.016C750.915 113.808 751.507 113.184 751.507 112.256C751.507 111.088 750.691 110.272 749.331 110.272H745.075V118H749.411ZM749.171 116.944H746.275V114.56H749.171C749.987 114.56 750.419 115.136 750.419 115.76C750.419 116.496 749.939 116.944 749.171 116.944ZM749.123 113.504H746.275V111.328H749.123C749.859 111.328 750.275 111.76 750.275 112.432C750.275 113.04 749.875 113.504 749.123 113.504ZM759.966 118V112.688C759.966 110.816 758.606 110.08 756.974 110.08C755.71 110.08 754.718 110.496 753.886 111.36L754.446 112.192C755.134 111.456 755.886 111.12 756.814 111.12C757.934 111.12 758.766 111.712 758.766 112.752V114.144C758.142 113.424 757.262 113.088 756.206 113.088C754.894 113.088 753.502 113.904 753.502 115.632C753.502 117.312 754.894 118.192 756.206 118.192C757.246 118.192 758.126 117.824 758.766 117.12V118H759.966ZM756.638 117.328C755.518 117.328 754.734 116.624 754.734 115.648C754.734 114.656 755.518 113.952 756.638 113.952C757.486 113.952 758.302 114.272 758.766 114.912V116.368C758.302 117.008 757.486 117.328 756.638 117.328Z" fill="#39C79A"></path> <g filter="url(#filter5_d)"> <rect x="522" width="179" height="42" rx="21" fill="white"></rect> </g> <path d="M552.144 26H550.816V21.104H544.576V26H543.248V15.328H544.576V19.92H550.816V15.328H552.144V26ZM558.079 26.192C556.927 26.192 555.983 25.8187 555.247 25.072C554.511 24.3147 554.143 23.3333 554.143 22.128C554.143 20.9973 554.505 20.0427 555.231 19.264C555.956 18.4747 556.863 18.08 557.951 18.08C559.092 18.08 559.993 18.4747 560.655 19.264C561.327 20.0427 561.663 21.0293 561.663 22.224V22.528H555.407C555.46 23.2853 555.737 23.92 556.239 24.432C556.74 24.944 557.391 25.2 558.191 25.2C559.151 25.2 559.945 24.8747 560.575 24.224L561.151 25.008C560.361 25.7973 559.337 26.192 558.079 26.192ZM560.479 21.648C560.468 20.9867 560.244 20.3947 559.807 19.872C559.369 19.3387 558.745 19.072 557.935 19.072C557.167 19.072 556.559 19.3333 556.111 19.856C555.673 20.3787 555.439 20.976 555.407 21.648H560.479ZM574.163 26H572.963V19.328H568.931V26H567.731V18.272H574.163V26ZM580.367 26.192C579.279 26.192 578.41 25.7387 577.759 24.832V28.944H576.559V18.272H577.759V19.424C578.047 19.0187 578.421 18.6933 578.879 18.448C579.338 18.2027 579.834 18.08 580.367 18.08C581.391 18.08 582.218 18.448 582.847 19.184C583.487 19.9093 583.807 20.8907 583.807 22.128C583.807 23.3653 583.487 24.352 582.847 25.088C582.218 25.824 581.391 26.192 580.367 26.192ZM580.063 25.12C580.821 25.12 581.423 24.8427 581.871 24.288C582.319 23.7227 582.543 23.0027 582.543 22.128C582.543 21.2533 582.319 20.5387 581.871 19.984C581.423 19.4293 580.821 19.152 580.063 19.152C579.605 19.152 579.157 19.2747 578.719 19.52C578.293 19.7547 577.973 20.0427 577.759 20.384V23.872C577.973 24.224 578.293 24.5227 578.719 24.768C579.157 25.0027 579.605 25.12 580.063 25.12ZM589.204 26.192C588.052 26.192 587.108 25.8187 586.372 25.072C585.636 24.3147 585.268 23.3333 585.268 22.128C585.268 20.9973 585.63 20.0427 586.356 19.264C587.081 18.4747 587.988 18.08 589.076 18.08C590.217 18.08 591.118 18.4747 591.78 19.264C592.452 20.0427 592.788 21.0293 592.788 22.224V22.528H586.532C586.585 23.2853 586.862 23.92 587.364 24.432C587.865 24.944 588.516 25.2 589.316 25.2C590.276 25.2 591.07 24.8747 591.7 24.224L592.276 25.008C591.486 25.7973 590.462 26.192 589.204 26.192ZM591.604 21.648C591.593 20.9867 591.369 20.3947 590.932 19.872C590.494 19.3387 589.87 19.072 589.06 19.072C588.292 19.072 587.684 19.3333 587.236 19.856C586.798 20.3787 586.564 20.976 586.532 21.648H591.604ZM593.819 27.968V25.008C594.214 24.9333 594.523 24.6987 594.747 24.304C594.971 23.8987 595.153 23.1573 595.291 22.08L595.787 18.272H601.163V24.944H602.059V27.968H600.859V26H595.019V27.968H593.819ZM596.843 19.328L596.491 22.224C596.31 23.5787 595.937 24.4853 595.371 24.944H599.963V19.328H596.843ZM607.108 26.192C605.967 26.192 605.039 25.808 604.324 25.04C603.609 24.2613 603.252 23.2907 603.252 22.128C603.252 20.9653 603.609 20 604.324 19.232C605.039 18.464 605.967 18.08 607.108 18.08C608.303 18.08 609.247 18.528 609.94 19.424L609.14 20.16C608.649 19.488 607.993 19.152 607.172 19.152C606.361 19.152 605.711 19.4293 605.22 19.984C604.74 20.5387 604.5 21.2533 604.5 22.128C604.5 23.0027 604.74 23.7227 605.22 24.288C605.711 24.8427 606.361 25.12 607.172 25.12C607.983 25.12 608.639 24.784 609.14 24.112L609.94 24.848C609.247 25.744 608.303 26.192 607.108 26.192ZM614.23 26H613.03V19.328H610.79V18.272H616.486V19.328H614.23V26ZM624.091 26H622.891V25.12C622.241 25.8347 621.387 26.192 620.331 26.192C619.617 26.192 618.987 25.9627 618.443 25.504C617.899 25.0453 617.627 24.4213 617.627 23.632C617.627 22.8213 617.894 22.1973 618.427 21.76C618.971 21.312 619.606 21.088 620.331 21.088C621.43 21.088 622.283 21.44 622.891 22.144V20.752C622.891 20.24 622.71 19.84 622.347 19.552C621.985 19.264 621.515 19.12 620.939 19.12C620.033 19.12 619.243 19.4773 618.571 20.192L618.011 19.36C618.833 18.5067 619.862 18.08 621.099 18.08C621.985 18.08 622.705 18.2933 623.259 18.72C623.814 19.1467 624.091 19.8027 624.091 20.688V26ZM620.763 25.328C621.723 25.328 622.433 25.008 622.891 24.368V22.912C622.433 22.272 621.723 21.952 620.763 21.952C620.209 21.952 619.75 22.112 619.387 22.432C619.035 22.7413 618.859 23.1467 618.859 23.648C618.859 24.1387 619.035 24.544 619.387 24.864C619.75 25.1733 620.209 25.328 620.763 25.328ZM630.833 26H626.497V18.272H630.753C631.425 18.272 631.953 18.4533 632.337 18.816C632.732 19.1787 632.929 19.6587 632.929 20.256C632.929 20.6933 632.806 21.072 632.561 21.392C632.326 21.7013 632.033 21.9093 631.681 22.016C632.076 22.112 632.406 22.3413 632.673 22.704C632.95 23.0667 633.089 23.4667 633.089 23.904C633.089 24.5333 632.886 25.04 632.481 25.424C632.086 25.808 631.537 26 630.833 26ZM630.593 24.944C630.977 24.944 631.281 24.8373 631.505 24.624C631.729 24.4107 631.841 24.1227 631.841 23.76C631.841 23.4293 631.729 23.1467 631.505 22.912C631.281 22.6773 630.977 22.56 630.593 22.56H627.697V24.944H630.593ZM630.545 21.504C630.908 21.504 631.19 21.408 631.393 21.216C631.596 21.0133 631.697 20.752 631.697 20.432C631.697 20.0907 631.596 19.824 631.393 19.632C631.19 19.4293 630.908 19.328 630.545 19.328H627.697V21.504H630.545ZM636.508 26H635.356V18.272H636.556V24.176L640.604 18.272H641.788V26H640.588V19.984L636.508 26ZM643.272 26.192V25.2C643.635 25.2 643.934 24.96 644.168 24.48C644.403 24 644.595 23.2 644.744 22.08L645.24 18.272H650.616V26H649.416V19.328H646.296L645.944 22.224C645.774 23.6427 645.475 24.6613 645.048 25.28C644.622 25.888 644.03 26.192 643.272 26.192ZM659.045 26H657.845V25.12C657.194 25.8347 656.341 26.192 655.285 26.192C654.57 26.192 653.941 25.9627 653.397 25.504C652.853 25.0453 652.581 24.4213 652.581 23.632C652.581 22.8213 652.847 22.1973 653.381 21.76C653.925 21.312 654.559 21.088 655.285 21.088C656.383 21.088 657.237 21.44 657.845 22.144V20.752C657.845 20.24 657.663 19.84 657.301 19.552C656.938 19.264 656.469 19.12 655.893 19.12C654.986 19.12 654.197 19.4773 653.525 20.192L652.965 19.36C653.786 18.5067 654.815 18.08 656.053 18.08C656.938 18.08 657.658 18.2933 658.213 18.72C658.767 19.1467 659.045 19.8027 659.045 20.688V26ZM655.717 25.328C656.677 25.328 657.386 25.008 657.845 24.368V22.912C657.386 22.272 656.677 21.952 655.717 21.952C655.162 21.952 654.703 22.112 654.341 22.432C653.989 22.7413 653.812 23.1467 653.812 23.648C653.812 24.1387 653.989 24.544 654.341 24.864C654.703 25.1733 655.162 25.328 655.717 25.328ZM664.858 26.192C663.717 26.192 662.789 25.808 662.074 25.04C661.359 24.2613 661.002 23.2907 661.002 22.128C661.002 20.9653 661.359 20 662.074 19.232C662.789 18.464 663.717 18.08 664.858 18.08C666.053 18.08 666.997 18.528 667.69 19.424L666.89 20.16C666.399 19.488 665.743 19.152 664.922 19.152C664.111 19.152 663.461 19.4293 662.97 19.984C662.49 20.5387 662.25 21.2533 662.25 22.128C662.25 23.0027 662.49 23.7227 662.97 24.288C663.461 24.8427 664.111 25.12 664.922 25.12C665.733 25.12 666.389 24.784 666.89 24.112L667.69 24.848C666.997 25.744 666.053 26.192 664.858 26.192ZM669.372 18.272H670.572V21.264H673.468C674.236 21.264 674.833 21.4933 675.26 21.952C675.687 22.4 675.9 22.96 675.9 23.632C675.9 24.304 675.681 24.8693 675.244 25.328C674.817 25.776 674.225 26 673.468 26H669.372V18.272ZM673.34 22.32H670.572V24.944H673.34C673.767 24.944 674.092 24.8267 674.316 24.592C674.551 24.3467 674.668 24.0267 674.668 23.632C674.668 23.2373 674.551 22.9227 674.316 22.688C674.092 22.4427 673.767 22.32 673.34 22.32Z" fill="#E1523E"></path> <g filter="url(#filter6_d)"> <rect x="531" y="175" width="247" height="42" rx="21" fill="white"></rect> </g> <path d="M553.576 201V196.76H556.536C558.648 196.76 559.88 195.288 559.88 193.544C559.88 191.8 558.68 190.328 556.536 190.328H552.248V201H553.576ZM556.376 195.576H553.576V191.512H556.376C557.64 191.512 558.504 192.344 558.504 193.544C558.504 194.744 557.64 195.576 556.376 195.576ZM567.31 201V195.688C567.31 193.816 565.95 193.08 564.318 193.08C563.054 193.08 562.062 193.496 561.23 194.36L561.79 195.192C562.478 194.456 563.23 194.12 564.158 194.12C565.278 194.12 566.11 194.712 566.11 195.752V197.144C565.486 196.424 564.606 196.088 563.55 196.088C562.238 196.088 560.846 196.904 560.846 198.632C560.846 200.312 562.238 201.192 563.55 201.192C564.59 201.192 565.47 200.824 566.11 200.12V201H567.31ZM563.982 200.328C562.862 200.328 562.078 199.624 562.078 198.648C562.078 197.656 562.862 196.952 563.982 196.952C564.83 196.952 565.646 197.272 566.11 197.912V199.368C565.646 200.008 564.83 200.328 563.982 200.328ZM572.452 201.192C574.676 201.192 575.988 200.232 575.988 198.936C575.988 197.656 574.644 197.112 573.748 197.048C574.66 196.936 575.828 196.312 575.828 195.16C575.828 193.848 574.356 193.08 572.276 193.096C570.868 193.096 569.828 193.592 569.108 194.328L569.732 195.064C570.388 194.392 571.236 194.072 572.324 194.072C573.604 194.072 574.58 194.568 574.58 195.304C574.58 196.184 573.572 196.6 572.292 196.6H570.564V197.576H572.292C573.652 197.576 574.724 197.896 574.724 198.856C574.724 199.672 573.828 200.2 572.452 200.2C571.3 200.2 570.276 199.848 569.556 199.16L568.964 199.928C569.732 200.696 570.9 201.192 572.452 201.192ZM583.342 193.272H577.934V201H579.134V194.328H583.342V193.272ZM588.279 201.192C590.631 201.192 592.103 199.368 592.103 197.128C592.103 194.888 590.631 193.08 588.279 193.08C585.927 193.08 584.455 194.888 584.455 197.128C584.455 199.368 585.927 201.192 588.279 201.192ZM588.279 200.12C586.631 200.12 585.703 198.712 585.703 197.128C585.703 195.56 586.631 194.152 588.279 194.152C589.927 194.152 590.839 195.56 590.839 197.128C590.839 198.712 589.927 200.12 588.279 200.12ZM598.395 201C599.819 201 600.651 200.152 600.651 198.904C600.651 198.024 600.027 197.208 599.243 197.016C599.899 196.808 600.491 196.184 600.491 195.256C600.491 194.088 599.675 193.272 598.315 193.272H594.059V201H598.395ZM598.155 199.944H595.259V197.56H598.155C598.971 197.56 599.403 198.136 599.403 198.76C599.403 199.496 598.923 199.944 598.155 199.944ZM598.107 196.504H595.259V194.328H598.107C598.843 194.328 599.259 194.76 599.259 195.432C599.259 196.04 598.859 196.504 598.107 196.504ZM608.951 201V195.688C608.951 193.816 607.591 193.08 605.959 193.08C604.695 193.08 603.703 193.496 602.871 194.36L603.431 195.192C604.119 194.456 604.871 194.12 605.799 194.12C606.919 194.12 607.751 194.712 607.751 195.752V197.144C607.127 196.424 606.247 196.088 605.191 196.088C603.879 196.088 602.487 196.904 602.487 198.632C602.487 200.312 603.879 201.192 605.191 201.192C606.231 201.192 607.111 200.824 607.751 200.12V201H608.951ZM605.623 200.328C604.503 200.328 603.719 199.624 603.719 198.648C603.719 197.656 604.503 196.952 605.623 196.952C606.471 196.952 607.287 197.272 607.751 197.912V199.368C607.287 200.008 606.471 200.328 605.623 200.328ZM615.164 201.192C617.196 201.192 618.604 199.624 618.604 197.128C618.604 194.616 617.196 193.08 615.164 193.08C614.076 193.08 613.116 193.64 612.556 194.424V193.272H611.356V203.944H612.556V199.832C613.18 200.696 614.108 201.192 615.164 201.192ZM614.86 200.12C613.916 200.12 612.972 199.544 612.556 198.872V195.384C612.972 194.712 613.916 194.152 614.86 194.152C616.412 194.152 617.34 195.416 617.34 197.128C617.34 198.84 616.412 200.12 614.86 200.12ZM621.664 201L625.745 194.984V201H626.945V193.272H625.761L621.713 199.176V193.272H620.513V201H621.664ZM633.677 201C635.101 201 635.933 200.152 635.933 198.904C635.933 198.024 635.309 197.208 634.525 197.016C635.181 196.808 635.773 196.184 635.773 195.256C635.773 194.088 634.957 193.272 633.597 193.272H629.341V201H633.677ZM633.437 199.944H630.541V197.56H633.437C634.253 197.56 634.685 198.136 634.685 198.76C634.685 199.496 634.205 199.944 633.437 199.944ZM633.389 196.504H630.541V194.328H633.389C634.125 194.328 634.541 194.76 634.541 195.432C634.541 196.04 634.141 196.504 633.389 196.504ZM644.232 201V195.688C644.232 193.816 642.872 193.08 641.24 193.08C639.976 193.08 638.984 193.496 638.152 194.36L638.712 195.192C639.4 194.456 640.152 194.12 641.08 194.12C642.2 194.12 643.032 194.712 643.032 195.752V197.144C642.408 196.424 641.528 196.088 640.472 196.088C639.16 196.088 637.768 196.904 637.768 198.632C637.768 200.312 639.16 201.192 640.472 201.192C641.512 201.192 642.392 200.824 643.032 200.12V201H644.232ZM640.904 200.328C639.784 200.328 639 199.624 639 198.648C639 197.656 639.784 196.952 640.904 196.952C641.752 196.952 642.568 197.272 643.032 197.912V199.368C642.568 200.008 641.752 200.328 640.904 200.328ZM645.726 201.192C647.214 201.192 648.046 200.104 648.398 197.224L648.75 194.328H651.87V201H653.07V193.272H647.694L647.198 197.08C646.894 199.368 646.446 200.2 645.726 200.2V201.192ZM663.927 201C665.351 201 666.183 200.152 666.183 198.904C666.183 198.024 665.559 197.208 664.775 197.016C665.431 196.808 666.023 196.184 666.023 195.256C666.023 194.088 665.207 193.272 663.847 193.272H659.591V201H663.927ZM663.687 199.944H660.791V197.56H663.687C664.503 197.56 664.935 198.136 664.935 198.76C664.935 199.496 664.455 199.944 663.687 199.944ZM663.639 196.504H660.791V194.328H663.639C664.375 194.328 664.791 194.76 664.791 195.432C664.791 196.04 664.391 196.504 663.639 196.504ZM669.602 201L671.49 198.008H673.602V201H674.802V193.272H670.722C669.154 193.272 668.274 194.328 668.274 195.64C668.274 196.936 669.106 197.816 670.258 197.96L668.194 201H669.602ZM670.85 196.952C669.97 196.952 669.506 196.408 669.506 195.64C669.506 194.872 670.002 194.328 670.85 194.328H673.602V196.952H670.85ZM676.288 201.192C677.776 201.192 678.608 200.104 678.96 197.224L679.312 194.328H682.432V201H683.632V193.272H678.256L677.76 197.08C677.456 199.368 677.008 200.2 676.288 200.2V201.192ZM689.404 201.192C691.756 201.192 693.228 199.368 693.228 197.128C693.228 194.888 691.756 193.08 689.404 193.08C687.052 193.08 685.58 194.888 685.58 197.128C685.58 199.368 687.052 201.192 689.404 201.192ZM689.404 200.12C687.756 200.12 686.828 198.712 686.828 197.128C686.828 195.56 687.756 194.152 689.404 194.152C691.052 194.152 691.964 195.56 691.964 197.128C691.964 198.712 691.052 200.12 689.404 200.12ZM700.461 201L704.541 194.984V201H705.741V193.272H704.557L700.509 199.176V193.272H699.309V201H700.461ZM714.871 201V194.328H717.127V193.272H711.431V194.328H713.671V201H714.871ZM719.852 201L723.932 194.984V201H725.132V193.272H723.948L719.9 199.176V193.272H718.7V201H719.852ZM733.928 201L730.952 197.032L733.752 193.272H732.36L730.216 196.216L728.072 193.272H726.68L729.48 197.032L726.52 201H727.896L730.216 197.832L732.536 201H733.928ZM738.092 201.192C740.444 201.192 741.916 199.368 741.916 197.128C741.916 194.888 740.444 193.08 738.092 193.08C735.74 193.08 734.268 194.888 734.268 197.128C734.268 199.368 735.74 201.192 738.092 201.192ZM738.092 200.12C736.444 200.12 735.516 198.712 735.516 197.128C735.516 195.56 736.444 194.152 738.092 194.152C739.74 194.152 740.652 195.56 740.652 197.128C740.652 198.712 739.74 200.12 738.092 200.12Z" fill="#E1523E"></path> <g filter="url(#filter7_d)"> <rect x="425" y="289" width="251" height="42" rx="21" fill="white"></rect> </g> <path d="M455.144 315V304.328H446.248V315H447.576V305.512H453.816V315H455.144ZM461.399 315.192C463.431 315.192 464.839 313.624 464.839 311.128C464.839 308.616 463.431 307.08 461.399 307.08C460.311 307.08 459.351 307.64 458.791 308.424V307.272H457.591V317.944H458.791V313.832C459.415 314.696 460.343 315.192 461.399 315.192ZM461.095 314.12C460.151 314.12 459.207 313.544 458.791 312.872V309.384C459.207 308.712 460.151 308.152 461.095 308.152C462.647 308.152 463.575 309.416 463.575 311.128C463.575 312.84 462.647 314.12 461.095 314.12ZM470.123 315.192C472.475 315.192 473.947 313.368 473.947 311.128C473.947 308.888 472.475 307.08 470.123 307.08C467.771 307.08 466.299 308.888 466.299 311.128C466.299 313.368 467.771 315.192 470.123 315.192ZM470.123 314.12C468.475 314.12 467.547 312.712 467.547 311.128C467.547 309.56 468.475 308.152 470.123 308.152C471.771 308.152 472.683 309.56 472.683 311.128C472.683 312.712 471.771 314.12 470.123 314.12ZM477.055 315L478.943 312.008H481.055V315H482.255V307.272H478.175C476.607 307.272 475.727 308.328 475.727 309.64C475.727 310.936 476.559 311.816 477.711 311.96L475.647 315H477.055ZM478.303 310.952C477.423 310.952 476.959 310.408 476.959 309.64C476.959 308.872 477.455 308.328 478.303 308.328H481.055V310.952H478.303ZM488.989 315C490.413 315 491.245 314.152 491.245 312.904C491.245 312.024 490.621 311.208 489.837 311.016C490.493 310.808 491.085 310.184 491.085 309.256C491.085 308.088 490.269 307.272 488.909 307.272H484.653V315H488.989ZM488.749 313.944H485.853V311.56H488.749C489.565 311.56 489.997 312.136 489.997 312.76C489.997 313.496 489.517 313.944 488.749 313.944ZM488.701 310.504H485.853V308.328H488.701C489.437 308.328 489.853 308.76 489.853 309.432C489.853 310.04 489.453 310.504 488.701 310.504ZM494.664 315L498.745 308.984V315H499.945V307.272H498.761L494.713 313.176V307.272H493.513V315H494.664ZM501.429 315.192C502.917 315.192 503.749 314.104 504.101 311.224L504.453 308.328H507.573V315H508.773V307.272H503.397L502.901 311.08C502.597 313.368 502.149 314.2 501.429 314.2V315.192ZM516.494 315V311.544H520.526V315H521.726V307.272H520.526V310.488H516.494V307.272H515.294V315H516.494ZM527.61 315.192C528.874 315.192 529.914 314.776 530.682 314.008L530.106 313.224C529.498 313.848 528.602 314.2 527.722 314.2C526.058 314.2 525.034 312.984 524.938 311.528H531.194V311.224C531.194 308.904 529.818 307.08 527.482 307.08C525.274 307.08 523.674 308.888 523.674 311.128C523.674 313.544 525.322 315.192 527.61 315.192ZM530.01 310.648H524.938C525.002 309.464 525.818 308.072 527.466 308.072C529.226 308.072 529.994 309.496 530.01 310.648ZM535.874 315.192C538.098 315.192 539.41 314.232 539.41 312.936C539.41 311.656 538.066 311.112 537.17 311.048C538.082 310.936 539.25 310.312 539.25 309.16C539.25 307.848 537.778 307.08 535.698 307.096C534.289 307.096 533.25 307.592 532.53 308.328L533.154 309.064C533.81 308.392 534.658 308.072 535.746 308.072C537.026 308.072 538.002 308.568 538.002 309.304C538.002 310.184 536.994 310.6 535.714 310.6H533.986V311.576H535.714C537.074 311.576 538.146 311.896 538.146 312.856C538.146 313.672 537.25 314.2 535.874 314.2C534.722 314.2 533.698 313.848 532.978 313.16L532.386 313.928C533.154 314.696 534.322 315.192 535.874 315.192ZM542.556 315V311.544H546.588V315H547.788V307.272H546.588V310.488H542.556V307.272H541.356V315H542.556ZM556.216 315V309.688C556.216 307.816 554.856 307.08 553.224 307.08C551.96 307.08 550.968 307.496 550.136 308.36L550.696 309.192C551.384 308.456 552.136 308.12 553.064 308.12C554.184 308.12 555.016 308.712 555.016 309.752V311.144C554.392 310.424 553.512 310.088 552.456 310.088C551.144 310.088 549.752 310.904 549.752 312.632C549.752 314.312 551.144 315.192 552.456 315.192C553.496 315.192 554.376 314.824 555.016 314.12V315H556.216ZM552.888 314.328C551.768 314.328 550.984 313.624 550.984 312.648C550.984 311.656 551.768 310.952 552.888 310.952C553.736 310.952 554.552 311.272 555.016 311.912V313.368C554.552 314.008 553.736 314.328 552.888 314.328ZM559.822 315V311.544H563.854V315H565.054V307.272H563.854V310.488H559.822V307.272H558.622V315H559.822ZM568.602 315L572.682 308.984V315H573.882V307.272H572.698L568.65 313.176V307.272H567.45V315H568.602ZM579.766 315.192C581.03 315.192 582.07 314.776 582.838 314.008L582.262 313.224C581.654 313.848 580.758 314.2 579.878 314.2C578.214 314.2 577.19 312.984 577.094 311.528H583.35V311.224C583.35 308.904 581.974 307.08 579.638 307.08C577.43 307.08 575.83 308.888 575.83 311.128C575.83 313.544 577.478 315.192 579.766 315.192ZM582.166 310.648H577.094C577.158 309.464 577.974 308.072 579.622 308.072C581.382 308.072 582.15 309.496 582.166 310.648ZM595.851 315V307.272H589.419V315H590.619V308.328H594.651V315H595.851ZM602.055 315.192C604.087 315.192 605.495 313.624 605.495 311.128C605.495 308.616 604.087 307.08 602.055 307.08C600.967 307.08 600.007 307.64 599.447 308.424V307.272H598.247V317.944H599.447V313.832C600.071 314.696 600.999 315.192 602.055 315.192ZM601.751 314.12C600.807 314.12 599.863 313.544 599.447 312.872V309.384C599.863 308.712 600.807 308.152 601.751 308.152C603.303 308.152 604.231 309.416 604.231 311.128C604.231 312.84 603.303 314.12 601.751 314.12ZM610.779 315.192C613.131 315.192 614.603 313.368 614.603 311.128C614.603 308.888 613.131 307.08 610.779 307.08C608.427 307.08 606.955 308.888 606.955 311.128C606.955 313.368 608.427 315.192 610.779 315.192ZM610.779 314.12C609.131 314.12 608.203 312.712 608.203 311.128C608.203 309.56 609.131 308.152 610.779 308.152C612.427 308.152 613.339 309.56 613.339 311.128C613.339 312.712 612.427 314.12 610.779 314.12ZM615.647 316.968H616.847V315H622.687V316.968H623.887V313.944H622.991V307.272H617.615L617.119 311.08C616.815 313.368 616.367 313.88 615.647 314.008V316.968ZM618.671 308.328H621.791V313.944H617.199C617.759 313.496 618.127 312.68 618.319 311.224L618.671 308.328ZM625.096 318.024C625.32 318.088 625.72 318.136 625.976 318.136C627 318.12 627.784 317.688 628.248 316.568L632.12 307.272H630.808L628.248 313.608L625.672 307.272H624.376L627.608 315.08L627.096 316.248C626.824 316.888 626.472 317.064 625.944 317.064C625.752 317.064 625.464 317.016 625.288 316.936L625.096 318.024ZM640.172 315L636.732 310.776L640.156 307.272H638.636L634.572 311.384V307.272H633.372V315H634.572V312.792L635.852 311.528L638.636 315H640.172ZM644.199 315V308.328H646.455V307.272H640.759V308.328H642.999V315H644.199ZM654.06 315V309.688C654.06 307.816 652.7 307.08 651.068 307.08C649.804 307.08 648.812 307.496 647.98 308.36L648.54 309.192C649.228 308.456 649.98 308.12 650.908 308.12C652.028 308.12 652.86 308.712 652.86 309.752V311.144C652.236 310.424 651.356 310.088 650.3 310.088C648.988 310.088 647.596 310.904 647.596 312.632C647.596 314.312 648.988 315.192 650.3 315.192C651.34 315.192 652.22 314.824 652.86 314.12V315H654.06ZM650.732 314.328C649.612 314.328 648.828 313.624 648.828 312.648C648.828 311.656 649.612 310.952 650.732 310.952C651.58 310.952 652.396 311.272 652.86 311.912V313.368C652.396 314.008 651.58 314.328 650.732 314.328Z" fill="#E1523E"></path> <g filter="url(#filter8_d)"> <rect x="8" y="83" width="191" height="42" rx="21" fill="white"></rect> </g> <path d="M30.576 109V99.512H36.24V98.328H29.248V109H30.576ZM40.4455 109.192C42.4775 109.192 43.8855 107.624 43.8855 105.128C43.8855 102.616 42.4775 101.08 40.4455 101.08C39.3575 101.08 38.3975 101.64 37.8375 102.424V101.272H36.6375V111.944H37.8375V107.832C38.4615 108.696 39.3895 109.192 40.4455 109.192ZM40.1415 108.12C39.1975 108.12 38.2535 107.544 37.8375 106.872V103.384C38.2535 102.712 39.1975 102.152 40.1415 102.152C41.6935 102.152 42.6215 103.416 42.6215 105.128C42.6215 106.84 41.6935 108.12 40.1415 108.12ZM45.3618 112.024C45.5858 112.088 45.9858 112.136 46.2418 112.136C47.2658 112.12 48.0498 111.688 48.5138 110.568L52.3858 101.272H51.0738L48.5138 107.608L45.9378 101.272H44.6418L47.8738 109.08L47.3618 110.248C47.0898 110.888 46.7378 111.064 46.2098 111.064C46.0178 111.064 45.7298 111.016 45.5538 110.936L45.3618 112.024ZM57.0135 108.12C55.3655 108.12 54.4375 106.712 54.4375 105.112C54.4375 103.56 55.3655 102.152 57.0135 102.152C58.6615 102.152 59.5735 103.56 59.5735 105.112C59.5735 106.712 58.6615 108.12 57.0135 108.12ZM57.0135 109.192C59.3975 109.192 60.8215 107.336 60.8215 105.112C60.8215 102.92 59.3975 101.08 57.2055 101.08C55.8295 101.08 54.8535 101.848 54.2935 102.728C54.5655 101.416 55.2535 100.424 57.5415 100.104C58.8535 99.928 60.5815 99.592 60.5815 98.328H59.4135C59.4135 98.648 58.9335 98.856 57.2375 99.112C54.5495 99.464 53.1895 101.016 53.1895 104.776C53.1895 107.336 54.6455 109.192 57.0135 109.192ZM66.2479 109.192C68.5999 109.192 70.0719 107.368 70.0719 105.128C70.0719 102.888 68.5999 101.08 66.2479 101.08C63.8959 101.08 62.4239 102.888 62.4239 105.128C62.4239 107.368 63.8959 109.192 66.2479 109.192ZM66.2479 108.12C64.5999 108.12 63.6719 106.712 63.6719 105.128C63.6719 103.56 64.5999 102.152 66.2479 102.152C67.8959 102.152 68.8079 103.56 68.8079 105.128C68.8079 106.712 67.8959 108.12 66.2479 108.12ZM79.9611 109.192C81.9931 109.192 83.4011 107.624 83.4011 105.128C83.4011 102.616 81.9931 101.08 79.9611 101.08C78.8731 101.08 77.9131 101.64 77.3531 102.424V101.272H76.1531V111.944H77.3531V107.832C77.9771 108.696 78.9051 109.192 79.9611 109.192ZM79.6571 108.12C78.7131 108.12 77.7691 107.544 77.3531 106.872V103.384C77.7691 102.712 78.7131 102.152 79.6571 102.152C81.2091 102.152 82.1371 103.416 82.1371 105.128C82.1371 106.84 81.2091 108.12 79.6571 108.12ZM91.3414 109V103.688C91.3414 101.816 89.9814 101.08 88.3494 101.08C87.0854 101.08 86.0934 101.496 85.2614 102.36L85.8214 103.192C86.5094 102.456 87.2614 102.12 88.1894 102.12C89.3094 102.12 90.1414 102.712 90.1414 103.752V105.144C89.5174 104.424 88.6374 104.088 87.5814 104.088C86.2694 104.088 84.8774 104.904 84.8774 106.632C84.8774 108.312 86.2694 109.192 87.5814 109.192C88.6214 109.192 89.5014 108.824 90.1414 108.12V109H91.3414ZM88.0134 108.328C86.8934 108.328 86.1094 107.624 86.1094 106.648C86.1094 105.656 86.8934 104.952 88.0134 104.952C88.8614 104.952 89.6774 105.272 90.1414 105.912V107.368C89.6774 108.008 88.8614 108.328 88.0134 108.328ZM96.4829 109.192C98.7069 109.192 100.019 108.232 100.019 106.936C100.019 105.656 98.6749 105.112 97.7789 105.048C98.6909 104.936 99.8589 104.312 99.8589 103.16C99.8589 101.848 98.3869 101.08 96.3069 101.096C94.8989 101.096 93.8589 101.592 93.1389 102.328L93.7629 103.064C94.4189 102.392 95.2669 102.072 96.3549 102.072C97.6349 102.072 98.6109 102.568 98.6109 103.304C98.6109 104.184 97.6029 104.6 96.3229 104.6H94.5949V105.576H96.3229C97.6829 105.576 98.7549 105.896 98.7549 106.856C98.7549 107.672 97.8589 108.2 96.4829 108.2C95.3309 108.2 94.3069 107.848 93.5869 107.16L92.9949 107.928C93.7629 108.696 94.9309 109.192 96.4829 109.192ZM107.374 101.272H101.966V109H103.166V102.328H107.374V101.272ZM112.31 109.192C114.662 109.192 116.134 107.368 116.134 105.128C116.134 102.888 114.662 101.08 112.31 101.08C109.958 101.08 108.486 102.888 108.486 105.128C108.486 107.368 109.958 109.192 112.31 109.192ZM112.31 108.12C110.662 108.12 109.734 106.712 109.734 105.128C109.734 103.56 110.662 102.152 112.31 102.152C113.958 102.152 114.87 103.56 114.87 105.128C114.87 106.712 113.958 108.12 112.31 108.12ZM122.427 109C123.851 109 124.683 108.152 124.683 106.904C124.683 106.024 124.059 105.208 123.275 105.016C123.931 104.808 124.523 104.184 124.523 103.256C124.523 102.088 123.707 101.272 122.347 101.272H118.091V109H122.427ZM122.187 107.944H119.291V105.56H122.187C123.003 105.56 123.435 106.136 123.435 106.76C123.435 107.496 122.955 107.944 122.187 107.944ZM122.139 104.504H119.291V102.328H122.139C122.875 102.328 123.291 102.76 123.291 103.432C123.291 104.04 122.891 104.504 122.139 104.504ZM132.982 109V103.688C132.982 101.816 131.622 101.08 129.99 101.08C128.726 101.08 127.734 101.496 126.902 102.36L127.462 103.192C128.15 102.456 128.902 102.12 129.83 102.12C130.95 102.12 131.782 102.712 131.782 103.752V105.144C131.158 104.424 130.278 104.088 129.222 104.088C127.91 104.088 126.518 104.904 126.518 106.632C126.518 108.312 127.91 109.192 129.222 109.192C130.262 109.192 131.142 108.824 131.782 108.12V109H132.982ZM129.654 108.328C128.534 108.328 127.75 107.624 127.75 106.648C127.75 105.656 128.534 104.952 129.654 104.952C130.502 104.952 131.318 105.272 131.782 105.912V107.368C131.318 108.008 130.502 108.328 129.654 108.328ZM139.196 109.192C141.228 109.192 142.635 107.624 142.635 105.128C142.635 102.616 141.228 101.08 139.196 101.08C138.108 101.08 137.148 101.64 136.588 102.424V101.272H135.388V111.944H136.588V107.832C137.212 108.696 138.14 109.192 139.196 109.192ZM138.891 108.12C137.948 108.12 137.004 107.544 136.588 106.872V103.384C137.004 102.712 137.948 102.152 138.891 102.152C140.444 102.152 141.372 103.416 141.372 105.128C141.372 106.84 140.444 108.12 138.891 108.12ZM145.696 109L149.776 102.984V109H150.976V101.272H149.792L145.744 107.176V101.272H144.544V109H145.696ZM157.708 109C159.132 109 159.964 108.152 159.964 106.904C159.964 106.024 159.34 105.208 158.556 105.016C159.212 104.808 159.804 104.184 159.804 103.256C159.804 102.088 158.988 101.272 157.628 101.272H153.372V109H157.708ZM157.468 107.944H154.572V105.56H157.468C158.284 105.56 158.716 106.136 158.716 106.76C158.716 107.496 158.236 107.944 157.468 107.944ZM157.42 104.504H154.572V102.328H157.42C158.156 102.328 158.572 102.76 158.572 103.432C158.572 104.04 158.172 104.504 157.42 104.504ZM168.263 109V103.688C168.263 101.816 166.903 101.08 165.271 101.08C164.007 101.08 163.015 101.496 162.183 102.36L162.743 103.192C163.431 102.456 164.183 102.12 165.111 102.12C166.231 102.12 167.063 102.712 167.063 103.752V105.144C166.439 104.424 165.559 104.088 164.503 104.088C163.191 104.088 161.799 104.904 161.799 106.632C161.799 108.312 163.191 109.192 164.503 109.192C165.543 109.192 166.423 108.824 167.063 108.12V109H168.263ZM164.935 108.328C163.815 108.328 163.031 107.624 163.031 106.648C163.031 105.656 163.815 104.952 164.935 104.952C165.783 104.952 166.599 105.272 167.063 105.912V107.368C166.599 108.008 165.783 108.328 164.935 108.328ZM169.757 109.192C171.245 109.192 172.077 108.104 172.429 105.224L172.781 102.328H175.901V109H177.101V101.272H171.725L171.229 105.08C170.925 107.368 170.477 108.2 169.757 108.2V109.192Z" fill="#E1523E"></path> <g filter="url(#filter9_d)"> <rect x="247" y="125" width="253" height="42" rx="21" fill="white"></rect> </g> <path d="M273.304 151.192C275.192 151.192 276.472 150.296 277.368 149.08L276.232 148.456C275.624 149.368 274.52 150.008 273.304 150.008C270.968 150.008 269.192 148.2 269.192 145.672C269.192 143.128 270.968 141.336 273.304 141.336C274.52 141.336 275.624 141.992 276.232 142.888L277.352 142.264C276.504 141.064 275.192 140.152 273.304 140.152C270.232 140.152 267.816 142.392 267.816 145.672C267.816 148.952 270.232 151.192 273.304 151.192ZM278.054 151.192C279.542 151.192 280.374 150.104 280.726 147.224L281.078 144.328H284.198V151H285.398V143.272H280.022L279.526 147.08C279.222 149.368 278.774 150.2 278.054 150.2V151.192ZM288.946 151L293.026 144.984V151H294.226V143.272H293.042L288.994 149.176V143.272H287.794V151H288.946ZM300.958 151C302.382 151 303.214 150.152 303.214 148.904C303.214 148.024 302.59 147.208 301.806 147.016C302.462 146.808 303.054 146.184 303.054 145.256C303.054 144.088 302.238 143.272 300.878 143.272H296.622V151H300.958ZM300.718 149.944H297.822V147.56H300.718C301.534 147.56 301.966 148.136 301.966 148.76C301.966 149.496 301.486 149.944 300.718 149.944ZM300.67 146.504H297.822V144.328H300.67C301.406 144.328 301.822 144.76 301.822 145.432C301.822 146.04 301.422 146.504 300.67 146.504ZM311.513 151V145.688C311.513 143.816 310.153 143.08 308.521 143.08C307.257 143.08 306.265 143.496 305.433 144.36L305.993 145.192C306.681 144.456 307.433 144.12 308.361 144.12C309.481 144.12 310.313 144.712 310.313 145.752V147.144C309.689 146.424 308.809 146.088 307.753 146.088C306.441 146.088 305.049 146.904 305.049 148.632C305.049 150.312 306.441 151.192 307.753 151.192C308.793 151.192 309.673 150.824 310.313 150.12V151H311.513ZM308.185 150.328C307.065 150.328 306.281 149.624 306.281 148.648C306.281 147.656 307.065 146.952 308.185 146.952C309.033 146.952 309.849 147.272 310.313 147.912V149.368C309.849 150.008 309.033 150.328 308.185 150.328ZM313.007 151.192C314.495 151.192 315.327 150.104 315.679 147.224L316.031 144.328H319.151V151H320.351V143.272H314.975L314.479 147.08C314.175 149.368 313.727 150.2 313.007 150.2V151.192ZM329.608 151.192C331.832 151.192 333.144 150.232 333.144 148.936C333.144 147.656 331.8 147.112 330.904 147.048C331.816 146.936 332.984 146.312 332.984 145.16C332.984 143.848 331.512 143.08 329.432 143.096C328.024 143.096 326.984 143.592 326.264 144.328L326.888 145.064C327.544 144.392 328.392 144.072 329.48 144.072C330.76 144.072 331.736 144.568 331.736 145.304C331.736 146.184 330.728 146.6 329.448 146.6H327.72V147.576H329.448C330.808 147.576 331.88 147.896 331.88 148.856C331.88 149.672 330.984 150.2 329.608 150.2C328.456 150.2 327.432 149.848 326.712 149.16L326.12 149.928C326.888 150.696 328.056 151.192 329.608 151.192ZM341.123 151V145.688C341.123 143.816 339.763 143.08 338.131 143.08C336.867 143.08 335.875 143.496 335.043 144.36L335.603 145.192C336.291 144.456 337.043 144.12 337.971 144.12C339.091 144.12 339.923 144.712 339.923 145.752V147.144C339.299 146.424 338.419 146.088 337.363 146.088C336.051 146.088 334.659 146.904 334.659 148.632C334.659 150.312 336.051 151.192 337.363 151.192C338.403 151.192 339.283 150.824 339.923 150.12V151H341.123ZM337.795 150.328C336.675 150.328 335.891 149.624 335.891 148.648C335.891 147.656 336.675 146.952 337.795 146.952C338.643 146.952 339.459 147.272 339.923 147.912V149.368C339.459 150.008 338.643 150.328 337.795 150.328ZM350.328 151L346.888 146.776L350.312 143.272H348.792L344.728 147.384V143.272H343.528V151H344.728V148.792L346.008 147.528L348.792 151H350.328ZM357.779 151V145.688C357.779 143.816 356.419 143.08 354.787 143.08C353.523 143.08 352.531 143.496 351.699 144.36L352.259 145.192C352.947 144.456 353.699 144.12 354.627 144.12C355.747 144.12 356.579 144.712 356.579 145.752V147.144C355.955 146.424 355.075 146.088 354.019 146.088C352.707 146.088 351.315 146.904 351.315 148.632C351.315 150.312 352.707 151.192 354.019 151.192C355.059 151.192 355.939 150.824 356.579 150.12V151H357.779ZM354.451 150.328C353.331 150.328 352.547 149.624 352.547 148.648C352.547 147.656 353.331 146.952 354.451 146.952C355.299 146.952 356.115 147.272 356.579 147.912V149.368C356.115 150.008 355.299 150.328 354.451 150.328ZM362.92 151.192C365.144 151.192 366.456 150.232 366.456 148.936C366.456 147.656 365.112 147.112 364.216 147.048C365.128 146.936 366.296 146.312 366.296 145.16C366.296 143.848 364.824 143.08 362.744 143.096C361.336 143.096 360.296 143.592 359.576 144.328L360.2 145.064C360.856 144.392 361.704 144.072 362.792 144.072C364.072 144.072 365.048 144.568 365.048 145.304C365.048 146.184 364.04 146.6 362.76 146.6H361.032V147.576H362.76C364.12 147.576 365.192 147.896 365.192 148.856C365.192 149.672 364.296 150.2 362.92 150.2C361.768 150.2 360.744 149.848 360.024 149.16L359.432 149.928C360.2 150.696 361.368 151.192 362.92 151.192ZM368.403 143.272V151H372.499C374.083 151 374.931 149.912 374.931 148.632C374.931 147.368 374.099 146.264 372.499 146.264H369.603V143.272H368.403ZM372.371 147.32C373.251 147.32 373.699 147.88 373.699 148.632C373.699 149.4 373.235 149.944 372.371 149.944H369.603V147.32H372.371ZM377.395 151V143.272H376.195V151H377.395ZM390.719 151L387.279 146.776L390.703 143.272H389.183L385.119 147.384V143.272H383.919V151H385.119V148.792L386.399 147.528L389.183 151H390.719ZM395.467 151.192C397.819 151.192 399.291 149.368 399.291 147.128C399.291 144.888 397.819 143.08 395.467 143.08C393.115 143.08 391.643 144.888 391.643 147.128C391.643 149.368 393.115 151.192 395.467 151.192ZM395.467 150.12C393.819 150.12 392.891 148.712 392.891 147.128C392.891 145.56 393.819 144.152 395.467 144.152C397.115 144.152 398.027 145.56 398.027 147.128C398.027 148.712 397.115 150.12 395.467 150.12ZM402.447 151V147.544H406.479V151H407.679V143.272H406.479V146.488H402.447V143.272H401.247V151H402.447ZM416.875 151L413.435 146.776L416.859 143.272H415.339L411.275 147.384V143.272H410.075V151H411.275V148.792L412.555 147.528L415.339 151H416.875ZM417.862 154.024C418.086 154.088 418.486 154.136 418.742 154.136C419.766 154.12 420.55 153.688 421.014 152.568L424.886 143.272H423.574L421.014 149.608L418.438 143.272H417.142L420.374 151.08L419.862 152.248C419.59 152.888 419.238 153.064 418.71 153.064C418.518 153.064 418.23 153.016 418.054 152.936L417.862 154.024ZM429.946 151.192C431.978 151.192 433.385 149.624 433.385 147.128C433.385 144.616 431.978 143.08 429.946 143.08C428.858 143.08 427.898 143.64 427.338 144.424V143.272H426.138V153.944H427.338V149.832C427.962 150.696 428.89 151.192 429.946 151.192ZM429.641 150.12C428.698 150.12 427.754 149.544 427.338 148.872V145.384C427.754 144.712 428.698 144.152 429.641 144.152C431.194 144.152 432.122 145.416 432.122 147.128C432.122 148.84 431.194 150.12 429.641 150.12ZM438.782 151.192C440.046 151.192 441.086 150.776 441.854 150.008L441.278 149.224C440.67 149.848 439.774 150.2 438.894 150.2C437.23 150.2 436.206 148.984 436.11 147.528H442.366V147.224C442.366 144.904 440.99 143.08 438.654 143.08C436.446 143.08 434.846 144.888 434.846 147.128C434.846 149.544 436.494 151.192 438.782 151.192ZM441.182 146.648H436.11C436.174 145.464 436.99 144.072 438.638 144.072C440.398 144.072 441.166 145.496 441.182 146.648ZM445.509 151V147.544H449.541V151H450.741V143.272H449.541V146.488H445.509V143.272H444.309V151H445.509ZM455.746 151V144.328H458.002V143.272H452.306V144.328H454.546V151H455.746ZM465.607 151V145.688C465.607 143.816 464.247 143.08 462.615 143.08C461.351 143.08 460.359 143.496 459.527 144.36L460.087 145.192C460.775 144.456 461.527 144.12 462.455 144.12C463.575 144.12 464.407 144.712 464.407 145.752V147.144C463.783 146.424 462.903 146.088 461.847 146.088C460.535 146.088 459.143 146.904 459.143 148.632C459.143 150.312 460.535 151.192 461.847 151.192C462.887 151.192 463.767 150.824 464.407 150.12V151H465.607ZM462.279 150.328C461.159 150.328 460.375 149.624 460.375 148.648C460.375 147.656 461.159 146.952 462.279 146.952C463.127 146.952 463.943 147.272 464.407 147.912V149.368C463.943 150.008 463.127 150.328 462.279 150.328ZM475.901 151V143.272H474.301L471.965 149L469.597 143.272H468.013V151H469.213V144.936L471.741 151H472.189L474.701 144.936V151H475.901Z" fill="#E1523E"></path> <g filter="url(#filter10_d)"> <rect x="17" y="175" width="216" height="42" rx="21" fill="white"></rect> </g> <path d="M48.696 201V190.328H46.792L43.464 198.36L40.152 190.328H38.248V201H39.576V192.216L43.192 201H43.736L47.368 192.216V201H48.696ZM57.1695 201V195.688C57.1695 193.816 55.8095 193.08 54.1775 193.08C52.9135 193.08 51.9215 193.496 51.0895 194.36L51.6495 195.192C52.3375 194.456 53.0895 194.12 54.0175 194.12C55.1375 194.12 55.9695 194.712 55.9695 195.752V197.144C55.3455 196.424 54.4655 196.088 53.4095 196.088C52.0975 196.088 50.7055 196.904 50.7055 198.632C50.7055 200.312 52.0975 201.192 53.4095 201.192C54.4495 201.192 55.3295 200.824 55.9695 200.12V201H57.1695ZM53.8415 200.328C52.7215 200.328 51.9375 199.624 51.9375 198.648C51.9375 197.656 52.7215 196.952 53.8415 196.952C54.6895 196.952 55.5055 197.272 55.9695 197.912V199.368C55.5055 200.008 54.6895 200.328 53.8415 200.328ZM62.183 201V194.328H64.439V193.272H58.743V194.328H60.983V201H62.183ZM69.5005 201.192C70.7645 201.192 71.8045 200.776 72.5725 200.008L71.9965 199.224C71.3885 199.848 70.4925 200.2 69.6125 200.2C67.9485 200.2 66.9245 198.984 66.8285 197.528H73.0845V197.224C73.0845 194.904 71.7085 193.08 69.3725 193.08C67.1645 193.08 65.5645 194.888 65.5645 197.128C65.5645 199.544 67.2125 201.192 69.5005 201.192ZM71.9005 196.648H66.8285C66.8925 195.464 67.7085 194.072 69.3565 194.072C71.1165 194.072 71.8845 195.496 71.9005 196.648ZM78.8361 201.192C80.8681 201.192 82.2761 199.624 82.2761 197.128C82.2761 194.616 80.8681 193.08 78.8361 193.08C77.7481 193.08 76.7881 193.64 76.2281 194.424V193.272H75.0281V203.944H76.2281V199.832C76.8521 200.696 77.7801 201.192 78.8361 201.192ZM78.5321 200.12C77.5881 200.12 76.6441 199.544 76.2281 198.872V195.384C76.6441 194.712 77.5881 194.152 78.5321 194.152C80.0841 194.152 81.0121 195.416 81.0121 197.128C81.0121 198.84 80.0841 200.12 78.5321 200.12ZM85.3364 201L89.4164 194.984V201H90.6164V193.272H89.4324L85.3844 199.176V193.272H84.1844V201H85.3364ZM92.1005 201.192C93.5885 201.192 94.4205 200.104 94.7725 197.224L95.1245 194.328H98.2445V201H99.4445V193.272H94.0685L93.5725 197.08C93.2685 199.368 92.8205 200.2 92.1005 200.2V201.192ZM105.249 201.192C106.657 201.192 107.489 200.616 108.081 199.848L107.281 199.112C106.769 199.8 106.113 200.12 105.313 200.12C103.665 200.12 102.641 198.84 102.641 197.128C102.641 195.416 103.665 194.152 105.313 194.152C106.113 194.152 106.769 194.456 107.281 195.16L108.081 194.424C107.489 193.656 106.657 193.08 105.249 193.08C102.945 193.08 101.393 194.84 101.393 197.128C101.393 199.432 102.945 201.192 105.249 201.192ZM110.914 201L112.803 198.008H114.915V201H116.115V193.272H112.035C110.467 193.272 109.587 194.328 109.587 195.64C109.587 196.936 110.419 197.816 111.571 197.96L109.507 201H110.914ZM112.163 196.952C111.283 196.952 110.819 196.408 110.819 195.64C110.819 194.872 111.315 194.328 112.163 194.328H114.915V196.952H112.163ZM126.974 201C128.398 201 129.23 200.152 129.23 198.904C129.23 198.024 128.606 197.208 127.822 197.016C128.478 196.808 129.07 196.184 129.07 195.256C129.07 194.088 128.254 193.272 126.894 193.272H122.638V201H126.974ZM126.734 199.944H123.838V197.56H126.734C127.55 197.56 127.982 198.136 127.982 198.76C127.982 199.496 127.502 199.944 126.734 199.944ZM126.686 196.504H123.838V194.328H126.686C127.422 194.328 127.838 194.76 127.838 195.432C127.838 196.04 127.438 196.504 126.686 196.504ZM139.43 201.192C141.462 201.192 142.87 199.624 142.87 197.128C142.87 194.616 141.462 193.08 139.43 193.08C138.342 193.08 137.382 193.64 136.822 194.424V193.272H135.622V203.944H136.822V199.832C137.446 200.696 138.374 201.192 139.43 201.192ZM139.126 200.12C138.182 200.12 137.238 199.544 136.822 198.872V195.384C137.238 194.712 138.182 194.152 139.126 194.152C140.678 194.152 141.606 195.416 141.606 197.128C141.606 198.84 140.678 200.12 139.126 200.12ZM150.81 201V195.688C150.81 193.816 149.45 193.08 147.818 193.08C146.554 193.08 145.562 193.496 144.73 194.36L145.29 195.192C145.978 194.456 146.73 194.12 147.658 194.12C148.778 194.12 149.61 194.712 149.61 195.752V197.144C148.986 196.424 148.106 196.088 147.05 196.088C145.738 196.088 144.346 196.904 144.346 198.632C144.346 200.312 145.738 201.192 147.05 201.192C148.09 201.192 148.97 200.824 149.61 200.12V201H150.81ZM147.482 200.328C146.362 200.328 145.578 199.624 145.578 198.648C145.578 197.656 146.362 196.952 147.482 196.952C148.33 196.952 149.146 197.272 149.61 197.912V199.368C149.146 200.008 148.33 200.328 147.482 200.328ZM155.952 201.192C158.176 201.192 159.488 200.232 159.488 198.936C159.488 197.656 158.144 197.112 157.248 197.048C158.16 196.936 159.328 196.312 159.328 195.16C159.328 193.848 157.856 193.08 155.776 193.096C154.368 193.096 153.328 193.592 152.608 194.328L153.232 195.064C153.888 194.392 154.736 194.072 155.824 194.072C157.104 194.072 158.08 194.568 158.08 195.304C158.08 196.184 157.072 196.6 155.792 196.6H154.064V197.576H155.792C157.152 197.576 158.224 197.896 158.224 198.856C158.224 199.672 157.328 200.2 155.952 200.2C154.8 200.2 153.776 199.848 153.056 199.16L152.464 199.928C153.232 200.696 154.4 201.192 155.952 201.192ZM166.842 193.272H161.434V201H162.634V194.328H166.842V193.272ZM171.779 201.192C174.131 201.192 175.603 199.368 175.603 197.128C175.603 194.888 174.131 193.08 171.779 193.08C169.427 193.08 167.955 194.888 167.955 197.128C167.955 199.368 169.427 201.192 171.779 201.192ZM171.779 200.12C170.131 200.12 169.203 198.712 169.203 197.128C169.203 195.56 170.131 194.152 171.779 194.152C173.427 194.152 174.339 195.56 174.339 197.128C174.339 198.712 173.427 200.12 171.779 200.12ZM181.895 201C183.319 201 184.151 200.152 184.151 198.904C184.151 198.024 183.527 197.208 182.743 197.016C183.399 196.808 183.991 196.184 183.991 195.256C183.991 194.088 183.175 193.272 181.815 193.272H177.559V201H181.895ZM181.655 199.944H178.759V197.56H181.655C182.471 197.56 182.903 198.136 182.903 198.76C182.903 199.496 182.423 199.944 181.655 199.944ZM181.607 196.504H178.759V194.328H181.607C182.343 194.328 182.759 194.76 182.759 195.432C182.759 196.04 182.359 196.504 181.607 196.504ZM189.795 201.192C192.147 201.192 193.619 199.368 193.619 197.128C193.619 194.888 192.147 193.08 189.795 193.08C187.443 193.08 185.971 194.888 185.971 197.128C185.971 199.368 187.443 201.192 189.795 201.192ZM189.795 200.12C188.147 200.12 187.219 198.712 187.219 197.128C187.219 195.56 188.147 194.152 189.795 194.152C191.443 194.152 192.355 195.56 192.355 197.128C192.355 198.712 191.443 200.12 189.795 200.12ZM199.383 201.192C201.415 201.192 202.823 199.624 202.823 197.128C202.823 194.616 201.415 193.08 199.383 193.08C198.295 193.08 197.335 193.64 196.775 194.424V193.272H195.575V203.944H196.775V199.832C197.399 200.696 198.327 201.192 199.383 201.192ZM199.079 200.12C198.135 200.12 197.191 199.544 196.775 198.872V195.384C197.191 194.712 198.135 194.152 199.079 194.152C200.631 194.152 201.559 195.416 201.559 197.128C201.559 198.84 200.631 200.12 199.079 200.12ZM208.219 201.192C209.483 201.192 210.523 200.776 211.291 200.008L210.715 199.224C210.107 199.848 209.211 200.2 208.331 200.2C206.667 200.2 205.643 198.984 205.547 197.528H211.803V197.224C211.803 194.904 210.427 193.08 208.091 193.08C205.883 193.08 204.283 194.888 204.283 197.128C204.283 199.544 205.931 201.192 208.219 201.192ZM210.619 196.648H205.547C205.611 195.464 206.427 194.072 208.075 194.072C209.835 194.072 210.603 195.496 210.619 196.648Z" fill="#E1523E"></path> <defs> <filter id="filter0_d" x="44" y="0" width="197" height="50" filterUnits="userSpaceOnUse" color-interpolation-filters="sRGB"> <feFlood flood-opacity="0" result="BackgroundImageFix"></feFlood> <feColorMatrix in="SourceAlpha" type="matrix" values="0 0 0 0 0 0 0 0 0 0 0 0 0 0 0 0 0 0 127 0"></feColorMatrix> <feOffset dx="4" dy="4"></feOffset> <feGaussianBlur stdDeviation="2"></feGaussianBlur> <feColorMatrix type="matrix" values="0 0 0 0 0.508229 0 0 0 0 0.511998 0 0 0 0 0.5125 0 0 0 0.1 0"></feColorMatrix> <feBlend mode="normal" in2="BackgroundImageFix" result="effect1_dropShadow"></feBlend> <feBlend mode="normal" in="SourceGraphic" in2="effect1_dropShadow" result="shape"></feBlend> </filter> <filter id="filter1_d" x="319" y="209" width="185" height="50" filterUnits="userSpaceOnUse" color-interpolation-filters="sRGB"> <feFlood flood-opacity="0" result="BackgroundImageFix"></feFlood> <feColorMatrix in="SourceAlpha" type="matrix" values="0 0 0 0 0 0 0 0 0 0 0 0 0 0 0 0 0 0 127 0"></feColorMatrix> <feOffset dx="4" dy="4"></feOffset> <feGaussianBlur stdDeviation="2"></feGaussianBlur> <feColorMatrix type="matrix" values="0 0 0 0 0.508229 0 0 0 0 0.511998 0 0 0 0 0.5125 0 0 0 0.1 0"></feColorMatrix> <feBlend mode="normal" in2="BackgroundImageFix" result="effect1_dropShadow"></feBlend> <feBlend mode="normal" in="SourceGraphic" in2="effect1_dropShadow" result="shape"></feBlend> </filter> <filter id="filter2_d" x="104" y="265" width="203" height="50" filterUnits="userSpaceOnUse" color-interpolation-filters="sRGB"> <feFlood flood-opacity="0" result="BackgroundImageFix"></feFlood> <feColorMatrix in="SourceAlpha" type="matrix" values="0 0 0 0 0 0 0 0 0 0 0 0 0 0 0 0 0 0 127 0"></feColorMatrix> <feOffset dx="4" dy="4"></feOffset> <feGaussianBlur stdDeviation="2"></feGaussianBlur> <feColorMatrix type="matrix" values="0 0 0 0 0.508229 0 0 0 0 0.511998 0 0 0 0 0.5125 0 0 0 0.1 0"></feColorMatrix> <feBlend mode="normal" in2="BackgroundImageFix" result="effect1_dropShadow"></feBlend> <feBlend mode="normal" in="SourceGraphic" in2="effect1_dropShadow" result="shape"></feBlend> </filter> <filter id="filter3_d" x="260" y="41" width="255" height="50" filterUnits="userSpaceOnUse" color-interpolation-filters="sRGB"> <feFlood flood-opacity="0" result="BackgroundImageFix"></feFlood> <feColorMatrix in="SourceAlpha" type="matrix" values="0 0 0 0 0 0 0 0 0 0 0 0 0 0 0 0 0 0 127 0"></feColorMatrix> <feOffset dx="4" dy="4"></feOffset> <feGaussianBlur stdDeviation="2"></feGaussianBlur> <feColorMatrix type="matrix" values="0 0 0 0 0.508229 0 0 0 0 0.511998 0 0 0 0 0.5125 0 0 0 0.1 0"></feColorMatrix> <feBlend mode="normal" in2="BackgroundImageFix" result="effect1_dropShadow"></feBlend> <feBlend mode="normal" in="SourceGraphic" in2="effect1_dropShadow" result="shape"></feBlend> </filter> <filter id="filter4_d" x="539" y="92" width="255" height="50" filterUnits="userSpaceOnUse" color-interpolation-filters="sRGB"> <feFlood flood-opacity="0" result="BackgroundImageFix"></feFlood> <feColorMatrix in="SourceAlpha" type="matrix" values="0 0 0 0 0 0 0 0 0 0 0 0 0 0 0 0 0 0 127 0"></feColorMatrix> <feOffset dx="4" dy="4"></feOffset> <feGaussianBlur stdDeviation="2"></feGaussianBlur> <feColorMatrix type="matrix" values="0 0 0 0 0.508229 0 0 0 0 0.511998 0 0 0 0 0.5125 0 0 0 0.1 0"></feColorMatrix> <feBlend mode="normal" in2="BackgroundImageFix" result="effect1_dropShadow"></feBlend> <feBlend mode="normal" in="SourceGraphic" in2="effect1_dropShadow" result="shape"></feBlend> </filter> <filter id="filter5_d" x="522" y="0" width="187" height="50" filterUnits="userSpaceOnUse" color-interpolation-filters="sRGB"> <feFlood flood-opacity="0" result="BackgroundImageFix"></feFlood> <feColorMatrix in="SourceAlpha" type="matrix" values="0 0 0 0 0 0 0 0 0 0 0 0 0 0 0 0 0 0 127 0"></feColorMatrix> <feOffset dx="4" dy="4"></feOffset> <feGaussianBlur stdDeviation="2"></feGaussianBlur> <feColorMatrix type="matrix" values="0 0 0 0 0.508229 0 0 0 0 0.511998 0 0 0 0 0.5125 0 0 0 0.1 0"></feColorMatrix> <feBlend mode="normal" in2="BackgroundImageFix" result="effect1_dropShadow"></feBlend> <feBlend mode="normal" in="SourceGraphic" in2="effect1_dropShadow" result="shape"></feBlend> </filter> <filter id="filter6_d" x="531" y="175" width="255" height="50" filterUnits="userSpaceOnUse" color-interpolation-filters="sRGB"> <feFlood flood-opacity="0" result="BackgroundImageFix"></feFlood> <feColorMatrix in="SourceAlpha" type="matrix" values="0 0 0 0 0 0 0 0 0 0 0 0 0 0 0 0 0 0 127 0"></feColorMatrix> <feOffset dx="4" dy="4"></feOffset> <feGaussianBlur stdDeviation="2"></feGaussianBlur> <feColorMatrix type="matrix" values="0 0 0 0 0.508229 0 0 0 0 0.511998 0 0 0 0 0.5125 0 0 0 0.1 0"></feColorMatrix> <feBlend mode="normal" in2="BackgroundImageFix" result="effect1_dropShadow"></feBlend> <feBlend mode="normal" in="SourceGraphic" in2="effect1_dropShadow" result="shape"></feBlend> </filter> <filter id="filter7_d" x="425" y="289" width="259" height="50" filterUnits="userSpaceOnUse" color-interpolation-filters="sRGB"> <feFlood flood-opacity="0" result="BackgroundImageFix"></feFlood> <feColorMatrix in="SourceAlpha" type="matrix" values="0 0 0 0 0 0 0 0 0 0 0 0 0 0 0 0 0 0 127 0"></feColorMatrix> <feOffset dx="4" dy="4"></feOffset> <feGaussianBlur stdDeviation="2"></feGaussianBlur> <feColorMatrix type="matrix" values="0 0 0 0 0.508229 0 0 0 0 0.511998 0 0 0 0 0.5125 0 0 0 0.1 0"></feColorMatrix> <feBlend mode="normal" in2="BackgroundImageFix" result="effect1_dropShadow"></feBlend> <feBlend mode="normal" in="SourceGraphic" in2="effect1_dropShadow" result="shape"></feBlend> </filter> <filter id="filter8_d" x="0" y="83" width="199" height="50" filterUnits="userSpaceOnUse" color-interpolation-filters="sRGB"> <feFlood flood-opacity="0" result="BackgroundImageFix"></feFlood> <feColorMatrix in="SourceAlpha" type="matrix" values="0 0 0 0 0 0 0 0 0 0 0 0 0 0 0 0 0 0 127 0"></feColorMatrix> <feOffset dx="-4" dy="4"></feOffset> <feGaussianBlur stdDeviation="2"></feGaussianBlur> <feColorMatrix type="matrix" values="0 0 0 0 0.508229 0 0 0 0 0.511998 0 0 0 0 0.5125 0 0 0 0.1 0"></feColorMatrix> <feBlend mode="normal" in2="BackgroundImageFix" result="effect1_dropShadow"></feBlend> <feBlend mode="normal" in="SourceGraphic" in2="effect1_dropShadow" result="shape"></feBlend> </filter> <filter id="filter9_d" x="247" y="125" width="261" height="50" filterUnits="userSpaceOnUse" color-interpolation-filters="sRGB"> <feFlood flood-opacity="0" result="BackgroundImageFix"></feFlood> <feColorMatrix in="SourceAlpha" type="matrix" values="0 0 0 0 0 0 0 0 0 0 0 0 0 0 0 0 0 0 127 0"></feColorMatrix> <feOffset dx="4" dy="4"></feOffset> <feGaussianBlur stdDeviation="2"></feGaussianBlur> <feColorMatrix type="matrix" values="0 0 0 0 0.508229 0 0 0 0 0.511998 0 0 0 0 0.5125 0 0 0 0.1 0"></feColorMatrix> <feBlend mode="normal" in2="BackgroundImageFix" result="effect1_dropShadow"></feBlend> <feBlend mode="normal" in="SourceGraphic" in2="effect1_dropShadow" result="shape"></feBlend> </filter> <filter id="filter10_d" x="9" y="175" width="224" height="50" filterUnits="userSpaceOnUse" color-interpolation-filters="sRGB"> <feFlood flood-opacity="0" result="BackgroundImageFix"></feFlood> <feColorMatrix in="SourceAlpha" type="matrix" values="0 0 0 0 0 0 0 0 0 0 0 0 0 0 0 0 0 0 127 0"></feColorMatrix> <feOffset dx="-4" dy="4"></feOffset> <feGaussianBlur stdDeviation="2"></feGaussianBlur> <feColorMatrix type="matrix" values="0 0 0 0 0.508229 0 0 0 0 0.511998 0 0 0 0 0.5125 0 0 0 0.1 0"></feColorMatrix> <feBlend mode="normal" in2="BackgroundImageFix" result="effect1_dropShadow"></feBlend> <feBlend mode="normal" in="SourceGraphic" in2="effect1_dropShadow" result="shape"></feBlend> </filter> </defs> </svg> 