<?xml version="1.0" encoding="UTF-8"?> <svg xmlns="http://www.w3.org/2000/svg" width="429" height="42" viewBox="0 0 429 42" fill="none"> <path d="M9.272 41H0.894V1.647H19.302C23.432 1.647 26.6573 2.86633 28.978 5.305C31.338 7.70433 32.518 10.7133 32.518 14.332C32.518 17.9113 31.338 20.9203 28.978 23.359C26.618 25.7977 23.3927 27.017 19.302 27.017H9.272V41ZM18.181 19.642C19.8723 19.642 21.249 19.17 22.311 18.226C23.4123 17.2427 23.963 15.9447 23.963 14.332C23.963 12.7193 23.4123 11.441 22.311 10.497C21.249 9.51366 19.8723 9.022 18.181 9.022H9.272V19.642H18.181Z" fill="#39C79A"></path> <path d="M65.5594 41H37.7114V1.647H65.5594V9.022H46.0894V17.341H65.1464V24.716H46.0894V33.625H65.5594V41ZM103.969 41H94.3518L86.6228 27.017H80.4868V41H72.1088V1.647H90.5168C94.5682 1.647 97.7738 2.827 100.134 5.187C102.533 7.547 103.733 10.5953 103.733 14.332C103.733 17.5573 102.887 20.173 101.196 22.179C99.5438 24.185 97.5182 25.4633 95.1188 26.014L103.969 41ZM89.2778 19.642C91.0085 19.642 92.4245 19.17 93.5258 18.226C94.6272 17.2427 95.1778 15.9447 95.1778 14.332C95.1778 12.7193 94.6272 11.441 93.5258 10.497C92.4245 9.51366 91.0085 9.022 89.2778 9.022H80.4868V19.642H89.2778ZM118.399 41H110.021V1.647H137.869V9.022H118.399V17.341H137.456V24.716H118.399V41ZM162.371 41.708C156.432 41.708 151.515 39.8003 147.621 35.985C143.766 32.1303 141.839 27.253 141.839 21.353C141.839 15.453 143.766 10.5953 147.621 6.78C151.515 2.92533 156.432 0.997998 162.371 0.997998C168.35 0.997998 173.266 2.90566 177.121 6.721C181.015 10.5363 182.962 15.4137 182.962 21.353C182.962 27.2923 181.015 32.1697 177.121 35.985C173.266 39.8003 168.35 41.708 162.371 41.708ZM153.698 30.616C155.901 33.0547 158.792 34.274 162.371 34.274C165.95 34.274 168.841 33.0547 171.044 30.616C173.247 28.1773 174.348 25.0897 174.348 21.353C174.348 17.6163 173.247 14.5287 171.044 12.09C168.841 9.65133 165.95 8.432 162.371 8.432C158.792 8.432 155.901 9.65133 153.698 12.09C151.535 14.5287 150.453 17.6163 150.453 21.353C150.453 25.0897 151.535 28.1773 153.698 30.616ZM220.701 41H211.084L203.355 27.017H197.219V41H188.841V1.647H207.249C211.301 1.647 214.506 2.827 216.866 5.187C219.266 7.547 220.465 10.5953 220.465 14.332C220.465 17.5573 219.62 20.173 217.928 22.179C216.276 24.185 214.251 25.4633 211.851 26.014L220.701 41ZM206.01 19.642C207.741 19.642 209.157 19.17 210.258 18.226C211.36 17.2427 211.91 15.9447 211.91 14.332C211.91 12.7193 211.36 11.441 210.258 10.497C209.157 9.51366 207.741 9.022 206.01 9.022H197.219V19.642H206.01ZM269.41 41H260.973V13.447L249.881 41H246.223L235.131 13.447V41H226.753V1.647H238.494L248.052 25.424L257.61 1.647H269.41V41ZM313.924 41H304.366L301.947 34.333H285.073L282.595 41H273.037L288.259 1.647H298.761L313.924 41ZM299.646 26.958L293.51 10.025L287.374 26.958H299.646ZM352.781 41H344.698L325.936 15.335V41H317.558V1.647H326.172L344.403 26.368V1.647H352.781V41ZM379.597 41.708C373.619 41.708 368.623 39.82 364.611 36.044C360.639 32.2287 358.652 27.3317 358.652 21.353C358.652 15.3743 360.639 10.497 364.611 6.721C368.623 2.90566 373.619 0.997998 379.597 0.997998C386.953 0.997998 392.44 4.20366 396.058 10.615L388.86 14.155C387.995 12.503 386.717 11.146 385.025 10.084C383.373 8.98266 381.564 8.432 379.597 8.432C376.018 8.432 373.068 9.65133 370.747 12.09C368.427 14.5287 367.266 17.6163 367.266 21.353C367.266 25.0897 368.427 28.1773 370.747 30.616C373.068 33.0547 376.018 34.274 379.597 34.274C381.564 34.274 383.373 33.743 385.025 32.681C386.717 31.619 387.995 30.2423 388.86 28.551L396.058 32.032C392.322 38.4827 386.835 41.708 379.597 41.708ZM428.893 41H401.045V1.647H428.893V9.022H409.423V17.341H428.48V24.716H409.423V33.625H428.893V41Z" fill="#E7EBEB"></path> </svg> 